<svg xmlns="http://www.w3.org/2000/svg" width="118.715" height="118.714" viewBox="0 0 118.715 118.714">
  <g id="maternity" transform="translate(0 -0.003)">
    <g id="Сгруппировать_2114" data-name="Сгруппировать 2114" transform="translate(0 15.655)">
      <g id="Сгруппировать_2113" data-name="Сгруппировать 2113">
        <path id="Контур_6512" data-name="Контур 6512" d="M91.921,166.4,79.468,153.943a2.319,2.319,0,0,0-1.64-.679h0l-6.681.01H71.1A31.035,31.035,0,0,1,60.26,151.3l4.009-2.688a7.29,7.29,0,0,0-4.077-13.346h-.113l9.235-9.235A7.194,7.194,0,0,0,66.972,114.3a7.189,7.189,0,0,0-9.836-9.836,7.19,7.19,0,0,0-11.729-2.342l-3.316,3.316a7.189,7.189,0,0,0-11.629-2.115l-1.47,1.47-5.975-5.942a4.452,4.452,0,0,1,5.954-6.6l5.787,5.787a2.319,2.319,0,1,0,3.279-3.279l-9.983-9.983a4.452,4.452,0,0,1,6.3-6.3L51.842,96.006a2.319,2.319,0,0,0,3.279-3.279L41.826,79.4a4.452,4.452,0,0,1,6.6-5.954L53.3,78.315a2.319,2.319,0,1,0,3.279-3.279l-4.871-4.871a9.082,9.082,0,0,0-15.2,4.082A9.089,9.089,0,0,0,23.821,86.932a9.08,9.08,0,0,0-4.645,14.585,9.083,9.083,0,0,0-3.993,15.18l1.035,1.035a25.968,25.968,0,0,0-6.03,16.75l.006,3.841L.679,147.836a2.319,2.319,0,1,0,3.279,3.279l10.194-10.194a2.319,2.319,0,0,0,.679-1.643l-.007-4.8a21.388,21.388,0,0,1,6.307-15.256l11.507-11.507h0l1.1-1.1A2.548,2.548,0,0,1,37.536,110l-3.065,3.065a2.319,2.319,0,0,0,0,3.279l.006.006.006.006a2.319,2.319,0,0,0,3.279,0l10.924-10.948a2.548,2.548,0,0,1,3.795,3.39L41.355,119.947a2.319,2.319,0,1,0,3.279,3.279l14.334-14.358a2.549,2.549,0,0,1,3.6,3.6L48.214,126.807a2.319,2.319,0,1,0,3.279,3.279l11.151-11.127a2.548,2.548,0,0,1,3.39,3.795L50.38,138.409a3.036,3.036,0,0,0,3.72,4.743l4.729-2.867a2.656,2.656,0,0,1,2.856,4.477L50.744,152.1a21.457,21.457,0,0,1-11.993,3.649h-.03l-7.432-.011h0a2.319,2.319,0,0,0-1.64.679L19.452,166.611a2.319,2.319,0,1,0,3.279,3.279l9.514-9.514,6.469.009h.037a26.081,26.081,0,0,0,14.575-4.434l2.343-1.571a35.688,35.688,0,0,0,15.43,3.532h.051l5.719-.008,11.773,11.773a2.319,2.319,0,1,0,3.279-3.279ZM24.2,109.6h0l-4.778,4.778-.956-.956a4.452,4.452,0,0,1,5.954-6.6l1.281,1.281Z" transform="translate(0 -67.507)" fill="#fff"/>
      </g>
    </g>
    <g id="Сгруппировать_2116" data-name="Сгруппировать 2116" transform="translate(114.078 87.752)">
      <g id="Сгруппировать_2115" data-name="Сгруппировать 2115">
        <path id="Контур_6513" data-name="Контур 6513" d="M495.958,379.131a2.317,2.317,0,1,0,.679,1.639A2.326,2.326,0,0,0,495.958,379.131Z" transform="translate(-492 -378.452)" fill="#fff"/>
      </g>
    </g>
    <g id="Сгруппировать_2118" data-name="Сгруппировать 2118" transform="translate(63.559 28.148)">
      <g id="Сгруппировать_2117" data-name="Сгруппировать 2117">
        <path id="Контур_6514" data-name="Контур 6514" d="M322.361,175.436l-5.538-5.538.013-9.375a35.372,35.372,0,0,0-6.015-19.819l-10.206-15.219a9.238,9.238,0,0,0-12.972-2.423,9.269,9.269,0,0,0-3.507,10.359l-6.06-6.06a2.319,2.319,0,1,0-3.279,3.279l13.018,13.018A3.316,3.316,0,0,0,293,139.593l-3.988-6.578a4.6,4.6,0,0,1,4.779-6.908,4.566,4.566,0,0,1,2.977,1.96l10.206,15.219a30.75,30.75,0,0,1,5.229,17.23l-.015,10.337a2.319,2.319,0,0,0,.679,1.643l6.219,6.219a2.319,2.319,0,1,0,3.279-3.279Z" transform="translate(-274.119 -121.388)" fill="#fff"/>
      </g>
    </g>
    <g id="Сгруппировать_2120" data-name="Сгруппировать 2120" transform="translate(58.108 27.991)">
      <g id="Сгруппировать_2119" data-name="Сгруппировать 2119">
        <path id="Контур_6515" data-name="Контур 6515" d="M254.568,121.391a2.312,2.312,0,1,0,.682,1.639A2.327,2.327,0,0,0,254.568,121.391Z" transform="translate(-250.61 -120.712)" fill="#fff"/>
      </g>
    </g>
    <g id="Сгруппировать_2122" data-name="Сгруппировать 2122" transform="translate(76.046 60.694)">
      <g id="Сгруппировать_2121" data-name="Сгруппировать 2121">
        <path id="Контур_6516" data-name="Контур 6516" d="M335.513,265.711a2.319,2.319,0,0,0-3.279-3.279l-1.011,1.011a11.118,11.118,0,0,0,0,15.705,2.319,2.319,0,0,0,3.279-3.279,6.475,6.475,0,0,1,0-9.147Z" transform="translate(-327.974 -261.753)" fill="#fff"/>
      </g>
    </g>
    <g id="Сгруппировать_2124" data-name="Сгруппировать 2124" transform="translate(94.302 12.524)">
      <g id="Сгруппировать_2123" data-name="Сгруппировать 2123">
        <path id="Контур_6517" data-name="Контур 6517" d="M423.077,54a7.964,7.964,0,0,0-4.161,1.183A7.963,7.963,0,0,0,414.756,54a8.13,8.13,0,0,0-8.046,8.193c0,2.56,1.841,5.635,5.628,9.4a59.069,59.069,0,0,0,5.171,4.546,2.319,2.319,0,0,0,2.817,0A59.113,59.113,0,0,0,425.5,71.6c3.787-3.765,5.628-6.84,5.628-9.4A8.13,8.13,0,0,0,423.077,54Zm-4.161,17.331c-3.875-3.218-7.569-7.325-7.569-9.138a3.488,3.488,0,0,1,3.409-3.556,3.314,3.314,0,0,1,2.456,1.091,2.319,2.319,0,0,0,3.408,0,3.315,3.315,0,0,1,2.456-1.091,3.488,3.488,0,0,1,3.409,3.556C426.486,64,422.791,68.111,418.916,71.333Z" transform="translate(-406.71 -54.002)" fill="#fff"/>
      </g>
    </g>
    <g id="Сгруппировать_2126" data-name="Сгруппировать 2126" transform="translate(0 0.003)">
      <g id="Сгруппировать_2125" data-name="Сгруппировать 2125">
        <path id="Контур_6518" data-name="Контур 6518" d="M16.367,0a7.964,7.964,0,0,0-4.161,1.183A7.964,7.964,0,0,0,8.046,0,8.129,8.129,0,0,0,0,8.2c0,2.56,1.841,5.635,5.628,9.4A59.13,59.13,0,0,0,10.8,22.142a2.319,2.319,0,0,0,2.817,0A59.112,59.112,0,0,0,18.786,17.6c3.787-3.765,5.628-6.84,5.628-9.4A8.13,8.13,0,0,0,16.367,0ZM12.206,17.334C8.331,14.115,4.637,10.009,4.637,8.2A3.488,3.488,0,0,1,8.046,4.64,3.314,3.314,0,0,1,10.5,5.731a2.319,2.319,0,0,0,3.408,0A3.315,3.315,0,0,1,16.367,4.64,3.488,3.488,0,0,1,19.776,8.2C19.776,10,16.081,14.112,12.206,17.334Z" transform="translate(0 -0.003)" fill="#fff"/>
      </g>
    </g>
  </g>
</svg>
