<svg xmlns="http://www.w3.org/2000/svg" width="908.204" height="1126.453" viewBox="0 0 908.204 1126.453">
  <g id="Сгруппировать_2139" data-name="Сгруппировать 2139" transform="translate(-513.148 -420.545)">
    <path id="Контур_6112" data-name="Контур 6112" d="M-636,17749.658l12.771,12.771,16.28-16.279" transform="translate(1274.438 -17319.949)" fill="none" stroke="#59819a" stroke-linecap="round" stroke-linejoin="round" stroke-width="8" opacity="0.8"/>
    <path id="Контур_6577" data-name="Контур 6577" d="M-636,17749.658l12.771,12.771,16.28-16.279" transform="translate(1437.438 -16521.949)" fill="none" stroke="#59819a" stroke-linecap="round" stroke-linejoin="round" stroke-width="8" opacity="0.8"/>
    <path id="Контур_6579" data-name="Контур 6579" d="M-636,17749.658l12.771,12.771,16.28-16.279" transform="translate(1861.438 -16624.949)" fill="none" stroke="#59819a" stroke-linecap="round" stroke-linejoin="round" stroke-width="8" opacity="0.8"/>
    <path id="Контур_6581" data-name="Контур 6581" d="M-636,17749.658l12.771,12.771,16.28-16.279" transform="translate(1200.096 -16281.949)" fill="none" stroke="#59819a" stroke-linecap="round" stroke-linejoin="round" stroke-width="8" opacity="0.8"/>
    <path id="Контур_6583" data-name="Контур 6583" d="M-636,17749.658l12.771,12.771,16.28-16.279" transform="translate(1753.096 -16326.949)" fill="none" stroke="#59819a" stroke-linecap="round" stroke-linejoin="round" stroke-width="8" opacity="0.8"/>
    <path id="Контур_6585" data-name="Контур 6585" d="M-636,17749.658l12.771,12.771,16.28-16.279" transform="translate(2022.645 -16237.949)" fill="none" stroke="#59819a" stroke-linecap="round" stroke-linejoin="round" stroke-width="8" opacity="0.8"/>
    <path id="Контур_6587" data-name="Контур 6587" d="M-636,17749.658l12.771,12.771,16.28-16.279" transform="translate(1604.12 -16987.949)" fill="none" stroke="#59819a" stroke-linecap="round" stroke-linejoin="round" stroke-width="8" opacity="0.8"/>
    <path id="Контур_6507" data-name="Контур 6507" d="M-636,17749.658l12.771,12.771,16.28-16.279" transform="translate(2008.12 -16844.949)" fill="none" stroke="#59819a" stroke-linecap="round" stroke-linejoin="round" stroke-width="8" opacity="0.8"/>
    <path id="Контур_6509" data-name="Контур 6509" d="M-636,17749.658l12.771,12.771,16.28-16.279" transform="translate(2000 -17293.289)" fill="none" stroke="#59819a" stroke-linecap="round" stroke-linejoin="round" stroke-width="8" opacity="0.8"/>
    <path id="Контур_6511" data-name="Контур 6511" d="M-636,17750.48l15.758,15.758,20.088-20.088" transform="translate(1215.742 -16836.809)" fill="none" stroke="#59819a" stroke-linecap="round" stroke-linejoin="round" stroke-width="8" opacity="0.8"/>
    <path id="Контур_6113" data-name="Контур 6113" d="M-636,17749.658l12.771,12.771,16.28-16.279" transform="translate(1229.146 -17301.43)" fill="none" stroke="#59819a" stroke-linecap="round" stroke-linejoin="round" stroke-width="8" opacity="0.8"/>
    <path id="Контур_6576" data-name="Контур 6576" d="M-636,17749.658l12.771,12.771,16.28-16.279" transform="translate(1392.146 -16503.43)" fill="none" stroke="#59819a" stroke-linecap="round" stroke-linejoin="round" stroke-width="8" opacity="0.8"/>
    <path id="Контур_6578" data-name="Контур 6578" d="M-636,17749.658l12.771,12.771,16.28-16.279" transform="translate(1816.146 -16606.43)" fill="none" stroke="#59819a" stroke-linecap="round" stroke-linejoin="round" stroke-width="8" opacity="0.8"/>
    <path id="Контур_6580" data-name="Контур 6580" d="M-636,17749.658l12.771,12.771,16.28-16.279" transform="translate(1154.805 -16263.43)" fill="none" stroke="#59819a" stroke-linecap="round" stroke-linejoin="round" stroke-width="8" opacity="0.8"/>
    <path id="Контур_6582" data-name="Контур 6582" d="M-636,17749.658l12.771,12.771,16.28-16.279" transform="translate(1707.805 -16308.43)" fill="none" stroke="#59819a" stroke-linecap="round" stroke-linejoin="round" stroke-width="8" opacity="0.8"/>
    <path id="Контур_6584" data-name="Контур 6584" d="M-636,17749.658l12.771,12.771,16.28-16.279" transform="translate(1977.354 -16219.43)" fill="none" stroke="#59819a" stroke-linecap="round" stroke-linejoin="round" stroke-width="8" opacity="0.8"/>
    <path id="Контур_6586" data-name="Контур 6586" d="M-636,17749.658l12.771,12.771,16.28-16.279" transform="translate(1558.829 -16969.43)" fill="none" stroke="#59819a" stroke-linecap="round" stroke-linejoin="round" stroke-width="8" opacity="0.8"/>
    <path id="Контур_6506" data-name="Контур 6506" d="M-636,17749.658l12.771,12.771,16.28-16.279" transform="translate(1962.829 -16826.43)" fill="none" stroke="#59819a" stroke-linecap="round" stroke-linejoin="round" stroke-width="8" opacity="0.8"/>
    <path id="Контур_6508" data-name="Контур 6508" d="M-636,17749.658l12.771,12.771,16.28-16.279" transform="translate(1954.708 -17274.77)" fill="none" stroke="#59819a" stroke-linecap="round" stroke-linejoin="round" stroke-width="8" opacity="0.8"/>
    <path id="Контур_6510" data-name="Контур 6510" d="M-636,17750.48l15.758,15.758,20.088-20.088" transform="translate(1159.855 -16813.957)" fill="none" stroke="#59819a" stroke-linecap="round" stroke-linejoin="round" stroke-width="8" opacity="0.8"/>
  </g>
</svg>
