<svg xmlns="http://www.w3.org/2000/svg" width="159.723" height="152.794" viewBox="0 0 159.723 152.794">
  <path id="pencil" d="M158.684,44.136a3.549,3.549,0,0,0,0-5.019L130.37,10.8a3.549,3.549,0,0,0-5.019,0L115.163,20.994,72.1,64.058,24.408,21.231A14.632,14.632,0,0,0,3.746,41.894L46.573,89.581,16.926,119.228a3.548,3.548,0,0,0-.941,1.68L7.028,158.179a3.548,3.548,0,0,0,4.28,4.28L48.579,153.5a3.55,3.55,0,0,0,1.68-.941L78.116,124.7l10.927,12.167A28.061,28.061,0,0,0,117,162.556h24.519a3.549,3.549,0,0,0,3.549-3.549v-24.52a28.065,28.065,0,0,0-25.686-27.961L107.219,95.6l51.466-51.465Zm-30.824-25.8,23.3,23.3L145.985,46.8,122.69,23.5l5.17-5.172ZM117.672,28.522l23.294,23.294L101.931,90.852,77.384,68.807l40.288-40.285ZM9.3,26.79a7.535,7.535,0,0,1,10.362-.278L89.084,88.854,71.369,106.57,9.026,37.152A7.535,7.535,0,0,1,9.3,26.79Zm12.1,101.936,19.356,19.356L15.282,154.2l6.123-25.479ZM47.75,145.033l-23.3-23.3L51.321,94.869l22.045,24.547Zm90.223-10.544v20.97H117a20.877,20.877,0,0,1-20.835-18.68l23.125-23.125a20.958,20.958,0,0,1,18.68,20.836Zm-45.326-4.226-16.528-18.4L94.372,93.6l18.4,16.529-20.13,20.13Z" transform="translate(0 -9.763)" fill="#fff"/>
</svg>
