<svg xmlns="http://www.w3.org/2000/svg" width="131.15" height="133.141" viewBox="0 0 131.15 133.141">
  <g id="Aesthetic_education_2" data-name="Aesthetic education_2" transform="translate(-3.814 0)">
    <path id="Контур_6478" data-name="Контур 6478" d="M129.238,5.726a19.6,19.6,0,0,0-27.692,0l-92.8,92.8L3.814,131.15l32.622-4.93,92.8-92.8a19.6,19.6,0,0,0,0-27.692ZM30.423,99l-9.692-1.385L87.7,30.648l5.539,5.539Zm5.538,5.538L98.777,41.725l5.539,5.539L37.346,114.232ZM93.238,25.11l5.539-5.538,16.615,16.615-5.538,5.538Zm-77.523,79.7,12.631,1.8,1.8,12.631-17.005,2.57ZM123.7,27.88l-2.769,2.769L104.315,14.034l2.769-2.769A11.749,11.749,0,0,1,123.7,27.88Z" transform="translate(0 0)" fill="#fff"/>
    <path id="Контур_6479" data-name="Контур 6479" d="M261.677,375.63H226.432a3.916,3.916,0,0,1,0-7.832h23.5v-7.832h-23.5c-15.59.647-15.578,22.856,0,23.5h35.246a3.916,3.916,0,0,1,0,7.832H191.186v7.832h70.491C277.267,398.48,277.255,376.271,261.677,375.63Z" transform="translate(-138.453 -265.985)" fill="#fff"/>
  </g>
</svg>
