<svg xmlns="http://www.w3.org/2000/svg" width="132" height="134.14" viewBox="0 0 132 134.14">
  <g id="Birthdays" transform="translate(-0.392)">
    <path id="Контур_6408" data-name="Контур 6408" d="M132.392,187.188v-19.8a11.011,11.011,0,0,0-11-11h-8.8v-22a2.2,2.2,0,0,0-2.2-2.2h-13.2a2.2,2.2,0,0,0-2.2,2.2v22h-19.8v-26.4a2.2,2.2,0,0,0-2.2-2.2h-13.2a2.2,2.2,0,0,0-2.2,2.2v26.4h-19.8v-22a2.2,2.2,0,0,0-2.2-2.2h-13.2a2.2,2.2,0,0,0-2.2,2.2v22h-8.8a11.013,11.013,0,0,0-11,11v19.8a12.761,12.761,0,0,0,6.6,11.378v23.822h-4.4a2.2,2.2,0,0,0,0,4.4h127.6a2.2,2.2,0,0,0,0-4.4h-4.4V198.6A13.24,13.24,0,0,0,132.392,187.188Zm-33-50.6h8.8v19.8h-8.8Zm-37.4-4.4h8.8v24.2h-8.8Zm-37.4,4.4h8.8v19.8h-8.8Zm-19.8,30.8a6.6,6.6,0,0,1,6.6-6.6h110a6.6,6.6,0,0,1,6.6,6.6v19.8a8.853,8.853,0,0,1-5.265,8.074,9,9,0,0,1-9.758-1.833,8.835,8.835,0,0,1-2.577-6.241v-8.8a8.778,8.778,0,0,0-4.87-7.832l-.134-.073a8.4,8.4,0,0,0-1.087-.424c-.219-.073-.42-.145-.638-.2a8.481,8.481,0,0,0-.853-.15c-.193-.028-.378-.086-.575-.1-.105,0-.206.015-.309.011s-.218-.032-.333-.032c-.244,0-.479.051-.721.07s-.5.031-.747.073a8.793,8.793,0,0,0-1.124.288c-.2.061-.4.105-.594.18a8.434,8.434,0,0,0-1.186.594c-.139.079-.286.136-.422.22a8.843,8.843,0,0,0-1.425,1.15,8.742,8.742,0,0,0-2.581,6.224v4.4a8.8,8.8,0,0,1-17.6,0v-4.4a8.778,8.778,0,0,0-4.87-7.832l-.134-.073a8.406,8.406,0,0,0-1.087-.424c-.219-.073-.42-.145-.638-.2a8.477,8.477,0,0,0-.853-.15c-.193-.028-.378-.086-.575-.1-.105,0-.206.015-.309.011s-.218-.032-.333-.032c-.244,0-.479.05-.721.07s-.5.031-.747.073a8.809,8.809,0,0,0-1.121.288c-.2.061-.4.105-.6.18a8.547,8.547,0,0,0-1.182.592c-.141.079-.29.139-.426.22a8.759,8.759,0,0,0-4.007,7.377v13.2a8.8,8.8,0,0,1-17.6,0v-13.2a8.778,8.778,0,0,0-4.87-7.832l-.134-.073a8.406,8.406,0,0,0-1.087-.424c-.219-.073-.42-.145-.638-.2a8.486,8.486,0,0,0-.853-.15c-.193-.028-.378-.086-.575-.1s-.422-.021-.642-.021a8.8,8.8,0,0,0-8.8,8.8v8.8a8.814,8.814,0,0,1-2.559,6.223,9.079,9.079,0,0,1-8.221,2.332,8.774,8.774,0,0,1-1.539-.477,9.055,9.055,0,0,1-2.7-1.837,8.835,8.835,0,0,1-2.577-6.241Zm6.6,55V200.205c.22.037.44.046.661.072l.169.018a13.247,13.247,0,0,0,5.7-.661,13.409,13.409,0,0,0,1.632-.7c.113-.055.22-.115.337-.176A13.487,13.487,0,0,0,21.131,198c.128-.087.257-.169.382-.261a12.83,12.83,0,0,0,5.28-10.547v-8.8a4.368,4.368,0,0,1,1.291-3.109,4.467,4.467,0,0,1,.722-.581c.046-.028.1-.048.143-.074a4.359,4.359,0,0,1,.676-.337c.069-.026.139-.042.207-.063a4.2,4.2,0,0,1,.66-.165c.105-.017.22-.021.323-.033a4.812,4.812,0,0,1,.556-.019,5.661,5.661,0,0,1,.9.132c.055.013.105.033.158.048a4.806,4.806,0,0,1,3.159,4.574v12.828a13.2,13.2,0,1,0,26.4,0v-13.2A4.387,4.387,0,0,1,64.01,174.7c.038-.024.082-.04.119-.063a4.394,4.394,0,0,1,.7-.348c.062-.024.126-.038.187-.057a4.665,4.665,0,0,1,.661-.172c.105-.015.22-.021.317-.031a4.4,4.4,0,0,1,.559-.019,5.66,5.66,0,0,1,.9.132c.055.013.105.033.158.048a4.807,4.807,0,0,1,3.176,4.574v4.028a13.2,13.2,0,0,0,26.4,0v-4.4a4.368,4.368,0,0,1,1.291-3.109,4.468,4.468,0,0,1,.722-.581c.046-.028.1-.048.145-.077a4.516,4.516,0,0,1,.674-.334c.069-.026.141-.042.22-.063a4.1,4.1,0,0,1,.649-.165c.105-.017.22-.021.323-.033a4.812,4.812,0,0,1,.556-.019,5.659,5.659,0,0,1,.9.132c.055.013.105.033.158.048a4.806,4.806,0,0,1,3.157,4.574v8.428a13.214,13.214,0,0,0,3.866,9.352,13.435,13.435,0,0,0,1.392,1.184c.143.1.29.2.44.294.37.252.743.487,1.132.7.155.084.308.165.464.242a13.471,13.471,0,0,0,1.362.585c.092.033.183.075.277.106a13.377,13.377,0,0,0,3.74.7h.015a13.14,13.14,0,0,0,1.839-.055l.22-.025c.22-.024.44-.033.661-.07v22.182Zm0,0" transform="translate(0 -92.648)" fill="#fff"/>
    <path id="Контур_6409" data-name="Контур 6409" d="M211.4,30.742a11.013,11.013,0,0,0,11-11c0-5.281-7.654-16.63-9.189-18.85a2.284,2.284,0,0,0-3.621,0c-1.536,2.22-9.19,13.569-9.19,18.85a11.014,11.014,0,0,0,11,11Zm0-24.623c3.166,4.948,6.6,11.22,6.6,13.623a6.6,6.6,0,1,1-13.2,0C204.8,17.339,208.232,11.066,211.4,6.119Zm0,0" transform="translate(-145.005)" fill="#fff"/>
    <path id="Контур_6410" data-name="Контур 6410" d="M347.4,46.742a11.013,11.013,0,0,0,11-11c0-5.281-7.654-16.63-9.189-18.85a2.284,2.284,0,0,0-3.621,0c-1.536,2.22-9.19,13.569-9.19,18.85A11.014,11.014,0,0,0,347.4,46.742Zm0-24.623c3.166,4.948,6.6,11.22,6.6,13.623a6.6,6.6,0,0,1-13.2,0C340.8,33.339,344.232,27.066,347.4,22.119Zm0,0" transform="translate(-243.605 -11.6)" fill="#fff"/>
    <path id="Контур_6411" data-name="Контур 6411" d="M75.4,46.742a11.013,11.013,0,0,0,11-11c0-5.281-7.654-16.63-9.189-18.85a2.284,2.284,0,0,0-3.621,0c-1.536,2.22-9.19,13.569-9.19,18.85a11.014,11.014,0,0,0,11,11Zm0-24.623c3.166,4.948,6.6,11.22,6.6,13.623a6.6,6.6,0,0,1-13.2,0c0-2.4,3.434-8.675,6.6-13.623Zm0,0" transform="translate(-46.404 -11.6)" fill="#fff"/>
  </g>
</svg>
