<svg xmlns="http://www.w3.org/2000/svg" width="281.031" height="154.84" viewBox="0 0 281.031 154.84">
  <g id="Language_club" data-name="Language club" transform="translate(-205.484 -2553.338)">
    <g id="Сгруппировать_2082" data-name="Сгруппировать 2082" transform="translate(205.484 2553.338)">
      <path id="united-kingdom" d="M111.354,92.2a6.665,6.665,0,0,1-3.246,1.993c-13.907,3.385-27.6,1.526-40.43-.669h0c-1.893-.325-3.785-.661-5.678-1s-3.769-.671-5.653-.993C43.1,89.261,29.024,87.42,15.111,91.446v5.176a9.359,9.359,0,1,1-11.332-.13V5.667A5.531,5.531,0,0,1,5.429,1.684,5.567,5.567,0,0,1,9.444,0a5.673,5.673,0,0,1,5.667,5.667V30.844a63.885,63.885,0,0,1,11.31-1.951c.022,0,.041-.009.062-.009l.011,0q3.227-.27,6.432-.272a142.8,142.8,0,0,1,24.057,2.526c1.893.324,3.784.661,5.677,1s3.769.671,5.653.993h0c12.441,2.132,25.695,3.941,38.9.723a5.3,5.3,0,0,1,3.54.307h0a4.483,4.483,0,0,1,.847.51,4.628,4.628,0,0,1,1.724,3.74V87.519a7,7,0,0,1-1.845,4.536,1.807,1.807,0,0,1-.129.141ZM11.333,90.027V5.667A1.891,1.891,0,0,0,9.444,3.778,1.843,1.843,0,0,0,8.1,4.355a1.811,1.811,0,0,0-.544,1.312V94.779a9.06,9.06,0,0,1,3.777.034ZM9.366,98.375a5.588,5.588,0,1,0,5.586,5.586,5.586,5.586,0,0,0-5.586-5.586Zm60.519-8.313a134.652,134.652,0,0,0,21.268,2.2A222.965,222.965,0,0,1,69.885,77.978Zm0-16.787A194.6,194.6,0,0,0,98.544,91.948c2-.188,4-.464,6.008-.853C93.121,86.773,81.919,79.191,71.4,71.47c-.506-.081-1.013-.162-1.517-.245ZM54.775,87.431V75.054A174.026,174.026,0,0,0,33.542,85.288,136.251,136.251,0,0,1,54.775,87.431ZM25.84,85.605A162.985,162.985,0,0,1,54.775,70.97V68.6q-1.01-.17-2.028-.331A137.33,137.33,0,0,0,20.71,86.282q2.57-.442,5.13-.676Zm-10.729.327A129.058,129.058,0,0,1,45.624,67.248c-.22-.027-.438-.056-.659-.082-.5-.059-1.01-.112-1.516-.165-.327-.035-.654-.072-.982-.1-.495-.048-.991-.09-1.487-.132-.342-.029-.683-.061-1.025-.086-.083-.007-.167-.01-.251-.016A116.756,116.756,0,0,0,15.111,83.278Zm0-12.111V78.29A118.059,118.059,0,0,1,32.26,66.406c-.43,0-.859.014-1.29.025-.388.01-.775.019-1.163.035-.451.019-.9.045-1.355.072-.4.024-.8.048-1.2.079-.444.035-.89.075-1.335.119-.406.04-.812.08-1.219.127-.439.051-.878.11-1.318.17-.415.056-.831.116-1.246.182-.431.068-.861.144-1.292.22s-.847.156-1.271.243-.846.179-1.27.274-.862.2-1.293.309-.831.215-1.247.33c-.217.06-.434.126-.65.188Zm0-20.313.132-.032c.292-.079.585-.144.877-.217.583-.147,1.166-.294,1.748-.422.324-.072.649-.131.974-.2.548-.112,1.1-.223,1.645-.32.341-.06.681-.11,1.022-.163.532-.085,1.063-.169,1.594-.24.35-.047.7-.086,1.049-.126.52-.061,1.04-.122,1.56-.17.357-.034.714-.061,1.071-.09.51-.041,1.02-.079,1.528-.108.364-.022.727-.038,1.09-.054.5-.022,1-.042,1.505-.054q.547-.013,1.1-.019c.079,0,.158,0,.238,0a82.589,82.589,0,0,0-17.129-7.8Zm0-13.952a94.641,94.641,0,0,1,24.795,12c.429.032.856.068,1.284.1.367.031.733.061,1.1.1.482.045.961.1,1.442.146.367.037.733.075,1.1.117l.386.043c-9.749-6.855-19.933-13.069-30.1-16.21ZM54.775,34.6a134.716,134.716,0,0,0-21.249-2.188A223.017,223.017,0,0,1,54.775,46.682Zm0,16.786A194.71,194.71,0,0,0,26.13,32.719c-2.018.189-4.038.461-6.057.853C31.488,37.881,42.7,45.442,53.256,53.19c.507.081,1.014.161,1.519.246Zm15.11-14.159V49.6A173.957,173.957,0,0,0,91.1,39.381,135.724,135.724,0,0,1,69.885,37.227Zm28.929,1.831A162.976,162.976,0,0,1,69.885,53.69v2.373q1.012.17,2.03.331A137.088,137.088,0,0,0,103.97,38.373q-2.585.446-5.156.685Zm10.736-.338A128.917,128.917,0,0,1,79.039,57.411c.264.032.527.067.79.1.2.022.393.042.589.064.637.072,1.275.141,1.914.2.236.023.472.041.709.063.6.054,1.2.108,1.805.153l.107.007a116.78,116.78,0,0,0,24.6-16.617Zm0,7.65A117.885,117.885,0,0,1,92.4,58.254h.025c.336,0,.673-.012,1.01-.018.508-.011,1.017-.024,1.526-.046.353-.015.706-.036,1.058-.056.495-.028.989-.059,1.484-.1.365-.029.729-.064,1.094-.1.482-.045.965-.094,1.448-.151.378-.044.757-.094,1.134-.146q.7-.095,1.408-.2c.388-.062.777-.13,1.165-.2q.691-.123,1.379-.263c.4-.081.8-.169,1.193-.259q.674-.152,1.348-.321.607-.153,1.215-.321c.22-.061.442-.129.662-.193Zm0,13.45c-.067.018-.132.031-.2.049-.393.1-.785.193-1.178.289-.526.129-1.051.261-1.577.374-.421.092-.842.169-1.263.251-.5.1-.993.2-1.488.281-.438.075-.876.137-1.313.2-.477.072-.955.144-1.431.2-.449.057-.9.1-1.343.151-.467.05-.934.1-1.4.139s-.9.071-1.357.1-.918.061-1.376.083-.91.039-1.363.053-.91.026-1.364.032-.91.009-1.364.008-.9-.006-1.357-.014S89.27,62,88.819,61.99s-.905-.034-1.357-.054-.894-.043-1.341-.07-.907-.06-1.361-.093-.886-.065-1.328-.1-.908-.082-1.361-.125-.876-.084-1.312-.131c-.464-.049-.926-.1-1.388-.158-.42-.048-.84-.1-1.26-.149-.481-.061-.961-.125-1.44-.19-.4-.054-.8-.106-1.2-.163-.513-.073-1.023-.15-1.534-.227-.359-.054-.718-.105-1.076-.161-.587-.091-1.172-.185-1.757-.279-.283-.045-.566-.089-.847-.136q-1.294-.211-2.578-.432a1.89,1.89,0,0,1-1.569-1.862V36.584q-2.054-.357-4.109-.726l-3.446-.61v20.42a1.836,1.836,0,0,1-1.336,1.791A1.9,1.9,0,0,1,57,57.5a1.825,1.825,0,0,1-.334.06,1.97,1.97,0,0,1-.319-.027q-1.28-.219-2.571-.431l-.023,0q-1.268-.208-2.546-.406c-.083-.013-.167-.024-.25-.038q-1.158-.176-2.323-.342c-.156-.022-.314-.042-.469-.063-.707-.1-1.416-.194-2.126-.283-.2-.024-.394-.045-.591-.069-.666-.08-1.332-.159-2-.23-.246-.026-.493-.048-.739-.073-.624-.062-1.249-.123-1.876-.176-.271-.023-.543-.041-.814-.061-.6-.046-1.2-.09-1.8-.125-.3-.018-.6-.029-.895-.044-.578-.029-1.155-.057-1.734-.074-.318-.01-.637-.013-.956-.02-.559-.011-1.118-.021-1.678-.021-.336,0-.673.007-1.009.011-.545.006-1.089.016-1.634.034-.351.012-.7.031-1.055.048-.529.025-1.057.054-1.585.091-.368.026-.737.06-1.106.092-.514.045-1.029.093-1.543.15-.38.042-.759.092-1.139.14-.5.065-1,.134-1.506.211-.393.061-.787.128-1.179.2-.489.086-.976.175-1.464.273-.406.081-.811.169-1.217.259q-.712.158-1.424.335-.628.157-1.255.33c-.239.066-.479.138-.718.208v7.393l.05-.013q1.3-.35,2.6-.64c.232-.051.463-.09.694-.139.64-.134,1.28-.267,1.919-.38.35-.062.7-.111,1.049-.166.52-.084,1.04-.17,1.559-.241.383-.052.764-.091,1.146-.137.487-.056.974-.118,1.459-.165.393-.037.787-.065,1.18-.1.472-.038.946-.078,1.419-.106.4-.023.795-.039,1.192-.056.468-.021.936-.042,1.4-.054.4-.01.792-.014,1.188-.019.317,0,.635-.015.951-.015.13,0,.259.006.387.007.657,0,1.312.017,1.967.035.305.009.61.011.916.022q1.423.052,2.839.143c.088.006.176.015.263.02q1.3.088,2.584.2c.343.031.686.068,1.028.1.6.06,1.207.121,1.809.188q.584.066,1.164.138.838.1,1.67.21.594.078,1.185.16.833.115,1.662.239c.378.056.756.111,1.131.169q.9.137,1.79.282l.974.156q1.349.222,2.688.45A1.888,1.888,0,0,1,58.552,67V88.076q2.054.357,4.109.726l3.446.61V68.992a1.889,1.889,0,0,1,.672-1.445,1.911,1.911,0,0,1,1.536-.418q1.257.215,2.523.424c.317.053.637.1.955.153.529.086,1.057.171,1.589.253.393.061.789.118,1.185.176.457.068.914.137,1.373.2.441.063.884.119,1.326.179.416.055.829.113,1.245.165.45.057.9.106,1.355.159.416.048.832.1,1.247.144.446.048.893.088,1.34.131.423.041.845.084,1.268.119.45.038.9.069,1.356.1.42.03.84.062,1.261.088.456.027.912.046,1.369.067.419.019.84.041,1.26.054.458.015.917.02,1.376.028.421.007.84.016,1.261.016.458,0,.917-.008,1.376-.016.424-.006.847-.012,1.271-.026.454-.016.909-.038,1.363-.062.431-.022.862-.044,1.293-.073.45-.032.9-.072,1.349-.112s.871-.079,1.306-.126.9-.107,1.344-.165.878-.118,1.316-.184.888-.144,1.332-.222.887-.159,1.331-.248.876-.182,1.313-.279.9-.208,1.353-.32q.646-.161,1.289-.34c.237-.065.472-.137.709-.2Zm0,11.332c-.031.009-.061.013-.092.022-1.319.354-2.638.648-3.955.908-.271.054-.542.109-.812.158q-1.93.357-3.855.6c-.232.029-.463.05-.694.075-1.239.139-2.475.25-3.708.323-.125.007-.25.018-.374.026-1.218.067-2.432.1-3.645.106a82.629,82.629,0,0,0,17.136,7.807Zm0,13.953a94.642,94.642,0,0,1-24.8-12q-1.9-.139-3.785-.34c-.158-.017-.317-.031-.476-.048-.352-.037-.7-.08-1.055-.12,9.631,6.776,19.711,12.935,29.8,16.114a2.8,2.8,0,0,0,.311-1.193Zm0,0" transform="translate(154.828 98.175) rotate(150)" fill="#fff"/>
      <g id="Прямоугольник_1561" data-name="Прямоугольник 1561" transform="translate(161.028 117.3) rotate(150)" fill="#1f7e86" stroke="#fff" stroke-width="3">
        <rect width="10.971" height="117.32" rx="5.486" stroke="none"/>
        <rect x="1.5" y="1.5" width="7.971" height="114.32" rx="3.986" fill="none"/>
      </g>
    </g>
    <g id="Сгруппировать_2081" data-name="Сгруппировать 2081" transform="translate(324.621 2553.338)">
      <path id="united-kingdom-2" data-name="united-kingdom" d="M111.354,21.167a6.665,6.665,0,0,0-3.246-1.993c-13.907-3.385-27.6-1.526-40.43.669h0c-1.894.325-3.785.661-5.678,1s-3.769.671-5.653.993C43.1,24.1,29.024,25.943,15.111,21.917V16.741a9.359,9.359,0,1,0-11.333.13V107.7a5.531,5.531,0,0,0,1.651,3.982,5.567,5.567,0,0,0,4.015,1.684,5.673,5.673,0,0,0,5.667-5.667V82.519a63.882,63.882,0,0,0,11.31,1.951c.022,0,.041.009.062.009l.011,0q3.227.27,6.432.272a142.8,142.8,0,0,0,24.057-2.526c1.893-.324,3.784-.661,5.677-1s3.769-.671,5.653-.993h0c12.441-2.132,25.695-3.941,38.9-.723a5.3,5.3,0,0,0,3.54-.307h0a4.483,4.483,0,0,0,.847-.51,4.628,4.628,0,0,0,1.724-3.74V25.844a7,7,0,0,0-1.845-4.536,1.805,1.805,0,0,0-.129-.141ZM11.334,23.336V107.7a1.891,1.891,0,0,1-1.889,1.888,1.843,1.843,0,0,1-1.344-.577,1.811,1.811,0,0,1-.544-1.312V18.584a9.06,9.06,0,0,0,3.778-.034ZM9.367,14.988A5.588,5.588,0,1,1,14.953,9.4a5.586,5.586,0,0,1-5.586,5.586ZM69.885,23.3a134.652,134.652,0,0,1,21.268-2.2A222.97,222.97,0,0,0,69.885,35.385Zm0,16.787A194.6,194.6,0,0,1,98.545,21.414c2,.188,4,.464,6.008.853C93.122,26.589,81.92,34.172,71.4,41.893c-.506.081-1.013.162-1.517.245ZM54.775,25.931V38.308A174.025,174.025,0,0,1,33.542,28.075,136.252,136.252,0,0,0,54.775,25.931ZM25.84,27.757A162.986,162.986,0,0,0,54.775,42.393v2.373q-1.01.17-2.028.331A137.33,137.33,0,0,1,20.71,27.08q2.57.442,5.13.676Zm-10.729-.327A129.057,129.057,0,0,0,45.624,46.115c-.22.027-.438.056-.659.082-.5.059-1.01.112-1.516.165-.327.035-.654.072-.982.1-.495.048-.991.09-1.487.132-.342.029-.683.061-1.025.086-.083.007-.167.01-.251.016A116.757,116.757,0,0,1,15.111,30.085Zm0,12.112V35.073a118.059,118.059,0,0,0,17.15,11.884c-.43,0-.859-.014-1.29-.025-.388-.01-.775-.019-1.163-.035-.451-.019-.9-.045-1.355-.072-.4-.024-.8-.048-1.2-.079-.444-.035-.89-.075-1.335-.119-.406-.04-.812-.08-1.219-.127-.439-.051-.878-.11-1.318-.17-.415-.056-.831-.116-1.246-.182-.431-.068-.861-.144-1.292-.22s-.847-.156-1.271-.243-.846-.179-1.27-.274-.862-.2-1.293-.309-.831-.215-1.247-.33c-.217-.06-.434-.126-.65-.188Zm0,20.313.132.032c.292.079.585.144.877.217.583.147,1.166.294,1.748.422.324.072.649.131.974.2.548.112,1.1.223,1.645.32.341.06.681.11,1.022.163.532.085,1.063.169,1.594.24.35.047.7.086,1.049.126.52.061,1.04.122,1.56.17.357.034.714.061,1.071.09.51.041,1.02.079,1.528.108.364.022.727.038,1.09.054.5.022,1,.042,1.505.054q.547.013,1.1.019c.079,0,.158,0,.238,0a82.59,82.59,0,0,1-17.129,7.8Zm0,13.952a94.642,94.642,0,0,0,24.795-12c.429-.032.856-.068,1.284-.1.367-.031.733-.061,1.1-.1.482-.045.961-.1,1.442-.146.367-.037.733-.075,1.1-.117l.386-.043c-9.749,6.855-19.933,13.069-30.1,16.21Zm39.664,4.956a134.716,134.716,0,0,1-21.249,2.188A223.018,223.018,0,0,0,54.775,66.68Zm0-16.786A194.712,194.712,0,0,1,26.13,80.644c-2.018-.189-4.038-.461-6.057-.852C31.488,75.481,42.7,67.92,53.256,60.173c.507-.081,1.014-.161,1.519-.246Zm15.11,14.159V63.758A173.959,173.959,0,0,1,91.1,73.981,135.724,135.724,0,0,0,69.885,76.136ZM98.814,74.3A162.977,162.977,0,0,0,69.885,59.673V57.3q1.012-.17,2.03-.331A137.088,137.088,0,0,1,103.97,74.989q-2.585-.446-5.156-.685Zm10.736.338A128.916,128.916,0,0,0,79.04,55.952c.264-.032.527-.067.79-.1.2-.022.393-.042.589-.064.637-.072,1.275-.141,1.914-.2.236-.023.472-.041.709-.063.6-.054,1.2-.108,1.805-.153l.107-.007a116.779,116.779,0,0,1,24.6,16.617Zm0-7.65A117.884,117.884,0,0,0,92.4,55.108h.025c.336,0,.673.012,1.01.018.508.011,1.017.024,1.526.046.353.015.706.036,1.058.056.495.028.989.059,1.484.1.365.029.729.064,1.094.1.482.045.965.094,1.448.151.378.044.757.094,1.134.146q.7.095,1.408.2c.388.062.777.13,1.165.2q.691.123,1.379.263c.4.081.8.169,1.193.259q.674.152,1.348.321.607.153,1.215.321c.22.061.442.129.662.193Zm0-13.45c-.067-.018-.132-.031-.2-.049-.393-.1-.785-.193-1.178-.289-.526-.129-1.051-.261-1.577-.374-.421-.092-.842-.169-1.263-.251-.5-.1-.993-.2-1.488-.281-.438-.075-.876-.137-1.313-.2-.477-.072-.955-.144-1.431-.2-.449-.057-.9-.1-1.343-.151-.467-.05-.934-.1-1.4-.139s-.9-.071-1.357-.1-.918-.061-1.376-.083-.91-.039-1.363-.053-.91-.026-1.364-.032-.91-.009-1.363-.008-.9.006-1.357.014-.905.019-1.357.034-.905.034-1.357.054-.894.043-1.341.07-.907.06-1.361.093-.886.065-1.328.1-.908.082-1.361.125-.876.084-1.312.131c-.464.049-.926.1-1.388.158-.42.048-.84.1-1.26.149-.481.061-.961.125-1.44.19-.4.054-.8.106-1.2.163-.513.073-1.023.15-1.534.227-.359.054-.718.105-1.076.161-.587.091-1.172.185-1.757.279-.283.045-.566.089-.847.136q-1.294.211-2.578.432A1.89,1.89,0,0,0,66.108,55.7V76.779q-2.054.357-4.109.726l-3.446.61V57.695A1.836,1.836,0,0,0,57.217,55.9,1.9,1.9,0,0,0,57,55.865a1.825,1.825,0,0,0-.334-.06,1.97,1.97,0,0,0-.319.027q-1.28.219-2.571.431l-.023,0q-1.268.208-2.546.406c-.083.013-.167.024-.25.038q-1.158.176-2.323.342c-.156.022-.314.042-.469.063-.707.1-1.416.194-2.126.283-.2.024-.394.045-.591.069-.666.08-1.332.159-2,.23-.246.026-.493.048-.739.073-.624.062-1.249.123-1.876.176-.271.023-.543.041-.814.061-.6.046-1.2.09-1.8.125-.3.018-.6.029-.895.044-.578.029-1.155.057-1.734.074-.318.01-.637.013-.956.02-.559.011-1.118.021-1.678.021-.336,0-.673-.007-1.009-.011-.545-.006-1.089-.016-1.634-.034-.351-.012-.7-.031-1.055-.048-.529-.025-1.057-.054-1.585-.091-.368-.026-.737-.06-1.106-.092-.514-.045-1.029-.093-1.543-.15-.38-.042-.759-.092-1.139-.14-.5-.065-1-.134-1.506-.211-.393-.061-.787-.128-1.179-.2-.489-.086-.976-.175-1.464-.273-.406-.081-.811-.169-1.217-.259q-.712-.158-1.424-.335-.628-.157-1.255-.33c-.239-.066-.479-.138-.718-.208V48.522l.05.013q1.3.35,2.6.64c.232.051.463.09.694.139.64.134,1.28.267,1.919.38.35.062.7.111,1.049.166.52.084,1.04.17,1.559.241.383.052.764.091,1.146.137.487.056.974.118,1.459.165.393.037.787.065,1.18.1.472.038.946.078,1.419.106.4.023.795.039,1.192.056.468.021.936.042,1.4.054.4.01.792.014,1.188.019.317,0,.635.015.951.015.13,0,.259-.006.387-.007.657,0,1.312-.017,1.967-.035.305-.009.61-.011.916-.022q1.423-.052,2.839-.143c.088-.006.176-.015.263-.02q1.3-.088,2.584-.2c.343-.031.686-.068,1.028-.1.6-.06,1.207-.121,1.809-.188q.584-.066,1.164-.138.838-.1,1.67-.21.594-.078,1.185-.16.833-.115,1.662-.239c.378-.056.756-.111,1.131-.169q.9-.137,1.79-.282l.974-.156q1.349-.222,2.688-.45a1.888,1.888,0,0,0,1.571-1.863V25.286q2.054-.357,4.109-.726l3.446-.61v20.42a1.889,1.889,0,0,0,.672,1.445,1.911,1.911,0,0,0,1.536.418q1.257-.215,2.523-.424c.317-.053.637-.1.955-.153.529-.086,1.057-.171,1.589-.253.393-.061.789-.118,1.185-.176.457-.068.914-.137,1.373-.2.441-.063.884-.119,1.326-.179.416-.055.829-.113,1.245-.165.45-.057.9-.106,1.355-.159.416-.048.832-.1,1.247-.144.446-.048.893-.088,1.34-.131.423-.041.845-.084,1.268-.119.45-.038.9-.069,1.356-.1.42-.03.84-.062,1.261-.088.456-.027.912-.046,1.369-.067.419-.019.84-.041,1.26-.054.458-.015.917-.02,1.376-.028.421-.007.84-.016,1.261-.016.458,0,.917.008,1.376.016.424.006.847.012,1.271.026.454.016.909.038,1.363.062.431.022.862.044,1.293.074.45.032.9.072,1.349.112s.871.079,1.306.126.9.107,1.344.165.878.118,1.316.184.888.144,1.332.222.887.159,1.331.248.876.182,1.313.279.9.208,1.353.32q.646.161,1.289.34c.237.065.472.137.709.2Zm0-11.332c-.031-.009-.061-.013-.092-.022-1.319-.354-2.638-.648-3.955-.908-.271-.054-.542-.109-.812-.158q-1.93-.357-3.855-.6c-.232-.029-.463-.05-.694-.075-1.239-.139-2.475-.25-3.708-.323-.125-.007-.25-.018-.374-.026-1.218-.067-2.432-.1-3.645-.106a82.63,82.63,0,0,1,17.136-7.807Zm0-13.953a94.642,94.642,0,0,0-24.8,12q-1.9.139-3.785.34c-.158.017-.317.031-.476.048-.352.037-.7.08-1.055.12,9.631-6.776,19.712-12.935,29.8-16.114a2.8,2.8,0,0,1,.311,1.193Zm0,0" transform="translate(63.748 0) rotate(30)" fill="#fff"/>
      <g id="Прямоугольник_1562" data-name="Прямоугольник 1562" transform="translate(59.526 15.697) rotate(30)" fill="#1f7e86" stroke="#fff" stroke-width="3">
        <rect width="10.971" height="117.32" rx="5.486" stroke="none"/>
        <rect x="1.5" y="1.5" width="7.971" height="114.32" rx="3.986" fill="none"/>
      </g>
      <path id="Контур_6399" data-name="Контур 6399" d="M-8798.6,14881.578s-4.9-5.484-15.092-11.357-16.259-7.2-27.85-12.136-15.792-6.185-26.139-11.824-14.816-9.746-14.816-9.746l-25.851,44.521s1.849,4.587,10.173,9.722,10.7,6.768,22.56,11.357,16.88,4.513,28,10.58,23.183,14.158,23.183,14.158Z" transform="translate(8945.895 -14806.338)" fill="#1f7e86"/>
      <path id="Контур_6398" data-name="Контур 6398" d="M-8811.9,14902.786a440.107,440.107,0,0,1-45.509-20.023,321.277,321.277,0,0,1-39.643-25.08" transform="translate(8946.615 -14805.383)" fill="none" stroke="#fff" stroke-width="4"/>
    </g>
  </g>
</svg>
