<svg xmlns="http://www.w3.org/2000/svg" width="151.592" height="134.141" viewBox="0 0 151.592 134.141">
  <g id="hands" transform="translate(0 -0.499)">
    <path id="Контур_6591" data-name="Контур 6591" d="M237.461,132.006a2.944,2.944,0,0,1-.577-.059,2.974,2.974,0,0,1-.554-.169,2.928,2.928,0,0,1-.512-.272,2.884,2.884,0,0,1-.817-.818,3.068,3.068,0,0,1-.273-.512,2.988,2.988,0,0,1-.169-.553,2.948,2.948,0,0,1-.059-.578,2.986,2.986,0,0,1,.059-.579,2.946,2.946,0,0,1,.169-.554,2.992,2.992,0,0,1,.64-.962,2.936,2.936,0,0,1,.45-.367,2.86,2.86,0,0,1,.512-.273,2.95,2.95,0,0,1,1.712-.169,3.1,3.1,0,0,1,.553.169,3.016,3.016,0,0,1,.96.64,3.355,3.355,0,0,1,.37.45,3.149,3.149,0,0,1,.272.512,2.973,2.973,0,0,1,.169.554,2.893,2.893,0,0,1,.057.579,2.857,2.857,0,0,1-.057.578,2.962,2.962,0,0,1-.169.553,3.15,3.15,0,0,1-.272.512,3.028,3.028,0,0,1-.37.45,2.813,2.813,0,0,1-.45.368,3.036,3.036,0,0,1-.51.272,3.1,3.1,0,0,1-.553.169A3.006,3.006,0,0,1,237.461,132.006Zm0,0" transform="translate(-165.07 -88.402)" fill="#fff"/>
    <path id="Контур_6592" data-name="Контур 6592" d="M150.724,98.2,119.018,66.546l.014-9.924a38.632,38.632,0,0,0-6.568-21.641c-.01-.016-.021-.031-.032-.046L96.3,11.846A10.426,10.426,0,0,0,81.628,9.17a10.527,10.527,0,0,0-3.693,12.2L60.147,3.586a10.382,10.382,0,0,0-14.6-.175,10.184,10.184,0,0,0-2.52,4.051A10.33,10.33,0,0,0,30.449,8.757a10.081,10.081,0,0,0-3.08,7.233,10.625,10.625,0,0,0,1.549,5.61,10.2,10.2,0,0,0-4.091,2.533,10.352,10.352,0,0,0-.977,13.232,10.259,10.259,0,0,0-3.891,16.949L29.146,63.5,17.636,75.01A29.687,29.687,0,0,0,8.884,96.18l.007,4.191L.867,108.4a2.961,2.961,0,0,0,0,4.188l21.188,21.188a2.96,2.96,0,0,0,4.187,0l8.024-8.024,7.158.009h.044a29.773,29.773,0,0,0,16.639-5.062l12.347-8.281a8.539,8.539,0,0,0-4.147-15.632l.433-.433a38.521,38.521,0,0,0,13.875,2.569h.058l5.981-.008L118.332,130.6a2.961,2.961,0,0,0,4.188,0l28.2-28.2a2.96,2.96,0,0,0,0-4.187ZM24.147,50.128A4.341,4.341,0,0,1,30,43.723l9.463,9.464-6.126,6.126Zm43.7,53.631a2.653,2.653,0,0,1-.687,3.738l-12.347,8.28a23.87,23.87,0,0,1-13.342,4.059h-.036l-8.386-.012h0a2.961,2.961,0,0,0-2.093.867l-6.8,6.8-17-17,6.8-6.8a2.962,2.962,0,0,0,.867-2.1l-.008-5.421A23.8,23.8,0,0,1,21.824,79.2l25-25a2.529,2.529,0,0,1,3.752,3.383L38.757,69.4a2.961,2.961,0,0,0,4.188,4.188l11.894-11.9.014-.014h0l3.692-3.693a2.611,2.611,0,0,1,3.665-.108,2.533,2.533,0,0,1,.179,3.4L46.513,77.155A2.961,2.961,0,0,0,50.7,81.342L66.669,65.374l.034-.035,3.261-3.261a2.8,2.8,0,0,1,1.966-.795,2.431,2.431,0,0,1,1.752.729,2.544,2.544,0,0,1-.035,3.546l-3.4,3.4-.012.012L54.281,84.924a2.961,2.961,0,0,0,4.188,4.188L74.352,73.228a2.533,2.533,0,0,1,3.393.184,2.609,2.609,0,0,1-.108,3.665l-23.294,23.3a3.769,3.769,0,0,0,4.619,5.889l5.221-3.164a2.739,2.739,0,0,1,3.66.662ZM87.878,92.986h0L80.664,93a32.887,32.887,0,0,1-9.256-1.316L81.824,81.265a8.544,8.544,0,0,0,.135-12.012,8.41,8.41,0,0,0-2.522-1.758A8.5,8.5,0,0,0,77.945,57.9a8.309,8.309,0,0,0-5.961-2.541,8.707,8.707,0,0,0-3.842.857,8.381,8.381,0,0,0-1.773-2.556,8.5,8.5,0,0,0-10.116-1.3,8.454,8.454,0,0,0-12.524-3.278l-9.61-9.61-.007-.008-.014-.013-4.91-4.91a4.449,4.449,0,0,1-.148-6.251,4.346,4.346,0,0,1,5.876-.274L56.063,49.167a2.961,2.961,0,0,0,4.188-4.188L34.631,19.36a4.65,4.65,0,0,1-1.342-3.314,4.2,4.2,0,0,1,1.266-3.024,4.366,4.366,0,0,1,6.085.059L63.375,35.816a2.961,2.961,0,1,0,4.187-4.188L49.427,13.491a4.345,4.345,0,0,1,.283-5.865,4.447,4.447,0,0,1,6.25.148L86.94,38.752a4.036,4.036,0,0,0,6.306-4.947q-.043-.071-.09-.139L83.862,20.112A4.621,4.621,0,0,1,85.05,14,4.506,4.506,0,0,1,91.4,15.169l.032.047L107.561,38.3a32.72,32.72,0,0,1,5.549,18.312l-.016,11.153a2.962,2.962,0,0,0,.867,2.1l11.945,11.945L101.917,105.8,89.971,93.854a2.963,2.963,0,0,0-2.093-.867Zm32.549,31.329-6.3-6.3,15.6-15.6a2.961,2.961,0,0,0-4.188-4.188l-15.6,15.6-3.842-3.842,24.017-24.016L144.444,100.3Zm0,0" transform="translate(0 0)" fill="#fff"/>
  </g>
</svg>
