<svg id="Part-time" xmlns="http://www.w3.org/2000/svg" width="126.657" height="126.657" viewBox="0 0 126.657 126.657">
  <g id="Сгруппировать_2090" data-name="Сгруппировать 2090">
    <g id="Сгруппировать_2089" data-name="Сгруппировать 2089">
      <path id="Контур_6404" data-name="Контур 6404" d="M63.329,0a63.329,63.329,0,1,0,63.329,63.329A63.4,63.4,0,0,0,63.329,0Zm0,121.15A57.822,57.822,0,1,1,121.15,63.329,57.885,57.885,0,0,1,63.329,121.15Z" fill="#fff"/>
    </g>
  </g>
  <g id="Сгруппировать_2092" data-name="Сгруппировать 2092" transform="translate(60.575 16.521)">
    <g id="Сгруппировать_2091" data-name="Сгруппировать 2091">
      <path id="Контур_6405" data-name="Контур 6405" d="M264.15,133.645l-23.977-23.977V66.754a2.754,2.754,0,0,0-5.507,0v44.055a2.773,2.773,0,0,0,.8,1.949l24.781,24.781a2.755,2.755,0,0,0,3.9-3.893Z" transform="translate(-234.666 -64)" fill="#fff"/>
    </g>
  </g>
</svg>
