<svg xmlns="http://www.w3.org/2000/svg" width="177.047" height="152.793" viewBox="0 0 177.047 152.793">
  <path id="Physical_Education" data-name="Physical Education" d="M167.71,25.235h-3.2V18.1a9.346,9.346,0,0,0-9.336-9.336H145.146a9.346,9.346,0,0,0-9.335,9.336V42.309H110.005V41.54a8.991,8.991,0,0,0-7.92-9.006,8.837,8.837,0,0,0-6.755,2.239q-.234.214-.452.443-.217-.228-.452-.443a8.8,8.8,0,0,0-6.757-2.239,8.565,8.565,0,0,0-5.454,2.748,8.733,8.733,0,0,0-12.753-.048,8.762,8.762,0,0,0-15.129,6.033v1.042h-13.1V18.1A9.347,9.347,0,0,0,31.9,8.767H21.872A9.346,9.346,0,0,0,12.536,18.1v7.132h-3.2A9.347,9.347,0,0,0,0,34.571V75.462A9.347,9.347,0,0,0,9.336,84.8h3.2V91.93a9.346,9.346,0,0,0,9.336,9.336H31.9a9.347,9.347,0,0,0,9.336-9.336V67.725H54.359a1.022,1.022,0,0,0,.008.159,2.364,2.364,0,0,0-.032.315v9.959a26.142,26.142,0,0,0,3.248,12.6L67.044,107.9V159.14a2.421,2.421,0,0,0,2.421,2.421h38.12a2.421,2.421,0,0,0,2.421-2.421V108.033l9.916-14.294a15.6,15.6,0,0,0,2.794-8.928V67.721h13.1V91.926a9.346,9.346,0,0,0,9.335,9.336h10.028a9.346,9.346,0,0,0,9.336-9.336V84.8h3.2a9.347,9.347,0,0,0,9.336-9.336V34.571A9.347,9.347,0,0,0,167.71,25.235ZM97.3,41.272a3.934,3.934,0,0,1,4.327-3.914,4.116,4.116,0,0,1,3.54,4.187v.769h-8.1A2.407,2.407,0,0,0,97.3,41.272Zm-9.169-3.914c.131-.012.264-.019.394-.019a3.935,3.935,0,0,1,3.934,3.934,2.407,2.407,0,0,0,.235,1.042H88.523a8.793,8.793,0,0,0-3.934.934v-1.7A4.116,4.116,0,0,1,88.129,37.357Zm4.328,29.895a3.934,3.934,0,0,1-7.867,0V58.843A9.2,9.2,0,0,0,88.8,59.863h3.661ZM75.816,37.338a3.938,3.938,0,0,1,3.932,3.934v25.98a3.933,3.933,0,1,1-7.867,0V41.272a3.938,3.938,0,0,1,3.934-3.934ZM59.174,41.272a3.934,3.934,0,0,1,7.867,0v25.98a3.934,3.934,0,0,1-7.867,0ZM9.336,79.957a4.5,4.5,0,0,1-4.5-4.5V34.571a4.5,4.5,0,0,1,4.5-4.5h3.2V79.957ZM36.4,91.93a4.5,4.5,0,0,1-4.5,4.5H21.872a4.5,4.5,0,0,1-4.5-4.5V18.1a4.5,4.5,0,0,1,4.5-4.5H31.9a4.5,4.5,0,0,1,4.5,4.5Zm4.841-44.776h13.1V62.879h-13.1Zm76.636,37.661a10.773,10.773,0,0,1-1.936,6.169L105.59,105.895a2.424,2.424,0,0,0-.432,1.383v49.444H71.882V107.275a2.421,2.421,0,0,0-.3-1.17L61.818,88.421a21.29,21.29,0,0,1-2.645-10.263V75.083a8.714,8.714,0,0,0,10.288-1.8,8.733,8.733,0,0,0,12.707,0,8.735,8.735,0,0,0,12.709,0,8.762,8.762,0,0,0,15.128-6.033V57.442a2.421,2.421,0,0,0-2.421-2.421H88.8a4.116,4.116,0,0,1-4.187-3.54c-.012-.123-.018-.246-.019-.368v-.053a3.935,3.935,0,0,1,3.93-3.907h18.526l.434.026h.028a10.827,10.827,0,0,1,10.361,10.8V84.814ZM97.3,59.863h7.866v7.389a3.933,3.933,0,1,1-7.867,0Zm25.416,3.017v-4.9a15.613,15.613,0,0,0-4.35-10.823h17.447V62.879Zm36.956,29.047a4.5,4.5,0,0,1-4.5,4.5H145.146a4.5,4.5,0,0,1-4.5-4.5V18.1a4.5,4.5,0,0,1,4.5-4.5h10.028a4.5,4.5,0,0,1,4.5,4.5V91.93ZM172.2,75.462a4.5,4.5,0,0,1-4.5,4.5h-3.2V30.076h3.2a4.5,4.5,0,0,1,4.5,4.5Z" transform="translate(0 -8.767)" fill="#fff"/>
</svg>
