<svg xmlns="http://www.w3.org/2000/svg" xmlns:xlink="http://www.w3.org/1999/xlink" width="77.474" height="76.878" viewBox="0 0 77.474 76.878">
  <defs>
    <linearGradient id="linear-gradient" x1="-0.183" y1="0.5" x2="4.412" y2="0.5" gradientUnits="objectBoundingBox">
      <stop offset="0" stop-color="#537983"/>
      <stop offset="1" stop-color="#3e5959"/>
    </linearGradient>
    <linearGradient id="linear-gradient-2" x1="-0.89" y1="0.5" x2="21.419" y2="0.5" xlink:href="#linear-gradient"/>
    <linearGradient id="linear-gradient-3" x1="-1.631" y1="0.5" x2="1.425" y2="0.5" gradientUnits="objectBoundingBox">
      <stop offset="0" stop-color="#537983"/>
      <stop offset="1" stop-color="#384949"/>
    </linearGradient>
    <linearGradient id="linear-gradient-4" x1="-0.5" y1="0.5" x2="4.604" y2="0.5" xlink:href="#linear-gradient"/>
    <linearGradient id="linear-gradient-5" x1="-0.632" y1="0.5" x2="1.187" y2="0.5" xlink:href="#linear-gradient"/>
    <linearGradient id="linear-gradient-6" x1="-1.158" y1="0.5" x2="0.547" y2="0.5" xlink:href="#linear-gradient-3"/>
    <linearGradient id="linear-gradient-7" x1="-0.272" y1="0.5" x2="1.2" y2="0.5" gradientUnits="objectBoundingBox">
      <stop offset="0" stop-color="#6bd9e7"/>
      <stop offset="0.572" stop-color="#26a6fe"/>
      <stop offset="1" stop-color="#0172fb"/>
    </linearGradient>
    <linearGradient id="linear-gradient-8" x1="-0.735" y1="0.5" x2="0.957" y2="0.5" xlink:href="#linear-gradient-7"/>
    <linearGradient id="linear-gradient-9" x1="-0.069" y1="0.5" x2="1.316" y2="0.5" xlink:href="#linear-gradient-7"/>
    <linearGradient id="linear-gradient-10" x1="-1.412" y1="0.5" x2="1.151" y2="0.5" xlink:href="#linear-gradient-7"/>
    <linearGradient id="linear-gradient-11" x1="-0.039" y1="0.5" x2="1.06" y2="0.5" xlink:href="#linear-gradient-7"/>
    <linearGradient id="linear-gradient-12" x1="-2.062" y1="0.5" x2="0.704" y2="0.5" xlink:href="#linear-gradient-7"/>
  </defs>
  <g id="news_icon" transform="translate(0 -1.959)">
    <g id="Сгруппировать_2051" data-name="Сгруппировать 2051" transform="translate(2.346 1.959)">
      <path id="Контур_6311" data-name="Контур 6311" d="M30.683,364.553a6.7,6.7,0,0,1-11.445-4.741V357.79a1.9,1.9,0,0,0-3.8,0v2.022A10.5,10.5,0,0,0,33.3,367.3a1.943,1.943,0,0,0,.175-2.636A1.9,1.9,0,0,0,30.683,364.553Z" transform="translate(-15.44 -302.126)" fill="url(#linear-gradient)"/>
      <path id="Контур_6312" data-name="Контур 6312" d="M17.342,120.4a1.954,1.954,0,0,0,1.9-1.956V93.816q0-.194.006-.386a1.9,1.9,0,1,0-3.794-.152q-.01.279-.01.559V118.5a1.9,1.9,0,0,0,1.9,1.9Z" transform="translate(-15.44 -77.856)" fill="url(#linear-gradient-2)"/>
      <path id="Контур_6313" data-name="Контур 6313" d="M15.44,189.6l3.8,2.278v-5.6L15.44,184Z" transform="translate(-15.44 -156.346)" fill="url(#linear-gradient-3)"/>
      <path id="Контур_6314" data-name="Контур 6314" d="M63.13,2.571a15.828,15.828,0,0,0-4.5-.612,15.6,15.6,0,0,0-10.094,3.8,1.908,1.908,0,0,0,1.253,3.349,1.881,1.881,0,0,0,1.229-.449,11.815,11.815,0,0,1,7.792-2.9A12.047,12.047,0,0,1,62.1,6.23,1.9,1.9,0,0,0,63.13,2.571Z" transform="translate(-42.949 -1.959)" fill="url(#linear-gradient-4)"/>
      <path id="Контур_6315" data-name="Контур 6315" d="M228.379,82.778,190.573,44.971a1.9,1.9,0,1,0-2.686,2.686L225.84,85.61A14.9,14.9,0,0,1,215.3,111.045a10.24,10.24,0,0,1-10.228-10.228,1.9,1.9,0,0,0-2.048-1.893,1.94,1.94,0,0,0-1.75,1.959,14.042,14.042,0,0,0,14.026,13.96A18.72,18.72,0,0,0,234,96.012a18.968,18.968,0,0,0-5.622-13.234Z" transform="translate(-161.219 -37.965)" fill="url(#linear-gradient-5)"/>
      <path id="Контур_6316" data-name="Контур 6316" d="M449.077,295.5a19.407,19.407,0,0,0-3.836-5.449L444,288.817l-.968,4.416a14.794,14.794,0,0,1,4.029,10.189,14.964,14.964,0,0,1-.1,1.715Z" transform="translate(-378.081 -245.241)" fill="url(#linear-gradient-6)"/>
    </g>
    <g id="Сгруппировать_2053" data-name="Сгруппировать 2053" transform="translate(0 14.437)">
      <g id="Сгруппировать_2052" data-name="Сгруппировать 2052" transform="translate(0)">
        <path id="Контур_6317" data-name="Контур 6317" d="M143.906,262.7l-1.345.652v19.069a2.146,2.146,0,0,0,3.639,1.537l13.623-11.622Z" transform="translate(-120.905 -235.571)" fill="url(#linear-gradient-7)"/>
        <path id="Контур_6318" data-name="Контур 6318" d="M159.821,272.338l-.914.781-3.052,2.6-13.3-7.942v-4.425l1.346-.653Z" transform="translate(-120.904 -235.57)" fill="url(#linear-gradient-8)"/>
        <path id="Контур_6319" data-name="Контур 6319" d="M1.9,95.5l71.759-11.36a3.3,3.3,0,0,1,3.731,4L67.01,133.048a3.833,3.833,0,0,1-5.694,2.431L1.1,99.65A2.247,2.247,0,0,1,1.9,95.5Z" transform="translate(0 -84.097)" fill="url(#linear-gradient-9)"/>
        <path id="Контур_6320" data-name="Контур 6320" d="M408.973,84.139l-3.616.572a3.885,3.885,0,0,1,1.267,3.429l-10.377,44.907a3.8,3.8,0,0,1-.869,1.685l1.254.746a3.833,3.833,0,0,0,5.694-2.431L412.7,88.141A3.3,3.3,0,0,0,408.973,84.139Z" transform="translate(-335.317 -84.097)" fill="url(#linear-gradient-10)"/>
        <path id="Контур_6321" data-name="Контур 6321" d="M187.914,139.288l10.377-44.907a3.272,3.272,0,0,0-.743-2.926l-54.987,26.666,39.659,23.6A3.833,3.833,0,0,0,187.914,139.288Z" transform="translate(-120.905 -90.337)" fill="url(#linear-gradient-11)"/>
      </g>
      <path id="Контур_6322" data-name="Контур 6322" d="M411.96,91.454l-5.286,2.563a2.311,2.311,0,0,1-.051.363l-10.377,44.907a3.8,3.8,0,0,1-.869,1.685l1.254.746a3.833,3.833,0,0,0,5.694-2.431L412.7,94.38A3.272,3.272,0,0,0,411.96,91.454Z" transform="translate(-335.317 -90.336)" fill="url(#linear-gradient-12)"/>
    </g>
  </g>
</svg>
