<svg id="Page-1" xmlns="http://www.w3.org/2000/svg" width="25.794" height="25.792" viewBox="0 0 25.794 25.792">
  <g id="_003---Call" data-name="003---Call" transform="translate(0)">
    <path id="Shape" d="M11.678,15.145a10.41,10.41,0,0,1-3.143-5.91.884.884,0,0,1,.254-.74L10.781,6.5a.889.889,0,0,0,.125-1.1L7.735.478A.889.889,0,0,0,6.583.153L1.49,2.552A.885.885,0,0,0,1,3.435a24.615,24.615,0,0,0,7.5,14.89,24.608,24.608,0,0,0,14.89,7.5.884.884,0,0,0,.884-.489l2.4-5.092a.889.889,0,0,0-.322-1.15L21.42,15.918a.889.889,0,0,0-1.1.125l-1.991,1.992a.884.884,0,0,1-.74.254A10.41,10.41,0,0,1,11.678,15.145Z" transform="translate(-0.997 -0.033)" fill="#6c91ab"/>
    <path id="Shape-2" data-name="Shape" d="M36.449,19.339a.889.889,0,0,1-.889-.889,6.678,6.678,0,0,0-6.67-6.67.889.889,0,1,1,0-1.779,8.459,8.459,0,0,1,8.449,8.449A.889.889,0,0,1,36.449,19.339Z" transform="translate(-15.992 -5.553)" fill="#6c91ab"/>
    <path id="Shape-3" data-name="Shape" d="M40.9,13.786a.889.889,0,0,1-.889-.889A11.13,11.13,0,0,0,28.889,1.779a.889.889,0,1,1,0-1.779,12.91,12.91,0,0,1,12.9,12.9.889.889,0,0,1-.889.889Z" transform="translate(-15.992 0)" fill="#6c91ab"/>
  </g>
</svg>
