<svg xmlns="http://www.w3.org/2000/svg" width="2003.885" height="555.663" viewBox="0 0 2003.885 555.663">
  <g id="Сгруппировать_2138" data-name="Сгруппировать 2138" transform="translate(-3.789 7.867)">
    <path id="Объединение_23" data-name="Объединение 23" d="M93.932,112.346a46.6,46.6,0,0,1-37.66-22.333,19.558,19.558,0,0,1-5.027.406,21.206,21.206,0,0,1-16.334-8.975C17.789,80.392,3.35,66.688,2.542,50.605c-.816-16.249,12.59-28.773,29.943-27.973q1.519.07,3.009.271C38.48,10.79,50.245,2.316,64.765,2.984a35.751,35.751,0,0,1,28.284,16.2,41.912,41.912,0,0,1,19.061-3.449,47.477,47.477,0,0,1,23.568,7.583,49.063,49.063,0,0,1,25.166-5.338c26.915,1.24,49.728,22,50.953,46.377s-19.6,43.125-46.517,41.885a56.232,56.232,0,0,1-25.262-7.363c-3.91,7.019-11.853,11.523-21.254,11.09a27.58,27.58,0,0,1-6.124-.983,41.016,41.016,0,0,1-16.618,3.409C95.329,112.394,94.635,112.378,93.932,112.346Z" transform="matrix(0.914, -0.407, 0.407, 0.914, 1139.289, 119.036)" fill="#81a1ba"/>
    <path id="Объединение_25" data-name="Объединение 25" d="M101.992,121.985c-17.366-.8-32.87-10.609-40.891-24.249a21.223,21.223,0,0,1-5.459.441,23.024,23.024,0,0,1-17.736-9.745C19.314,87.289,3.638,72.41,2.76,54.947,1.874,37.3,16.43,23.705,35.272,24.574q1.649.076,3.268.294C41.782,11.715,54.556,2.514,70.322,3.241a38.816,38.816,0,0,1,30.71,17.587,45.5,45.5,0,0,1,20.7-3.744,51.552,51.552,0,0,1,25.59,8.234,53.277,53.277,0,0,1,27.326-5.8c29.225,1.346,53.994,23.891,55.324,50.356s-21.284,46.826-50.509,45.48a61.056,61.056,0,0,1-27.429-8c-4.245,7.622-12.87,12.512-23.076,12.042a29.955,29.955,0,0,1-6.65-1.068,44.53,44.53,0,0,1-18.043,3.7C103.509,122.038,102.755,122.02,101.992,121.985Z" transform="matrix(0.914, -0.407, 0.407, 0.914, 1641.588, 106.486)" fill="#81a1ba"/>
    <path id="Объединение_28" data-name="Объединение 28" d="M101.992,121.985c-17.366-.8-32.87-10.609-40.891-24.249a21.223,21.223,0,0,1-5.459.441,23.024,23.024,0,0,1-17.736-9.745C19.314,87.289,3.638,72.41,2.76,54.947,1.874,37.3,16.43,23.705,35.272,24.574q1.649.076,3.268.294C41.782,11.715,54.556,2.514,70.322,3.241a38.816,38.816,0,0,1,30.71,17.587,45.5,45.5,0,0,1,20.7-3.744,51.552,51.552,0,0,1,25.59,8.234,53.277,53.277,0,0,1,27.326-5.8c29.225,1.346,53.994,23.891,55.324,50.356s-21.284,46.826-50.509,45.48a61.056,61.056,0,0,1-27.429-8c-4.245,7.622-12.87,12.512-23.076,12.042a29.955,29.955,0,0,1-6.65-1.068,44.53,44.53,0,0,1-18.043,3.7C103.509,122.038,102.755,122.02,101.992,121.985Z" transform="matrix(0.914, -0.407, 0.407, 0.914, 1747.899, 422.741)" fill="#81a1ba"/>
    <path id="Объединение_26" data-name="Объединение 26" d="M101.992,121.985c-17.366-.8-32.87-10.609-40.891-24.249a21.223,21.223,0,0,1-5.459.441,23.024,23.024,0,0,1-17.736-9.745C19.314,87.289,3.638,72.41,2.76,54.947,1.874,37.3,16.43,23.705,35.272,24.574q1.649.076,3.268.294C41.782,11.715,54.556,2.514,70.322,3.241a38.816,38.816,0,0,1,30.71,17.587,45.5,45.5,0,0,1,20.7-3.744,51.552,51.552,0,0,1,25.59,8.234,53.277,53.277,0,0,1,27.326-5.8c29.225,1.346,53.994,23.891,55.324,50.356s-21.284,46.826-50.509,45.48a61.056,61.056,0,0,1-27.429-8c-4.245,7.622-12.87,12.512-23.076,12.042a29.955,29.955,0,0,1-6.65-1.068,44.53,44.53,0,0,1-18.043,3.7C103.509,122.038,102.755,122.02,101.992,121.985Z" transform="matrix(0.914, -0.407, 0.407, 0.914, 313, 351.182)" fill="#81a1ba"/>
    <path id="Объединение_27" data-name="Объединение 27" d="M101.992,121.985c-17.366-.8-32.87-10.609-40.891-24.249a21.223,21.223,0,0,1-5.459.441,23.024,23.024,0,0,1-17.736-9.745C19.314,87.289,3.638,72.41,2.76,54.947,1.874,37.3,16.43,23.705,35.272,24.574q1.649.076,3.268.294C41.782,11.715,54.556,2.514,70.322,3.241a38.816,38.816,0,0,1,30.71,17.587,45.5,45.5,0,0,1,20.7-3.744,51.552,51.552,0,0,1,25.59,8.234,53.277,53.277,0,0,1,27.326-5.8c29.225,1.346,53.994,23.891,55.324,50.356s-21.284,46.826-50.509,45.48a61.056,61.056,0,0,1-27.429-8c-4.245,7.622-12.87,12.512-23.076,12.042a29.955,29.955,0,0,1-6.65-1.068,44.53,44.53,0,0,1-18.043,3.7C103.509,122.038,102.755,122.02,101.992,121.985Z" transform="matrix(0.914, -0.407, 0.407, 0.914, 0, 209.861)" fill="#81a1ba"/>
    <path id="Объединение_29" data-name="Объединение 29" d="M101.992,121.985c-17.366-.8-32.87-10.609-40.891-24.249a21.223,21.223,0,0,1-5.459.441,23.024,23.024,0,0,1-17.736-9.745C19.314,87.289,3.638,72.41,2.76,54.947,1.874,37.3,16.43,23.705,35.272,24.574q1.649.076,3.268.294C41.782,11.715,54.556,2.514,70.322,3.241a38.816,38.816,0,0,1,30.71,17.587,45.5,45.5,0,0,1,20.7-3.744,51.552,51.552,0,0,1,25.59,8.234,53.277,53.277,0,0,1,27.326-5.8c29.225,1.346,53.994,23.891,55.324,50.356s-21.284,46.826-50.509,45.48a61.056,61.056,0,0,1-27.429-8c-4.245,7.622-12.87,12.512-23.076,12.042a29.955,29.955,0,0,1-6.65-1.068,44.53,44.53,0,0,1-18.043,3.7C103.509,122.038,102.755,122.02,101.992,121.985Z" transform="matrix(0.914, -0.407, 0.407, 0.914, 565.311, 82.767)" fill="#81a1ba"/>
    <path id="Объединение_24" data-name="Объединение 24" d="M101.992,121.985c-17.366-.8-32.87-10.609-40.891-24.249a21.223,21.223,0,0,1-5.459.441,23.024,23.024,0,0,1-17.736-9.745C19.314,87.289,3.638,72.41,2.76,54.947,1.874,37.3,16.43,23.705,35.272,24.574q1.649.076,3.268.294C41.782,11.715,54.556,2.514,70.322,3.241a38.816,38.816,0,0,1,30.71,17.587,45.5,45.5,0,0,1,20.7-3.744,51.552,51.552,0,0,1,25.59,8.234,53.277,53.277,0,0,1,27.326-5.8c29.225,1.346,53.994,23.891,55.324,50.356s-21.284,46.826-50.509,45.48a61.056,61.056,0,0,1-27.429-8c-4.245,7.622-12.87,12.512-23.076,12.042a29.955,29.955,0,0,1-6.65-1.068,44.53,44.53,0,0,1-18.043,3.7C103.509,122.038,102.755,122.02,101.992,121.985Z" transform="matrix(0.914, -0.407, 0.407, 0.914, 1042.406, 437.416)" fill="#81a1ba"/>
    <path id="Контур_6303" data-name="Контур 6303" d="M-636,17749.232l12.771,11.219,16.28-14.3" transform="translate(1414 -17572.963)" fill="none" stroke="#59819a" stroke-linecap="round" stroke-linejoin="round" stroke-width="8" opacity="0.8"/>
    <path id="Контур_6520" data-name="Контур 6520" d="M-636,17749.232l12.771,11.219,16.28-14.3" transform="translate(1492 -17348.07)" fill="none" stroke="#59819a" stroke-linecap="round" stroke-linejoin="round" stroke-width="8" opacity="0.8"/>
    <path id="Контур_6521" data-name="Контур 6521" d="M-636,17749.232l12.771,11.219,16.28-14.3" transform="translate(1477.475 -17580.113)" fill="none" stroke="#59819a" stroke-linecap="round" stroke-linejoin="round" stroke-width="8" opacity="0.8"/>
    <path id="Контур_6522" data-name="Контур 6522" d="M-636,17749.232l12.771,11.219,16.28-14.3" transform="translate(2185.475 -17551.873)" fill="none" stroke="#59819a" stroke-linecap="round" stroke-linejoin="round" stroke-width="8" opacity="0.8"/>
    <path id="Контур_6523" data-name="Контур 6523" d="M-636,17749.232l12.771,11.219,16.28-14.3" transform="translate(2263.063 -17544.721)" fill="none" stroke="#59819a" stroke-linecap="round" stroke-linejoin="round" stroke-width="8" opacity="0.8"/>
    <path id="Контур_6524" data-name="Контур 6524" d="M-636,17749.232l12.771,11.219,16.28-14.3" transform="translate(2170.95 -17608.348)" fill="none" stroke="#59819a" stroke-linecap="round" stroke-linejoin="round" stroke-width="8" opacity="0.8"/>
  </g>
</svg>
