<svg xmlns="http://www.w3.org/2000/svg" xmlns:xlink="http://www.w3.org/1999/xlink" width="1773" height="1547" viewBox="0 0 1773 1547">
  <defs>
    <clipPath id="clip-path">
      <rect id="Прямоугольник_1485" data-name="Прямоугольник 1485" width="1773" height="1547" transform="translate(-129 -102)" fill="#fff" stroke="#707070" stroke-width="1"/>
    </clipPath>
  </defs>
  <g id="Сгруппировать_110" data-name="Сгруппировать 110" transform="translate(129 102)" clip-path="url(#clip-path)">
    <g id="Сгруппировать_352" data-name="Сгруппировать 352" transform="translate(-167.302 -786.861) rotate(11)">
      <g id="Сгруппировать_348" data-name="Сгруппировать 348" transform="translate(52.209 134.163)">
        <g id="Сгруппировать_345" data-name="Сгруппировать 345" transform="translate(0 0)">
          <path id="Контур_1080" data-name="Контур 1080" d="M0,0V2085.465" transform="translate(511.85 0)" fill="none" stroke="#d2e7ff" stroke-width="1"/>
          <path id="Контур_1091" data-name="Контур 1091" d="M0,0V2085.465" transform="translate(1126.07 0)" fill="none" stroke="#d2e7ff" stroke-width="1"/>
          <path id="Контур_1083" data-name="Контур 1083" d="M0,0V2085.465" transform="translate(307.11 0)" fill="none" stroke="#d2e7ff" stroke-width="1"/>
          <path id="Контур_1089" data-name="Контур 1089" d="M0,0V2085.465" transform="translate(921.33 0)" fill="none" stroke="#d2e7ff" stroke-width="1"/>
          <path id="Контур_1085" data-name="Контур 1085" d="M0,0V2085.465" transform="translate(102.37 0)" fill="none" stroke="#d2e7ff" stroke-width="1"/>
          <path id="Контур_1087" data-name="Контур 1087" d="M0,0V2085.465" transform="translate(716.59 0)" fill="none" stroke="#d2e7ff" stroke-width="1"/>
          <path id="Контур_1081" data-name="Контур 1081" d="M0,0V2085.465" transform="translate(409.48 0.718)" fill="none" stroke="#d2e7ff" stroke-width="1"/>
          <path id="Контур_1090" data-name="Контур 1090" d="M0,0V2085.465" transform="translate(1023.7 0.718)" fill="none" stroke="#d2e7ff" stroke-width="1"/>
          <path id="Контур_1082" data-name="Контур 1082" d="M0,0V2085.465" transform="translate(204.74 0.718)" fill="none" stroke="#d2e7ff" stroke-width="1"/>
          <path id="Контур_1088" data-name="Контур 1088" d="M0,0V2085.465" transform="translate(818.96 0.718)" fill="none" stroke="#d2e7ff" stroke-width="1"/>
          <path id="Контур_1084" data-name="Контур 1084" d="M0,0V2085.465" transform="translate(0 0.718)" fill="none" stroke="#d2e7ff" stroke-width="1"/>
          <path id="Контур_1086" data-name="Контур 1086" d="M0,0V2085.465" transform="translate(614.22 0.718)" fill="none" stroke="#d2e7ff" stroke-width="1"/>
        </g>
        <g id="Сгруппировать_346" data-name="Сгруппировать 346" transform="translate(1228.44 0)">
          <path id="Контур_1080-2" data-name="Контур 1080" d="M0,0V2085.465" transform="translate(511.85 0)" fill="none" stroke="#d2e7ff" stroke-width="1"/>
          <path id="Контур_1091-2" data-name="Контур 1091" d="M0,0V2085.465" transform="translate(1126.07 0)" fill="none" stroke="#d2e7ff" stroke-width="1"/>
          <path id="Контур_1083-2" data-name="Контур 1083" d="M0,0V2085.465" transform="translate(307.11 0)" fill="none" stroke="#d2e7ff" stroke-width="1"/>
          <path id="Контур_1089-2" data-name="Контур 1089" d="M0,0V2085.465" transform="translate(921.33 0)" fill="none" stroke="#d2e7ff" stroke-width="1"/>
          <path id="Контур_1085-2" data-name="Контур 1085" d="M0,0V2085.465" transform="translate(102.37 0)" fill="none" stroke="#d2e7ff" stroke-width="1"/>
          <path id="Контур_1087-2" data-name="Контур 1087" d="M0,0V2085.465" transform="translate(716.59 0)" fill="none" stroke="#d2e7ff" stroke-width="1"/>
          <path id="Контур_1081-2" data-name="Контур 1081" d="M0,0V2085.465" transform="translate(409.48 0.718)" fill="none" stroke="#d2e7ff" stroke-width="1"/>
          <path id="Контур_1090-2" data-name="Контур 1090" d="M0,0V2085.465" transform="translate(1023.7 0.718)" fill="none" stroke="#d2e7ff" stroke-width="1"/>
          <path id="Контур_1082-2" data-name="Контур 1082" d="M0,0V2085.465" transform="translate(204.74 0.718)" fill="none" stroke="#d2e7ff" stroke-width="1"/>
          <path id="Контур_1088-2" data-name="Контур 1088" d="M0,0V2085.465" transform="translate(818.96 0.718)" fill="none" stroke="#d2e7ff" stroke-width="1"/>
          <path id="Контур_1084-2" data-name="Контур 1084" d="M0,0V2085.465" transform="translate(0 0.718)" fill="none" stroke="#d2e7ff" stroke-width="1"/>
          <path id="Контур_1086-2" data-name="Контур 1086" d="M0,0V2085.465" transform="translate(614.22 0.718)" fill="none" stroke="#d2e7ff" stroke-width="1"/>
        </g>
      </g>
      <g id="Сгруппировать_349" data-name="Сгруппировать 349" transform="translate(0 134.163)">
        <g id="Сгруппировать_345-2" data-name="Сгруппировать 345" transform="translate(0 0)">
          <path id="Контур_1080-3" data-name="Контур 1080" d="M0,0V2085.465" transform="translate(511.85 0)" fill="none" stroke="#d2e7ff" stroke-width="1"/>
          <path id="Контур_1091-3" data-name="Контур 1091" d="M0,0V2085.465" transform="translate(1126.07 0)" fill="none" stroke="#d2e7ff" stroke-width="1"/>
          <path id="Контур_1083-3" data-name="Контур 1083" d="M0,0V2085.465" transform="translate(307.11 0)" fill="none" stroke="#d2e7ff" stroke-width="1"/>
          <path id="Контур_1089-3" data-name="Контур 1089" d="M0,0V2085.465" transform="translate(921.33 0)" fill="none" stroke="#d2e7ff" stroke-width="1"/>
          <path id="Контур_1085-3" data-name="Контур 1085" d="M0,0V2085.465" transform="translate(102.37 0)" fill="none" stroke="#d2e7ff" stroke-width="1"/>
          <path id="Контур_1087-3" data-name="Контур 1087" d="M0,0V2085.465" transform="translate(716.59 0)" fill="none" stroke="#d2e7ff" stroke-width="1"/>
          <path id="Контур_1081-3" data-name="Контур 1081" d="M0,0V2085.465" transform="translate(409.48 0.718)" fill="none" stroke="#d2e7ff" stroke-width="1"/>
          <path id="Контур_1090-3" data-name="Контур 1090" d="M0,0V2085.465" transform="translate(1023.7 0.718)" fill="none" stroke="#d2e7ff" stroke-width="1"/>
          <path id="Контур_1082-3" data-name="Контур 1082" d="M0,0V2085.465" transform="translate(204.74 0.718)" fill="none" stroke="#d2e7ff" stroke-width="1"/>
          <path id="Контур_1088-3" data-name="Контур 1088" d="M0,0V2085.465" transform="translate(818.96 0.718)" fill="none" stroke="#d2e7ff" stroke-width="1"/>
          <path id="Контур_1084-3" data-name="Контур 1084" d="M0,0V2085.465" transform="translate(0 0.718)" fill="none" stroke="#d2e7ff" stroke-width="1"/>
          <path id="Контур_1086-3" data-name="Контур 1086" d="M0,0V2085.465" transform="translate(614.22 0.718)" fill="none" stroke="#d2e7ff" stroke-width="1"/>
        </g>
        <g id="Сгруппировать_346-2" data-name="Сгруппировать 346" transform="translate(1228.44 0)">
          <path id="Контур_1080-4" data-name="Контур 1080" d="M0,0V2085.465" transform="translate(511.85 0)" fill="none" stroke="#d2e7ff" stroke-width="1"/>
          <path id="Контур_1091-4" data-name="Контур 1091" d="M0,0V2085.465" transform="translate(1126.07 0)" fill="none" stroke="#d2e7ff" stroke-width="1"/>
          <path id="Контур_1083-4" data-name="Контур 1083" d="M0,0V2085.465" transform="translate(307.11 0)" fill="none" stroke="#d2e7ff" stroke-width="1"/>
          <path id="Контур_1089-4" data-name="Контур 1089" d="M0,0V2085.465" transform="translate(921.33 0)" fill="none" stroke="#d2e7ff" stroke-width="1"/>
          <path id="Контур_1085-4" data-name="Контур 1085" d="M0,0V2085.465" transform="translate(102.37 0)" fill="none" stroke="#d2e7ff" stroke-width="1"/>
          <path id="Контур_1087-4" data-name="Контур 1087" d="M0,0V2085.465" transform="translate(716.59 0)" fill="none" stroke="#d2e7ff" stroke-width="1"/>
          <path id="Контур_1081-4" data-name="Контур 1081" d="M0,0V2085.465" transform="translate(409.48 0.718)" fill="none" stroke="#d2e7ff" stroke-width="1"/>
          <path id="Контур_1090-4" data-name="Контур 1090" d="M0,0V2085.465" transform="translate(1023.7 0.718)" fill="none" stroke="#d2e7ff" stroke-width="1"/>
          <path id="Контур_1082-4" data-name="Контур 1082" d="M0,0V2085.465" transform="translate(204.74 0.718)" fill="none" stroke="#d2e7ff" stroke-width="1"/>
          <path id="Контур_1088-4" data-name="Контур 1088" d="M0,0V2085.465" transform="translate(818.96 0.718)" fill="none" stroke="#d2e7ff" stroke-width="1"/>
          <path id="Контур_1084-4" data-name="Контур 1084" d="M0,0V2085.465" transform="translate(0 0.718)" fill="none" stroke="#d2e7ff" stroke-width="1"/>
          <path id="Контур_1086-4" data-name="Контур 1086" d="M0,0V2085.465" transform="translate(614.22 0.718)" fill="none" stroke="#d2e7ff" stroke-width="1"/>
        </g>
      </g>
      <g id="Сгруппировать_350" data-name="Сгруппировать 350" transform="translate(134.164 2354.51) rotate(-90)">
        <g id="Сгруппировать_345-3" data-name="Сгруппировать 345" transform="translate(0 0)">
          <path id="Контур_1080-5" data-name="Контур 1080" d="M0,0V2085.463" transform="translate(511.85 0)" fill="none" stroke="#c9e4ea" stroke-width="2"/>
          <path id="Контур_1091-5" data-name="Контур 1091" d="M0,0V2085.463" transform="translate(1126.07 0)" fill="none" stroke="#c9e4ea" stroke-width="2"/>
          <path id="Контур_1083-5" data-name="Контур 1083" d="M0,0V2085.463" transform="translate(307.11 0)" fill="none" stroke="#c9e4ea" stroke-width="2"/>
          <path id="Контур_1089-5" data-name="Контур 1089" d="M0,0V2085.463" transform="translate(921.33 0)" fill="none" stroke="#c9e4ea" stroke-width="2"/>
          <path id="Контур_1085-5" data-name="Контур 1085" d="M0,0V2085.463" transform="translate(102.37 0)" fill="none" stroke="#c9e4ea" stroke-width="2"/>
          <path id="Контур_1087-5" data-name="Контур 1087" d="M0,0V2085.463" transform="translate(716.59 0)" fill="none" stroke="#c9e4ea" stroke-width="2"/>
          <path id="Контур_1081-5" data-name="Контур 1081" d="M0,0V2085.463" transform="translate(409.48 0.718)" fill="none" stroke="#c9e4ea" stroke-width="2"/>
          <path id="Контур_1090-5" data-name="Контур 1090" d="M0,0V2085.463" transform="translate(1023.7 0.718)" fill="none" stroke="#c9e4ea" stroke-width="2"/>
          <path id="Контур_1082-5" data-name="Контур 1082" d="M0,0V2085.463" transform="translate(204.74 0.718)" fill="none" stroke="#c9e4ea" stroke-width="2"/>
          <path id="Контур_1088-5" data-name="Контур 1088" d="M0,0V2085.463" transform="translate(818.96 0.718)" fill="none" stroke="#c9e4ea" stroke-width="2"/>
          <path id="Контур_1084-5" data-name="Контур 1084" d="M0,0V2085.463" transform="translate(0 0.718)" fill="none" stroke="#c9e4ea" stroke-width="2"/>
          <path id="Контур_1086-5" data-name="Контур 1086" d="M0,0V2085.463" transform="translate(614.22 0.718)" fill="none" stroke="#c9e4ea" stroke-width="2"/>
        </g>
        <g id="Сгруппировать_346-3" data-name="Сгруппировать 346" transform="translate(1228.44 0)">
          <path id="Контур_1080-6" data-name="Контур 1080" d="M0,0V2085.463" transform="translate(511.85 0)" fill="none" stroke="#c9e4ea" stroke-width="2"/>
          <path id="Контур_1091-6" data-name="Контур 1091" d="M0,0V2085.463" transform="translate(1126.07 0)" fill="none" stroke="#c9e4ea" stroke-width="2"/>
          <path id="Контур_1083-6" data-name="Контур 1083" d="M0,0V2085.463" transform="translate(307.11 0)" fill="none" stroke="#c9e4ea" stroke-width="2"/>
          <path id="Контур_1089-6" data-name="Контур 1089" d="M0,0V2085.463" transform="translate(921.33 0)" fill="none" stroke="#c9e4ea" stroke-width="2"/>
          <path id="Контур_1085-6" data-name="Контур 1085" d="M0,0V2085.463" transform="translate(102.37 0)" fill="none" stroke="#c9e4ea" stroke-width="2"/>
          <path id="Контур_1087-6" data-name="Контур 1087" d="M0,0V2085.463" transform="translate(716.59 0)" fill="none" stroke="#c9e4ea" stroke-width="2"/>
          <path id="Контур_1081-6" data-name="Контур 1081" d="M0,0V2085.463" transform="translate(409.48 0.718)" fill="none" stroke="#c9e4ea" stroke-width="2"/>
          <path id="Контур_1090-6" data-name="Контур 1090" d="M0,0V2085.463" transform="translate(1023.7 0.718)" fill="none" stroke="#c9e4ea" stroke-width="2"/>
          <path id="Контур_1082-6" data-name="Контур 1082" d="M0,0V2085.463" transform="translate(204.74 0.718)" fill="none" stroke="#c9e4ea" stroke-width="2"/>
          <path id="Контур_1088-6" data-name="Контур 1088" d="M0,0V2085.463" transform="translate(818.96 0.718)" fill="none" stroke="#c9e4ea" stroke-width="2"/>
          <path id="Контур_1084-6" data-name="Контур 1084" d="M0,0V2085.463" transform="translate(0 0.718)" fill="none" stroke="#c9e4ea" stroke-width="2"/>
          <path id="Контур_1086-6" data-name="Контур 1086" d="M0,0V2085.463" transform="translate(614.22 0.718)" fill="none" stroke="#c9e4ea" stroke-width="2"/>
        </g>
      </g>
      <g id="Сгруппировать_351" data-name="Сгруппировать 351" transform="translate(134.164 2406.718) rotate(-90)">
        <g id="Сгруппировать_345-4" data-name="Сгруппировать 345" transform="translate(0 0)">
          <path id="Контур_1080-7" data-name="Контур 1080" d="M0,0V2085.463" transform="translate(511.85 0)" fill="none" stroke="#c9e4ea" stroke-width="2"/>
          <path id="Контур_1091-7" data-name="Контур 1091" d="M0,0V2085.463" transform="translate(1126.07 0)" fill="none" stroke="#c9e4ea" stroke-width="2"/>
          <path id="Контур_1083-7" data-name="Контур 1083" d="M0,0V2085.463" transform="translate(307.11 0)" fill="none" stroke="#c9e4ea" stroke-width="2"/>
          <path id="Контур_1089-7" data-name="Контур 1089" d="M0,0V2085.463" transform="translate(921.33 0)" fill="none" stroke="#c9e4ea" stroke-width="2"/>
          <path id="Контур_1085-7" data-name="Контур 1085" d="M0,0V2085.463" transform="translate(102.37 0)" fill="none" stroke="#c9e4ea" stroke-width="2"/>
          <path id="Контур_1087-7" data-name="Контур 1087" d="M0,0V2085.463" transform="translate(716.59 0)" fill="none" stroke="#c9e4ea" stroke-width="2"/>
          <path id="Контур_1081-7" data-name="Контур 1081" d="M0,0V2085.463" transform="translate(409.48 0.718)" fill="none" stroke="#c9e4ea" stroke-width="2"/>
          <path id="Контур_1090-7" data-name="Контур 1090" d="M0,0V2085.463" transform="translate(1023.7 0.718)" fill="none" stroke="#c9e4ea" stroke-width="2"/>
          <path id="Контур_1082-7" data-name="Контур 1082" d="M0,0V2085.463" transform="translate(204.74 0.718)" fill="none" stroke="#c9e4ea" stroke-width="2"/>
          <path id="Контур_1088-7" data-name="Контур 1088" d="M0,0V2085.463" transform="translate(818.96 0.718)" fill="none" stroke="#c9e4ea" stroke-width="2"/>
          <path id="Контур_1084-7" data-name="Контур 1084" d="M0,0V2085.463" transform="translate(0 0.718)" fill="none" stroke="#c9e4ea" stroke-width="2"/>
          <path id="Контур_1086-7" data-name="Контур 1086" d="M0,0V2085.463" transform="translate(614.22 0.718)" fill="none" stroke="#c9e4ea" stroke-width="2"/>
        </g>
        <g id="Сгруппировать_346-4" data-name="Сгруппировать 346" transform="translate(1228.44 0)">
          <path id="Контур_1080-8" data-name="Контур 1080" d="M0,0V2085.463" transform="translate(511.85 0)" fill="none" stroke="#c9e4ea" stroke-width="2"/>
          <path id="Контур_1091-8" data-name="Контур 1091" d="M0,0V2085.463" transform="translate(1126.07 0)" fill="none" stroke="#c9e4ea" stroke-width="2"/>
          <path id="Контур_1083-8" data-name="Контур 1083" d="M0,0V2085.463" transform="translate(307.11 0)" fill="none" stroke="#c9e4ea" stroke-width="2"/>
          <path id="Контур_1089-8" data-name="Контур 1089" d="M0,0V2085.463" transform="translate(921.33 0)" fill="none" stroke="#c9e4ea" stroke-width="2"/>
          <path id="Контур_1085-8" data-name="Контур 1085" d="M0,0V2085.463" transform="translate(102.37 0)" fill="none" stroke="#c9e4ea" stroke-width="2"/>
          <path id="Контур_1087-8" data-name="Контур 1087" d="M0,0V2085.463" transform="translate(716.59 0)" fill="none" stroke="#c9e4ea" stroke-width="2"/>
          <path id="Контур_1081-8" data-name="Контур 1081" d="M0,0V2085.463" transform="translate(409.48 0.718)" fill="none" stroke="#c9e4ea" stroke-width="2"/>
          <path id="Контур_1090-8" data-name="Контур 1090" d="M0,0V2085.463" transform="translate(1023.7 0.718)" fill="none" stroke="#c9e4ea" stroke-width="2"/>
          <path id="Контур_1082-8" data-name="Контур 1082" d="M0,0V2085.463" transform="translate(204.74 0.718)" fill="none" stroke="#c9e4ea" stroke-width="2"/>
          <path id="Контур_1088-8" data-name="Контур 1088" d="M0,0V2085.463" transform="translate(818.96 0.718)" fill="none" stroke="#c9e4ea" stroke-width="2"/>
          <path id="Контур_1084-8" data-name="Контур 1084" d="M0,0V2085.463" transform="translate(0 0.718)" fill="none" stroke="#c9e4ea" stroke-width="2"/>
          <path id="Контур_1086-8" data-name="Контур 1086" d="M0,0V2085.463" transform="translate(614.22 0.718)" fill="none" stroke="#c9e4ea" stroke-width="2"/>
        </g>
      </g>
    </g>
    <rect id="Прямоугольник_1488" data-name="Прямоугольник 1488" width="7.166" height="1692.571" transform="translate(1480.751 -147.001) rotate(11)" fill="red"/>
  </g>
</svg>
