<svg xmlns="http://www.w3.org/2000/svg" xmlns:xlink="http://www.w3.org/1999/xlink" width="2111.196" height="1180.38" viewBox="0 0 2111.196 1180.38">
  <defs>
    <clipPath id="clip-path">
      <path id="Контур_6115" data-name="Контур 6115" d="M-103.3-288.675S29.8-223.832,107.672-184.992c64.153,32,175.579-25,272.9,18.057,65.81,29.118,122.57,111.018,197.25,138.691C683.8,11.026,806.994,12.138,927.023,12.138c480,0,992.977,20.711,992.977,20.711V742.633H970.109L-94.057,754.593Z" transform="translate(0 1095)" fill="#6c91ab"/>
    </clipPath>
  </defs>
  <g id="Сгруппировать_1994" data-name="Сгруппировать 1994" transform="translate(103.303 -669.213)">
    <g id="Сгруппировать_1993" data-name="Сгруппировать 1993" transform="translate(0 0.308)">
      <g id="Контур_6114" data-name="Контур 6114" transform="translate(0 1095)" fill="#6c91ab">
        <path d="M 2002.893676757813 749.2852172851563 L 1442.768676757813 749.2852172851563 L -63.11606597900391 749.2852172851563 L -63.11606597900391 -80.76162719726563 L -63.11606597900391 -411.1053466796875 C -60.34402084350586 -407.4710083007813 -56.99807357788086 -403.1284790039063 -53.16606521606445 -398.2355651855469 C -42.3429069519043 -384.4161071777344 -25.30422210693359 -363.2355651855469 -5.594223022460938 -340.8110961914063 C 16.59525108337402 -315.5655822753906 37.58472442626953 -293.9140014648438 56.79130172729492 -276.4582214355469 C 68.24629974365234 -266.0471496582031 79.19630432128906 -257.02294921875 89.33761596679688 -249.6358337402344 C 100.5978851318359 -241.4337310791016 111.1660385131836 -235.02978515625 120.748405456543 -230.6018829345703 C 130.8876190185547 -225.9168853759766 142.0123596191406 -222.6908416748047 154.7589416503906 -220.7389984130859 C 165.3486785888672 -219.1171569824219 177.0168304443359 -218.3618927001953 191.4797210693359 -218.3618927001953 C 202.5128784179688 -218.3618927001953 213.71630859375 -218.7900543212891 225.5773620605469 -219.2432098388672 C 237.8823547363281 -219.7132110595703 250.6060333251953 -220.1995239257813 263.5968322753906 -220.1995239257813 C 283.3157653808594 -220.1995239257813 299.851318359375 -219.0750427246094 315.63525390625 -216.6608428955078 C 324.8676147460938 -215.2487335205078 333.9328918457031 -213.3534698486328 342.5794677734375 -211.0282135009766 C 351.9436645507813 -208.509521484375 361.2010498046875 -205.3840026855469 370.0947265625 -201.7382049560547 C 377.2144470214844 -198.8195190429688 384.7057800292969 -194.5834655761719 392.9971008300781 -188.7874145507813 C 400.5149841308594 -183.5324096679688 408.5176086425781 -177.1079406738281 417.4626159667969 -169.1474151611328 C 434.2447204589844 -154.2118835449219 451.3026123046875 -136.5955810546875 469.3620910644531 -117.9450454711914 C 509.6168212890625 -76.3726806640625 551.2423706054688 -33.38504791259766 591.8431396484375 -19.44610023498535 C 600.598388671875 -16.44004821777344 609.6549682617188 -13.82294273376465 618.7610473632813 -11.66715335845947 C 627.4500122070313 -9.609785079956055 636.4807739257813 -7.902943134307861 645.6021118164063 -6.593206405639648 C 662.4202270507813 -4.178732395172119 679.9652709960938 -3.005048274993896 699.2405395507813 -3.005048274993896 C 715.0276489257813 -3.005048274993896 731.6544799804688 -3.769785165786743 751.5657958984375 -5.411890506744385 C 769.0902709960938 -6.857153415679932 786.3860473632813 -8.748732566833496 804.6976318359375 -10.75162696838379 C 842.5602416992188 -14.89294338226318 881.7118530273438 -19.175048828125 922.6649780273438 -19.175048828125 C 941.81787109375 -19.175048828125 961.7849731445313 -18.27662658691406 983.7068481445313 -16.42873191833496 C 1003.233947753906 -14.78267955780029 1023.847900390625 -12.41715335845947 1046.726806640625 -9.19767951965332 C 1089.241088867188 -3.214521884918213 1132.932861328125 4.829688549041748 1175.186279296875 12.60916233062744 C 1213.380493164063 19.64126777648926 1252.875244140625 26.91284561157227 1290.285278320313 32.3957405090332 C 1310.433959960938 35.34863662719727 1328.477661132813 37.5767936706543 1345.447143554688 39.20758438110352 C 1364.497314453125 41.03837203979492 1381.747924804688 42.07810974121094 1398.183715820313 42.38653182983398 C 1402.271362304688 42.46310806274414 1406.435546875 42.50205612182617 1410.560791015625 42.50205612182617 C 1428.903930664063 42.50205612182617 1447.87109375 41.73363494873047 1466.935546875 40.2183723449707 C 1485.160766601563 38.76995086669922 1503.95947265625 36.60021591186523 1522.809448242188 33.76942443847656 C 1540.77392578125 31.0717945098877 1559.259155273438 27.70284652709961 1577.751342773438 23.75600433349609 C 1595.312133789063 20.00784683227539 1613.338623046875 15.6407413482666 1631.330810546875 10.77574157714844 C 1693.531005859375 -6.042943000793457 1758.15234375 -29.48847007751465 1823.3994140625 -58.90925979614258 C 1849.022338867188 -70.46294403076172 1874.805786132813 -82.97794342041016 1900.0341796875 -96.10662841796875 C 1920.217895507813 -106.6100463867188 1940.0947265625 -117.5284729003906 1959.112915039063 -128.5584716796875 C 1979.417236328125 -140.3345336914063 1994.44873046875 -149.7593231201172 2002.893676757813 -155.1899871826172 L 2002.893676757813 37.38732147216797 L 2002.893676757813 749.2852172851563 Z" stroke="none"/>
        <path d="M -58.1163330078125 -396.385986328125 L -58.1163330078125 -80.76162719726563 L -58.1163330078125 744.2852172851563 L 1442.768432617188 744.2852172851563 L 1997.893432617188 744.2852172851563 L 1997.893432617188 37.3873291015625 L 1997.893432617188 -146.1436157226563 C 1932.26416015625 -105.1492919921875 1670.369262695313 47.50204467773438 1410.560791015625 47.50204467773438 C 1406.410522460938 47.50204467773438 1402.23974609375 47.46337890625 1398.089721679688 47.38546752929688 C 1329.46630859375 46.09835815429688 1254.086547851563 32.21994018554688 1174.281005859375 17.52651977539063 C 1089.630004882813 1.941009521484375 1002.097106933594 -14.175048828125 922.6649780273438 -14.175048828125 C 881.9844970703125 -14.175048828125 842.970458984375 -9.907928466796875 805.2413330078125 -5.7813720703125 C 768.678955078125 -1.78216552734375 734.1444091796875 1.994964599609375 699.240478515625 1.994964599609375 C 658.0712890625 1.994964599609375 623.42919921875 -3.3153076171875 590.2197265625 -14.71688842773438 C 548.4844970703125 -29.04531860351563 506.4346923828125 -72.47109985351563 465.769775390625 -114.4671630859375 C 430.554931640625 -150.8345336914063 397.2930908203125 -185.184814453125 368.1983642578125 -197.1118774414063 C 329.087646484375 -213.14453125 291.753173828125 -215.2000732421875 263.5968017578125 -215.1995239257813 C 250.703125 -215.1992797851563 238.0294189453125 -214.7150268554688 225.7734375 -214.2468872070313 C 213.987060546875 -213.796630859375 202.5426025390625 -213.3621826171875 191.480224609375 -213.3621826171875 C 169.0589599609375 -213.3621826171875 142.87255859375 -214.87109375 118.6512451171875 -226.0634765625 C 57.390380859375 -254.3701171875 -22.6787109375 -350.932373046875 -58.1163330078125 -396.385986328125 M -68.1163330078125 -426.0947875976563 C -68.1163330078125 -426.0947875976563 44.9697265625 -271.1253051757813 122.8458251953125 -235.14111328125 C 143.4495849609375 -225.62060546875 166.484619140625 -223.3621215820313 191.4803466796875 -223.3621215820313 C 214.0296630859375 -223.3621215820313 238.1834716796875 -225.198974609375 263.5965576171875 -225.199462890625 C 297.72509765625 -225.2000732421875 334.1221923828125 -221.8881225585938 371.9913330078125 -206.364501953125 C 437.80078125 -179.3871459960938 518.78662109375 -49.81399536132813 593.466796875 -24.175048828125 C 628.7890625 -12.04833984375 663.8092041015625 -8.005096435546875 699.2403564453125 -8.005096435546875 C 770.109375 -8.005096435546875 842.6427001953125 -24.175048828125 922.6649780273438 -24.175048828125 C 1076.265014648438 -24.175048828125 1256.1044921875 34.72048950195313 1398.27734375 37.3873291015625 C 1402.36474609375 37.4639892578125 1406.472900390625 37.50198364257813 1410.560791015625 37.50198364257813 C 1709.538818359375 37.50198364257813 2007.893432617188 -164.4366149902344 2007.893432617188 -164.4366149902344 L 2007.893432617188 37.3873291015625 L 2007.893432617188 754.2852172851563 L 1442.768432617188 754.2852172851563 L -68.1163330078125 754.2852172851563 L -68.1163330078125 -80.76162719726563 L -68.1163330078125 -426.0947875976563 Z" stroke="none" fill="#59839b"/>
      </g>
    </g>
    <g id="Группа_масок_108" data-name="Группа масок 108" clip-path="url(#clip-path)">
      <g id="Сгруппировать_1986" data-name="Сгруппировать 1986">
        <g id="Объединение_2" data-name="Объединение 2" transform="matrix(0.914, -0.407, 0.407, 0.914, -11706.564, 5054.57)" fill="#81a1ba">
          <path d="M 13682.0400390625 2311.000732421875 C 13671.0673828125 2311.000732421875 13660.3779296875 2307.935302734375 13651.1279296875 2302.1357421875 C 13642.125 2296.491943359375 13634.830078125 2288.508544921875 13630.03125 2279.049072265625 L 13629.2880859375 2277.58251953125 L 13627.705078125 2278.029052734375 C 13625.474609375 2278.657958984375 13623.1572265625 2278.97705078125 13620.81640625 2278.97705078125 C 13616.380859375 2278.97705078125 13612.017578125 2277.813720703125 13608.1982421875 2275.613037109375 C 13604.490234375 2273.476806640625 13601.359375 2270.41162109375 13599.142578125 2266.7490234375 L 13598.5703125 2265.80322265625 L 13597.4658203125 2265.78466796875 C 13591.5888671875 2265.685546875 13585.8994140625 2264.42626953125 13580.5537109375 2262.0419921875 C 13575.380859375 2259.734375 13570.740234375 2256.47265625 13566.759765625 2252.34716796875 C 13562.7744140625 2248.21630859375 13559.6474609375 2243.421875 13557.46484375 2238.09716796875 C 13555.205078125 2232.5830078125 13554.0595703125 2226.728515625 13554.0595703125 2220.69677734375 C 13554.0595703125 2214.60302734375 13555.228515625 2208.693115234375 13557.5341796875 2203.131103515625 C 13559.759765625 2197.76025390625 13562.9462890625 2192.93701171875 13567.0048828125 2188.79541015625 C 13571.060546875 2184.65673828125 13575.7822265625 2181.40771484375 13581.0390625 2179.13916015625 C 13586.4775390625 2176.792236328125 13592.2548828125 2175.60205078125 13598.2119140625 2175.60205078125 C 13599.6181640625 2175.60205078125 13601.037109375 2175.67041015625 13602.4287109375 2175.804931640625 L 13604.1123046875 2175.9677734375 L 13604.552734375 2174.33447265625 C 13605.8017578125 2169.69482421875 13607.796875 2165.310546875 13610.48046875 2161.303955078125 C 13613.1240234375 2157.358642578125 13616.3671875 2153.879150390625 13620.1201171875 2150.96240234375 C 13623.9111328125 2148.016357421875 13628.1201171875 2145.72412109375 13632.6318359375 2144.14892578125 C 13637.298828125 2142.51953125 13642.1962890625 2141.693359375 13647.1884765625 2141.693359375 C 13651.2734375 2141.693359375 13655.3173828125 2142.250244140625 13659.208984375 2143.3486328125 C 13662.98046875 2144.4130859375 13666.5986328125 2145.98193359375 13669.9638671875 2148.011962890625 C 13676.6240234375 2152.029541015625 13682.1279296875 2157.750732421875 13685.8818359375 2164.556884765625 L 13686.8271484375 2166.272216796875 L 13688.5625 2165.362060546875 C 13692.689453125 2163.1962890625 13697.076171875 2161.52685546875 13701.6015625 2160.399658203125 C 13706.2646484375 2159.23828125 13711.091796875 2158.6494140625 13715.9482421875 2158.6494140625 C 13727.8125 2158.6494140625 13739.2294921875 2162.13525390625 13748.962890625 2168.72998046875 L 13750.025390625 2169.44970703125 L 13751.123046875 2168.783935546875 C 13756.4833984375 2165.53076171875 13762.259765625 2163.014892578125 13768.291015625 2161.306884765625 C 13774.517578125 2159.54345703125 13780.9912109375 2158.6494140625 13787.533203125 2158.6494140625 C 13796.9306640625 2158.6494140625 13806.0458984375 2160.46533203125 13814.625 2164.04638671875 C 13818.7490234375 2165.767578125 13822.7255859375 2167.897705078125 13826.4462890625 2170.3779296875 C 13830.130859375 2172.834716796875 13833.595703125 2175.656005859375 13836.7451171875 2178.763427734375 C 13839.8935546875 2181.87060546875 13842.751953125 2185.2890625 13845.2412109375 2188.924560546875 C 13847.7529296875 2192.593505859375 13849.91015625 2196.515869140625 13851.6533203125 2200.58203125 C 13855.2783203125 2209.040771484375 13857.1171875 2218.027099609375 13857.1171875 2227.291259765625 C 13857.1171875 2236.555419921875 13855.2783203125 2245.541748046875 13851.6533203125 2254.00048828125 C 13849.91015625 2258.06689453125 13847.7529296875 2261.989013671875 13845.2412109375 2265.658203125 C 13842.751953125 2269.29345703125 13839.8935546875 2272.712158203125 13836.7451171875 2275.819091796875 C 13833.595703125 2278.9267578125 13830.130859375 2281.748046875 13826.4462890625 2284.20458984375 C 13822.7255859375 2286.684814453125 13818.7490234375 2288.815185546875 13814.625 2290.5361328125 C 13806.0458984375 2294.117431640625 13796.9306640625 2295.93310546875 13787.533203125 2295.93310546875 C 13781.1494140625 2295.93310546875 13774.826171875 2295.0810546875 13768.7392578125 2293.400634765625 C 13762.83984375 2291.772216796875 13757.1748046875 2289.370849609375 13751.9013671875 2286.263671875 L 13750.1171875 2285.21240234375 L 13749.1279296875 2287.031982421875 C 13746.1611328125 2292.4931640625 13741.8310546875 2297.08056640625 13736.60546875 2300.298095703125 C 13731.2353515625 2303.6044921875 13725.0693359375 2305.35205078125 13718.7724609375 2305.35205078125 C 13715.9150390625 2305.35205078125 13713.07421875 2304.994873046875 13710.3271484375 2304.2900390625 L 13709.5859375 2304.099853515625 L 13708.9072265625 2304.453125 C 13704.84375 2306.567138671875 13700.533203125 2308.1962890625 13696.09375 2309.295166015625 C 13691.5224609375 2310.427001953125 13686.7939453125 2311.000732421875 13682.0400390625 2311.000732421875 Z" stroke="none"/>
          <path d="M 13682.0400390625 2309.000732421875 C 13686.6328125 2309.000732421875 13691.19921875 2308.446533203125 13695.61328125 2307.353759765625 C 13699.8994140625 2306.292724609375 13704.0615234375 2304.719970703125 13707.9833984375 2302.678955078125 L 13709.341796875 2301.972412109375 L 13710.82421875 2302.352783203125 C 13713.408203125 2303.015869140625 13716.0830078125 2303.35205078125 13718.7724609375 2303.35205078125 C 13724.6982421875 2303.35205078125 13730.501953125 2301.70703125 13735.556640625 2298.594970703125 C 13740.4853515625 2295.560546875 13744.5703125 2291.23193359375 13747.37109375 2286.077392578125 L 13749.34765625 2282.43798828125 L 13752.916015625 2284.54052734375 C 13758.0390625 2287.55859375 13763.541015625 2289.89111328125 13769.271484375 2291.47265625 C 13775.185546875 2293.105224609375 13781.3291015625 2293.93310546875 13787.533203125 2293.93310546875 C 13796.6650390625 2293.93310546875 13805.5205078125 2292.169189453125 13813.85546875 2288.6904296875 C 13817.8603515625 2287.018798828125 13821.72265625 2284.94970703125 13825.3369140625 2282.54052734375 C 13828.916015625 2280.154296875 13832.28125 2277.4140625 13835.33984375 2274.3955078125 C 13838.3984375 2271.378173828125 13841.173828125 2268.058349609375 13843.5908203125 2264.5283203125 C 13846.029296875 2260.966552734375 13848.123046875 2257.159423828125 13849.814453125 2253.212646484375 C 13853.3330078125 2245.004150390625 13855.1171875 2236.282958984375 13855.1171875 2227.291259765625 C 13855.1171875 2218.299560546875 13853.3330078125 2209.578369140625 13849.814453125 2201.3701171875 C 13848.123046875 2197.42333984375 13846.029296875 2193.6162109375 13843.5908203125 2190.05419921875 C 13841.173828125 2186.5244140625 13838.3984375 2183.204345703125 13835.33984375 2180.18701171875 C 13832.28125 2177.168701171875 13828.916015625 2174.42822265625 13825.3369140625 2172.0419921875 C 13821.72265625 2169.6328125 13817.8603515625 2167.563720703125 13813.85546875 2165.89208984375 C 13805.5205078125 2162.413330078125 13796.6650390625 2160.6494140625 13787.533203125 2160.6494140625 C 13781.17578125 2160.6494140625 13774.884765625 2161.51806640625 13768.8359375 2163.231201171875 C 13762.9775390625 2164.890380859375 13757.3671875 2167.333740234375 13752.16015625 2170.493896484375 L 13749.9658203125 2171.8251953125 L 13747.841796875 2170.3857421875 C 13738.439453125 2164.01611328125 13727.4111328125 2160.6494140625 13715.9482421875 2160.6494140625 C 13711.25390625 2160.6494140625 13706.58984375 2161.21826171875 13702.0849609375 2162.34033203125 C 13697.7138671875 2163.428955078125 13693.4775390625 2165.04150390625 13689.4912109375 2167.133056640625 L 13686.0224609375 2168.95361328125 L 13684.1298828125 2165.522705078125 C 13680.5458984375 2159.02392578125 13675.2900390625 2153.560791015625 13668.9306640625 2149.724365234375 C 13665.71875 2147.786865234375 13662.265625 2146.289306640625 13658.666015625 2145.2734375 C 13654.951171875 2144.22509765625 13651.08984375 2143.693359375 13647.1884765625 2143.693359375 C 13642.421875 2143.693359375 13637.74609375 2144.48193359375 13633.291015625 2146.037353515625 C 13628.984375 2147.540771484375 13624.966796875 2149.72900390625 13621.34765625 2152.54150390625 C 13617.763671875 2155.326904296875 13614.6669921875 2158.649658203125 13612.142578125 2162.417236328125 C 13609.580078125 2166.241943359375 13607.67578125 2170.42626953125 13606.4833984375 2174.8544921875 L 13605.603515625 2178.121337890625 L 13602.236328125 2177.795654296875 C 13600.908203125 2177.667236328125 13599.5537109375 2177.60205078125 13598.2119140625 2177.60205078125 C 13592.529296875 2177.60205078125 13587.0185546875 2178.737060546875 13581.83203125 2180.9755859375 C 13576.814453125 2183.140869140625 13572.306640625 2186.24267578125 13568.43359375 2190.1953125 C 13564.5546875 2194.153564453125 13561.5087890625 2198.76318359375 13559.3818359375 2203.896728515625 C 13557.1767578125 2209.21484375 13556.0595703125 2214.8671875 13556.0595703125 2220.69677734375 C 13556.0595703125 2226.46728515625 13557.1552734375 2232.06640625 13559.3154296875 2237.3388671875 C 13561.4013671875 2242.42822265625 13564.390625 2247.0107421875 13568.19921875 2250.958740234375 C 13572.0009765625 2254.8984375 13576.431640625 2258.012939453125 13581.369140625 2260.215576171875 C 13586.466796875 2262.489501953125 13591.8935546875 2263.6904296875 13597.4990234375 2263.784912109375 L 13599.708984375 2263.822265625 L 13600.853515625 2265.713623046875 C 13602.8955078125 2269.087890625 13605.7802734375 2271.911865234375 13609.1962890625 2273.88037109375 C 13612.712890625 2275.90625 13616.73046875 2276.97705078125 13620.81640625 2276.97705078125 C 13622.9736328125 2276.97705078125 13625.1083984375 2276.683349609375 13627.162109375 2276.10400390625 L 13630.3271484375 2275.21142578125 L 13631.8154296875 2278.144287109375 C 13636.4501953125 2287.280029296875 13643.4951171875 2294.990234375 13652.1904296875 2300.44140625 C 13661.1220703125 2306.041015625 13671.443359375 2309.000732421875 13682.0400390625 2309.000732421875 M 13682.0400390625 2313.000732421875 C 13658.5498046875 2313.000732421875 13638.1953125 2299.56201171875 13628.248046875 2279.953857421875 C 13625.884765625 2280.620361328125 13623.392578125 2280.97705078125 13620.81640625 2280.97705078125 C 13610.8994140625 2280.97705078125 13602.216796875 2275.69189453125 13597.431640625 2267.784423828125 C 13572.298828125 2267.360595703125 13552.0595703125 2246.44140625 13552.0595703125 2220.69677734375 C 13552.0595703125 2194.686767578125 13572.720703125 2173.60205078125 13598.2119140625 2173.60205078125 C 13599.69921875 2173.60205078125 13601.169921875 2173.673828125 13602.62109375 2173.814208984375 C 13607.9150390625 2154.1591796875 13625.86328125 2139.693359375 13647.1884765625 2139.693359375 C 13664.609375 2139.693359375 13679.775390625 2149.343505859375 13687.6328125 2163.591064453125 C 13696.0751953125 2159.16064453125 13705.7138671875 2156.6494140625 13715.9482421875 2156.6494140625 C 13728.6201171875 2156.6494140625 13740.380859375 2160.499755859375 13750.0849609375 2167.07421875 C 13760.9794921875 2160.462646484375 13773.8046875 2156.6494140625 13787.533203125 2156.6494140625 C 13827.0654296875 2156.6494140625 13859.1171875 2188.276611328125 13859.1171875 2227.291259765625 C 13859.1171875 2266.30615234375 13827.0654296875 2297.93310546875 13787.533203125 2297.93310546875 C 13774.1396484375 2297.93310546875 13761.60546875 2294.302978515625 13750.8857421875 2287.98681640625 C 13744.6103515625 2299.5380859375 13732.5810546875 2307.35205078125 13718.7724609375 2307.35205078125 C 13715.6884765625 2307.35205078125 13712.6923828125 2306.961669921875 13709.830078125 2306.227294921875 C 13701.5146484375 2310.55419921875 13692.0615234375 2313.000732421875 13682.0400390625 2313.000732421875 Z" stroke="none" fill="#6c90ac"/>
        </g>
        <g id="Объединение_7" data-name="Объединение 7" transform="matrix(0.914, -0.407, 0.407, 0.914, -11982.676, 4772.418)" fill="#81a1ba">
          <path d="M 13663.68359375 2327.605712890625 C 13649.0576171875 2327.605712890625 13635.0703125 2322.165771484375 13624.2998046875 2312.2880859375 C 13613.5947265625 2302.470947265625 13606.970703125 2289.13330078125 13605.646484375 2274.7314453125 L 13605.5693359375 2273.890625 L 13604.9130859375 2273.359375 C 13602.6123046875 2271.4990234375 13600.671875 2269.275634765625 13599.1435546875 2266.751220703125 L 13598.5712890625 2265.805908203125 L 13597.466796875 2265.787109375 C 13591.5908203125 2265.68798828125 13585.9013671875 2264.4287109375 13580.5556640625 2262.044189453125 C 13575.3828125 2259.736328125 13570.7421875 2256.474365234375 13566.7607421875 2252.3486328125 C 13562.775390625 2248.21728515625 13559.6474609375 2243.4228515625 13557.46484375 2238.09814453125 C 13555.205078125 2232.583740234375 13554.05859375 2226.7294921875 13554.05859375 2220.697998046875 C 13554.05859375 2214.604736328125 13555.2275390625 2208.69482421875 13557.533203125 2203.1328125 C 13559.759765625 2197.761962890625 13562.9462890625 2192.938720703125 13567.0048828125 2188.796875 C 13571.0615234375 2184.65771484375 13575.783203125 2181.40869140625 13581.0390625 2179.139892578125 C 13586.4775390625 2176.792724609375 13592.2548828125 2175.6025390625 13598.2109375 2175.6025390625 C 13601.5283203125 2175.6025390625 13604.8349609375 2175.979736328125 13608.0400390625 2176.723876953125 C 13611.1572265625 2177.447509765625 13614.203125 2178.52392578125 13617.09375 2179.922607421875 L 13619.6435546875 2181.156494140625 L 13619.953125 2178.340576171875 C 13621.1318359375 2167.6044921875 13626.2197265625 2157.6884765625 13634.2802734375 2150.41943359375 C 13638.2509765625 2146.837890625 13642.7763671875 2144.037109375 13647.7314453125 2142.094482421875 C 13652.859375 2140.083984375 13658.279296875 2139.064453125 13663.8388671875 2139.064453125 C 13667.6474609375 2139.064453125 13671.427734375 2139.549560546875 13675.0751953125 2140.506591796875 C 13678.61328125 2141.434814453125 13682.033203125 2142.807861328125 13685.23828125 2144.587646484375 C 13691.5478515625 2148.0908203125 13696.962890625 2153.1455078125 13700.8974609375 2159.20556640625 L 13701.654296875 2160.37060546875 L 13703.0107421875 2160.068359375 C 13707.23046875 2159.127685546875 13711.583984375 2158.650634765625 13715.9501953125 2158.650634765625 C 13716.8955078125 2158.650634765625 13717.85546875 2158.67333984375 13718.8046875 2158.718505859375 L 13719.1328125 2158.734130859375 L 13719.44921875 2158.643798828125 C 13725.7265625 2156.849853515625 13732.25390625 2155.940185546875 13738.849609375 2155.940185546875 C 13748.248046875 2155.940185546875 13757.36328125 2157.756103515625 13765.943359375 2161.337646484375 C 13770.0673828125 2163.058837890625 13774.0439453125 2165.189208984375 13777.7646484375 2167.669677734375 C 13781.44921875 2170.12646484375 13784.9150390625 2172.94775390625 13788.0634765625 2176.055419921875 C 13791.2119140625 2179.162841796875 13794.0703125 2182.58154296875 13796.5595703125 2186.217041015625 C 13799.0712890625 2189.88623046875 13801.228515625 2193.808349609375 13802.9716796875 2197.874755859375 C 13806.59765625 2206.33349609375 13808.435546875 2215.319580078125 13808.435546875 2224.58349609375 C 13808.435546875 2233.277587890625 13806.810546875 2241.749267578125 13803.6064453125 2249.76318359375 C 13800.509765625 2257.506103515625 13796.046875 2264.5693359375 13790.3427734375 2270.75634765625 C 13778.748046875 2283.332275390625 13762.9609375 2291.18896484375 13745.8896484375 2292.879638671875 L 13745.1044921875 2292.957275390625 L 13744.583984375 2293.550537109375 C 13741.3544921875 2297.22998046875 13737.5 2300.13037109375 13733.12890625 2302.171142578125 C 13728.609375 2304.281005859375 13723.7802734375 2305.3505859375 13718.7744140625 2305.3505859375 C 13716.3369140625 2305.3505859375 13713.90234375 2305.08984375 13711.5390625 2304.57568359375 L 13710.3154296875 2304.309326171875 L 13709.541015625 2305.29443359375 C 13706.8779296875 2308.685302734375 13703.8330078125 2311.78662109375 13700.490234375 2314.512451171875 C 13697.12890625 2317.254150390625 13693.4609375 2319.620361328125 13689.5888671875 2321.54541015625 C 13685.646484375 2323.5048828125 13681.4794921875 2325.013916015625 13677.201171875 2326.02978515625 C 13672.7998046875 2327.075439453125 13668.251953125 2327.605712890625 13663.68359375 2327.605712890625 Z" stroke="none"/>
          <path d="M 13663.68359375 2325.605712890625 C 13668.095703125 2325.605712890625 13672.48828125 2325.09375 13676.7392578125 2324.083984375 C 13680.869140625 2323.10302734375 13684.892578125 2321.646240234375 13688.6982421875 2319.75439453125 C 13692.4375 2317.8955078125 13695.9794921875 2315.6103515625 13699.2265625 2312.962646484375 C 13702.4541015625 2310.329833984375 13705.3955078125 2307.334228515625 13707.96875 2304.05908203125 L 13709.5166015625 2302.0888671875 L 13711.96484375 2302.62158203125 C 13714.1884765625 2303.105224609375 13716.4794921875 2303.3505859375 13718.7744140625 2303.3505859375 C 13723.4853515625 2303.3505859375 13728.0302734375 2302.343994140625 13732.2822265625 2300.35888671875 C 13736.40234375 2298.43603515625 13740.03515625 2295.701416015625 13743.0810546875 2292.2314453125 L 13744.1220703125 2291.044921875 L 13745.6923828125 2290.889404296875 C 13762.275390625 2289.2470703125 13777.6103515625 2281.61572265625 13788.8720703125 2269.400634765625 C 13794.4111328125 2263.393310546875 13798.7431640625 2256.53662109375 13801.7490234375 2249.0205078125 C 13804.8583984375 2241.243896484375 13806.435546875 2233.022216796875 13806.435546875 2224.58349609375 C 13806.435546875 2215.592041015625 13804.6513671875 2206.87109375 13801.1337890625 2198.66259765625 C 13799.44140625 2194.7158203125 13797.34765625 2190.90869140625 13794.9091796875 2187.3466796875 C 13792.4921875 2183.816650390625 13789.716796875 2180.49658203125 13786.6591796875 2177.47900390625 C 13783.6005859375 2174.46044921875 13780.234375 2171.719970703125 13776.6552734375 2169.333740234375 C 13773.0419921875 2166.92431640625 13769.1787109375 2164.855224609375 13765.173828125 2163.183349609375 C 13756.8388671875 2159.7041015625 13747.9814453125 2157.940185546875 13738.849609375 2157.940185546875 C 13732.439453125 2157.940185546875 13726.0966796875 2158.823974609375 13719.998046875 2160.566650390625 L 13719.3662109375 2160.747314453125 L 13718.7099609375 2160.71630859375 C 13717.79296875 2160.672607421875 13716.8642578125 2160.650634765625 13715.9501953125 2160.650634765625 C 13711.7294921875 2160.650634765625 13707.5224609375 2161.111572265625 13703.4453125 2162.0205078125 L 13700.7333984375 2162.625 L 13699.220703125 2160.294677734375 C 13695.462890625 2154.508056640625 13690.2919921875 2149.68115234375 13684.267578125 2146.336181640625 C 13681.2080078125 2144.637451171875 13677.9443359375 2143.3271484375 13674.5673828125 2142.441162109375 C 13671.0859375 2141.527587890625 13667.4755859375 2141.064453125 13663.8388671875 2141.064453125 C 13658.5302734375 2141.064453125 13653.3564453125 2142.03759765625 13648.4609375 2143.95654296875 C 13643.7314453125 2145.810791015625 13639.4111328125 2148.48486328125 13635.619140625 2151.904541015625 C 13627.923828125 2158.8447265625 13623.06640625 2168.310791015625 13621.94140625 2178.55908203125 L 13621.322265625 2184.190673828125 L 13616.22265625 2181.722900390625 C 13613.46484375 2180.388671875 13610.560546875 2179.3623046875 13607.587890625 2178.672119140625 C 13604.53125 2177.96240234375 13601.3759765625 2177.6025390625 13598.2109375 2177.6025390625 C 13592.529296875 2177.6025390625 13587.0185546875 2178.737548828125 13581.83203125 2180.976318359375 C 13576.8154296875 2183.1416015625 13572.3076171875 2186.243896484375 13568.43359375 2190.19677734375 C 13564.5546875 2194.155029296875 13561.5087890625 2198.76513671875 13559.380859375 2203.898681640625 C 13557.1767578125 2209.216796875 13556.05859375 2214.868896484375 13556.05859375 2220.697998046875 C 13556.05859375 2226.468017578125 13557.154296875 2232.067138671875 13559.3154296875 2237.339599609375 C 13561.4013671875 2242.428955078125 13564.390625 2247.01171875 13568.2001953125 2250.9599609375 C 13572.001953125 2254.900146484375 13576.43359375 2258.014892578125 13581.37109375 2260.217529296875 C 13586.46875 2262.491943359375 13591.8955078125 2263.69287109375 13597.5 2263.787353515625 L 13599.7099609375 2263.82470703125 L 13600.8544921875 2265.7158203125 C 13602.2626953125 2268.04150390625 13604.05078125 2270.090087890625 13606.1708984375 2271.804443359375 L 13607.484375 2272.866455078125 L 13607.638671875 2274.54833984375 C 13608.9169921875 2288.454345703125 13615.3134765625 2301.333740234375 13625.6513671875 2310.81396484375 C 13636.052734375 2320.3525390625 13649.5595703125 2325.605712890625 13663.68359375 2325.605712890625 M 13663.68359375 2329.605712890625 C 13632.2734375 2329.605712890625 13606.474609375 2305.58642578125 13603.6552734375 2274.91455078125 C 13601.19140625 2272.921875 13599.0810546875 2270.510498046875 13597.4326171875 2267.786865234375 C 13572.302734375 2267.363037109375 13552.05859375 2246.441650390625 13552.05859375 2220.697998046875 C 13552.05859375 2194.689453125 13572.72265625 2173.6025390625 13598.2109375 2173.6025390625 C 13605.2783203125 2173.6025390625 13611.9765625 2175.224609375 13617.96484375 2178.122314453125 C 13620.5009765625 2155.03125 13640.072265625 2137.064453125 13663.8388671875 2137.064453125 C 13680.0712890625 2137.064453125 13694.34765625 2145.446044921875 13702.5751953125 2158.1162109375 C 13706.876953125 2157.1572265625 13711.353515625 2156.650634765625 13715.9501953125 2156.650634765625 C 13716.939453125 2156.650634765625 13717.921875 2156.67431640625 13718.8994140625 2156.720703125 C 13725.2314453125 2154.9111328125 13731.9267578125 2153.940185546875 13738.849609375 2153.940185546875 C 13778.3857421875 2153.940185546875 13810.435546875 2185.570556640625 13810.435546875 2224.58349609375 C 13810.435546875 2261.18994140625 13782.2255859375 2291.291015625 13746.0869140625 2294.869873046875 C 13739.3623046875 2302.531982421875 13729.6162109375 2307.3505859375 13718.7744140625 2307.3505859375 C 13716.1474609375 2307.3505859375 13713.5859375 2307.06787109375 13711.1142578125 2306.530029296875 C 13700.078125 2320.578857421875 13682.93359375 2329.605712890625 13663.68359375 2329.605712890625 Z" stroke="none" fill="#6c90ac"/>
        </g>
        <g id="Объединение_3" data-name="Объединение 3" transform="matrix(0.914, -0.407, 0.407, 0.914, -12988.563, 4807.51)" fill="#81a1ba">
          <path d="M 13650.5751953125 2322.42578125 C 13644.927734375 2322.42578125 13639.44921875 2321.320068359375 13634.2939453125 2319.1396484375 C 13629.3134765625 2317.032958984375 13624.8408203125 2314.016845703125 13620.9990234375 2310.1748046875 C 13617.1572265625 2306.3330078125 13614.1416015625 2301.85986328125 13612.03515625 2296.87939453125 C 13609.8544921875 2291.724365234375 13608.7490234375 2286.2470703125 13608.7490234375 2280.60009765625 C 13608.7490234375 2279.50634765625 13608.7919921875 2278.401123046875 13608.8759765625 2277.3154296875 L 13608.9716796875 2276.07666015625 L 13607.9033203125 2275.441650390625 C 13604.193359375 2273.236572265625 13601.0859375 2270.09912109375 13598.916015625 2266.36865234375 C 13596.6826171875 2262.527099609375 13595.501953125 2258.13330078125 13595.501953125 2253.661865234375 C 13595.501953125 2249.23095703125 13596.6630859375 2244.87158203125 13598.859375 2241.055419921875 C 13600.9912109375 2237.350830078125 13604.0517578125 2234.220458984375 13607.7080078125 2232.0029296875 L 13608.7158203125 2231.3916015625 L 13608.6689453125 2230.214111328125 C 13608.646484375 2229.6298828125 13608.634765625 2229.027099609375 13608.634765625 2228.422607421875 C 13608.634765625 2222.3291015625 13609.8037109375 2216.41943359375 13612.109375 2210.857177734375 C 13614.3349609375 2205.486572265625 13617.5224609375 2200.663330078125 13621.5810546875 2196.521484375 C 13625.63671875 2192.382568359375 13630.3583984375 2189.1337890625 13635.615234375 2186.864990234375 C 13641.0537109375 2184.517822265625 13646.8310546875 2183.32763671875 13652.787109375 2183.32763671875 C 13656.986328125 2183.32763671875 13661.140625 2183.928466796875 13665.1328125 2185.11328125 L 13666.5390625 2185.53076171875 L 13667.3603515625 2184.314697265625 C 13672.578125 2176.5830078125 13679.7001953125 2170.14013671875 13687.9580078125 2165.682861328125 C 13692.158203125 2163.415771484375 13696.6337890625 2161.667236328125 13701.2607421875 2160.4853515625 C 13706.0302734375 2159.267578125 13710.9716796875 2158.64990234375 13715.947265625 2158.64990234375 C 13721.4189453125 2158.64990234375 13726.8330078125 2159.39453125 13732.0390625 2160.86279296875 L 13733.294921875 2161.217041015625 L 13734.125 2160.210205078125 C 13742.552734375 2149.989013671875 13754.9755859375 2144.126708984375 13768.2080078125 2144.126708984375 C 13774.169921875 2144.126708984375 13779.951171875 2145.293701171875 13785.3935546875 2147.595703125 C 13790.650390625 2149.8193359375 13795.373046875 2153.003173828125 13799.4287109375 2157.05859375 C 13803.484375 2161.114013671875 13806.66796875 2165.836181640625 13808.8916015625 2171.093505859375 C 13811.193359375 2176.535400390625 13812.3603515625 2182.3173828125 13812.3603515625 2188.27880859375 C 13812.3603515625 2191.696044921875 13811.96875 2195.099609375 13811.1962890625 2198.394775390625 C 13810.4462890625 2201.597412109375 13809.3310546875 2204.720703125 13807.8818359375 2207.677978515625 C 13806.458984375 2210.582763671875 13804.708984375 2213.33935546875 13802.6796875 2215.87158203125 C 13800.662109375 2218.38818359375 13798.365234375 2220.68896484375 13795.8525390625 2222.7099609375 L 13794.8134765625 2223.545166015625 L 13795.1845703125 2224.8251953125 C 13796.958984375 2230.947265625 13797.8583984375 2237.309814453125 13797.8583984375 2243.736083984375 C 13797.8583984375 2253 13796.0205078125 2261.98583984375 13792.39453125 2270.4443359375 C 13790.6513671875 2274.510498046875 13788.494140625 2278.4326171875 13785.982421875 2282.1015625 C 13783.4931640625 2285.73681640625 13780.634765625 2289.1552734375 13777.486328125 2292.26220703125 C 13774.3369140625 2295.36962890625 13770.8720703125 2298.190673828125 13767.1865234375 2300.647216796875 C 13763.466796875 2303.12744140625 13759.4892578125 2305.257568359375 13755.3662109375 2306.978515625 C 13746.7861328125 2310.5595703125 13737.669921875 2312.375244140625 13728.2724609375 2312.375244140625 C 13714.4453125 2312.375244140625 13701.087890625 2308.384765625 13689.642578125 2300.835205078125 L 13687.87109375 2299.6669921875 L 13686.8095703125 2301.503662109375 C 13683.1982421875 2307.7509765625 13678.001953125 2312.99072265625 13671.78515625 2316.656494140625 C 13668.638671875 2318.511474609375 13665.263671875 2319.944580078125 13661.7529296875 2320.915771484375 C 13658.1318359375 2321.917724609375 13654.3701171875 2322.42578125 13650.5751953125 2322.42578125 Z" stroke="none"/>
          <path d="M 13650.5751953125 2320.42578125 C 13654.1904296875 2320.42578125 13657.771484375 2319.942138671875 13661.2197265625 2318.98828125 C 13664.5615234375 2318.063720703125 13667.7744140625 2316.69970703125 13670.76953125 2314.933837890625 C 13676.6904296875 2311.442626953125 13681.638671875 2306.452392578125 13685.078125 2300.502685546875 L 13687.2021484375 2296.829345703125 L 13690.7431640625 2299.16552734375 C 13701.861328125 2306.4990234375 13714.837890625 2310.375244140625 13728.2724609375 2310.375244140625 C 13737.404296875 2310.375244140625 13746.2607421875 2308.611328125 13754.595703125 2305.1328125 C 13758.6005859375 2303.461181640625 13762.4638671875 2301.39208984375 13766.0771484375 2298.983154296875 C 13769.65625 2296.596923828125 13773.0224609375 2293.856689453125 13776.0810546875 2290.838623046875 C 13779.138671875 2287.8212890625 13781.9150390625 2284.50146484375 13784.33203125 2280.9716796875 C 13786.7705078125 2277.409912109375 13788.8642578125 2273.60302734375 13790.5556640625 2269.656494140625 C 13794.07421875 2261.448486328125 13795.8583984375 2252.7275390625 13795.8583984375 2243.736083984375 C 13795.8583984375 2237.498046875 13794.9853515625 2231.322998046875 13793.263671875 2225.382080078125 L 13792.521484375 2222.82177734375 L 13794.5986328125 2221.1513671875 C 13796.9990234375 2219.221435546875 13799.1923828125 2217.024169921875 13801.1181640625 2214.620849609375 C 13803.056640625 2212.203125 13804.7275390625 2209.571044921875 13806.0859375 2206.798095703125 C 13807.46875 2203.9755859375 13808.533203125 2200.994873046875 13809.2490234375 2197.9384765625 C 13809.986328125 2194.792724609375 13810.3603515625 2191.542724609375 13810.3603515625 2188.27880859375 C 13810.3603515625 2182.586669921875 13809.24609375 2177.066650390625 13807.0498046875 2171.87255859375 C 13804.9267578125 2166.853515625 13801.88671875 2162.34521484375 13798.0146484375 2158.472900390625 C 13794.1416015625 2154.600341796875 13789.6337890625 2151.560546875 13784.6142578125 2149.4375 C 13779.419921875 2147.24072265625 13773.900390625 2146.126708984375 13768.2080078125 2146.126708984375 C 13755.57421875 2146.126708984375 13743.71484375 2151.7236328125 13735.66796875 2161.482666015625 L 13734.0078125 2163.496337890625 L 13731.49609375 2162.787841796875 C 13726.466796875 2161.369140625 13721.2353515625 2160.64990234375 13715.947265625 2160.64990234375 C 13711.138671875 2160.64990234375 13706.36328125 2161.24658203125 13701.755859375 2162.42333984375 C 13697.287109375 2163.564697265625 13692.96484375 2165.25341796875 13688.908203125 2167.442626953125 C 13680.93359375 2171.747314453125 13674.0556640625 2177.968505859375 13669.017578125 2185.43359375 L 13667.376953125 2187.865478515625 L 13664.564453125 2187.03076171875 C 13660.755859375 2185.900634765625 13656.7939453125 2185.32763671875 13652.787109375 2185.32763671875 C 13647.1044921875 2185.32763671875 13641.59375 2186.462646484375 13636.4072265625 2188.701171875 C 13631.390625 2190.86669921875 13626.8828125 2193.96875 13623.009765625 2197.92138671875 C 13619.1298828125 2201.879638671875 13616.0849609375 2206.489501953125 13613.95703125 2211.623046875 C 13611.7529296875 2216.941162109375 13610.634765625 2222.59326171875 13610.634765625 2228.422607421875 C 13610.634765625 2229.00146484375 13610.6455078125 2229.57763671875 13610.66796875 2230.1357421875 L 13610.7607421875 2232.49072265625 L 13608.7451171875 2233.712890625 C 13605.3759765625 2235.756103515625 13602.5576171875 2238.64013671875 13600.5927734375 2242.05322265625 C 13598.5703125 2245.566162109375 13597.501953125 2249.58056640625 13597.501953125 2253.661865234375 C 13597.501953125 2257.780517578125 13598.5888671875 2261.82666015625 13600.6455078125 2265.36328125 C 13602.6435546875 2268.800048828125 13605.5068359375 2271.690673828125 13608.92578125 2273.722412109375 L 13611.0615234375 2274.9921875 L 13610.8701171875 2277.469970703125 C 13610.7900390625 2278.5048828125 13610.7490234375 2279.55810546875 13610.7490234375 2280.60009765625 C 13610.7490234375 2285.97802734375 13611.8017578125 2291.193115234375 13613.876953125 2296.100341796875 C 13615.8828125 2300.84228515625 13618.75390625 2305.101806640625 13622.4130859375 2308.7607421875 C 13626.0712890625 2312.419677734375 13630.3310546875 2315.291748046875 13635.0732421875 2317.297607421875 C 13639.98046875 2319.373291015625 13645.1962890625 2320.42578125 13650.5751953125 2320.42578125 M 13650.5751953125 2324.42578125 C 13626.3681640625 2324.42578125 13606.7490234375 2304.802978515625 13606.7490234375 2280.60009765625 C 13606.7490234375 2279.443359375 13606.7939453125 2278.294921875 13606.8818359375 2277.160888671875 C 13598.8701171875 2272.399169921875 13593.501953125 2263.656982421875 13593.501953125 2253.661865234375 C 13593.501953125 2243.75537109375 13598.7763671875 2235.08056640625 13606.6708984375 2230.292724609375 C 13606.646484375 2229.671630859375 13606.634765625 2229.049560546875 13606.634765625 2228.422607421875 C 13606.634765625 2202.41357421875 13627.2978515625 2181.32763671875 13652.787109375 2181.32763671875 C 13657.26953125 2181.32763671875 13661.6044921875 2181.97998046875 13665.7021484375 2183.196044921875 C 13676.5 2167.195556640625 13694.97265625 2156.64990234375 13715.947265625 2156.64990234375 C 13721.71875 2156.64990234375 13727.2978515625 2157.447509765625 13732.58203125 2158.93798828125 C 13741.046875 2148.671142578125 13753.86328125 2142.126708984375 13768.2080078125 2142.126708984375 C 13793.697265625 2142.126708984375 13814.3603515625 2162.789794921875 13814.3603515625 2188.27880859375 C 13814.3603515625 2202.82958984375 13807.6259765625 2215.80859375 13797.10546875 2224.2685546875 C 13798.8974609375 2230.45166015625 13799.8583984375 2236.98486328125 13799.8583984375 2243.736083984375 C 13799.8583984375 2282.749755859375 13767.806640625 2314.375244140625 13728.2724609375 2314.375244140625 C 13713.5732421875 2314.375244140625 13699.9091796875 2310.00341796875 13688.541015625 2302.504638671875 C 13680.96484375 2315.609130859375 13666.798828125 2324.42578125 13650.5751953125 2324.42578125 Z" stroke="none" fill="#6c90ac"/>
        </g>
        <g id="Объединение_6" data-name="Объединение 6" transform="matrix(0.914, -0.407, 0.407, 0.914, -13369.973, 5116.865)" fill="#81a1ba">
          <path d="M 13650.5751953125 2322.42578125 C 13644.927734375 2322.42578125 13639.44921875 2321.320068359375 13634.2939453125 2319.1396484375 C 13629.3134765625 2317.032958984375 13624.8408203125 2314.016845703125 13620.9990234375 2310.1748046875 C 13617.1572265625 2306.3330078125 13614.1416015625 2301.85986328125 13612.03515625 2296.87939453125 C 13609.8544921875 2291.724365234375 13608.7490234375 2286.2470703125 13608.7490234375 2280.60009765625 C 13608.7490234375 2279.50634765625 13608.7919921875 2278.401123046875 13608.8759765625 2277.3154296875 L 13608.9716796875 2276.07666015625 L 13607.9033203125 2275.441650390625 C 13604.193359375 2273.236572265625 13601.0859375 2270.09912109375 13598.916015625 2266.36865234375 C 13596.6826171875 2262.527099609375 13595.501953125 2258.13330078125 13595.501953125 2253.661865234375 C 13595.501953125 2249.23095703125 13596.6630859375 2244.87158203125 13598.859375 2241.055419921875 C 13600.9912109375 2237.350830078125 13604.0517578125 2234.220458984375 13607.7080078125 2232.0029296875 L 13608.7158203125 2231.3916015625 L 13608.6689453125 2230.214111328125 C 13608.646484375 2229.6298828125 13608.634765625 2229.027099609375 13608.634765625 2228.422607421875 C 13608.634765625 2222.3291015625 13609.8037109375 2216.41943359375 13612.109375 2210.857177734375 C 13614.3349609375 2205.486572265625 13617.5224609375 2200.663330078125 13621.5810546875 2196.521484375 C 13625.63671875 2192.382568359375 13630.3583984375 2189.1337890625 13635.615234375 2186.864990234375 C 13641.0537109375 2184.517822265625 13646.8310546875 2183.32763671875 13652.787109375 2183.32763671875 C 13656.986328125 2183.32763671875 13661.140625 2183.928466796875 13665.1328125 2185.11328125 L 13666.5390625 2185.53076171875 L 13667.3603515625 2184.314697265625 C 13672.578125 2176.5830078125 13679.7001953125 2170.14013671875 13687.9580078125 2165.682861328125 C 13692.158203125 2163.415771484375 13696.6337890625 2161.667236328125 13701.2607421875 2160.4853515625 C 13706.0302734375 2159.267578125 13710.9716796875 2158.64990234375 13715.947265625 2158.64990234375 C 13721.4189453125 2158.64990234375 13726.8330078125 2159.39453125 13732.0390625 2160.86279296875 L 13733.294921875 2161.217041015625 L 13734.125 2160.210205078125 C 13742.552734375 2149.989013671875 13754.9755859375 2144.126708984375 13768.2080078125 2144.126708984375 C 13774.169921875 2144.126708984375 13779.951171875 2145.293701171875 13785.3935546875 2147.595703125 C 13790.650390625 2149.8193359375 13795.373046875 2153.003173828125 13799.4287109375 2157.05859375 C 13803.484375 2161.114013671875 13806.66796875 2165.836181640625 13808.8916015625 2171.093505859375 C 13811.193359375 2176.535400390625 13812.3603515625 2182.3173828125 13812.3603515625 2188.27880859375 C 13812.3603515625 2191.696044921875 13811.96875 2195.099609375 13811.1962890625 2198.394775390625 C 13810.4462890625 2201.597412109375 13809.3310546875 2204.720703125 13807.8818359375 2207.677978515625 C 13806.458984375 2210.582763671875 13804.708984375 2213.33935546875 13802.6796875 2215.87158203125 C 13800.662109375 2218.38818359375 13798.365234375 2220.68896484375 13795.8525390625 2222.7099609375 L 13794.8134765625 2223.545166015625 L 13795.1845703125 2224.8251953125 C 13796.958984375 2230.947265625 13797.8583984375 2237.309814453125 13797.8583984375 2243.736083984375 C 13797.8583984375 2253 13796.0205078125 2261.98583984375 13792.39453125 2270.4443359375 C 13790.6513671875 2274.510498046875 13788.494140625 2278.4326171875 13785.982421875 2282.1015625 C 13783.4931640625 2285.73681640625 13780.634765625 2289.1552734375 13777.486328125 2292.26220703125 C 13774.3369140625 2295.36962890625 13770.8720703125 2298.190673828125 13767.1865234375 2300.647216796875 C 13763.466796875 2303.12744140625 13759.4892578125 2305.257568359375 13755.3662109375 2306.978515625 C 13746.7861328125 2310.5595703125 13737.669921875 2312.375244140625 13728.2724609375 2312.375244140625 C 13714.4453125 2312.375244140625 13701.087890625 2308.384765625 13689.642578125 2300.835205078125 L 13687.87109375 2299.6669921875 L 13686.8095703125 2301.503662109375 C 13683.1982421875 2307.7509765625 13678.001953125 2312.99072265625 13671.78515625 2316.656494140625 C 13668.638671875 2318.511474609375 13665.263671875 2319.944580078125 13661.7529296875 2320.915771484375 C 13658.1318359375 2321.917724609375 13654.3701171875 2322.42578125 13650.5751953125 2322.42578125 Z" stroke="none"/>
          <path d="M 13650.5751953125 2320.42578125 C 13654.1904296875 2320.42578125 13657.771484375 2319.942138671875 13661.2197265625 2318.98828125 C 13664.5615234375 2318.063720703125 13667.7744140625 2316.69970703125 13670.76953125 2314.933837890625 C 13676.6904296875 2311.442626953125 13681.638671875 2306.452392578125 13685.078125 2300.502685546875 L 13687.2021484375 2296.829345703125 L 13690.7431640625 2299.16552734375 C 13701.861328125 2306.4990234375 13714.837890625 2310.375244140625 13728.2724609375 2310.375244140625 C 13737.404296875 2310.375244140625 13746.2607421875 2308.611328125 13754.595703125 2305.1328125 C 13758.6005859375 2303.461181640625 13762.4638671875 2301.39208984375 13766.0771484375 2298.983154296875 C 13769.65625 2296.596923828125 13773.0224609375 2293.856689453125 13776.0810546875 2290.838623046875 C 13779.138671875 2287.8212890625 13781.9150390625 2284.50146484375 13784.33203125 2280.9716796875 C 13786.7705078125 2277.409912109375 13788.8642578125 2273.60302734375 13790.5556640625 2269.656494140625 C 13794.07421875 2261.448486328125 13795.8583984375 2252.7275390625 13795.8583984375 2243.736083984375 C 13795.8583984375 2237.498046875 13794.9853515625 2231.322998046875 13793.263671875 2225.382080078125 L 13792.521484375 2222.82177734375 L 13794.5986328125 2221.1513671875 C 13796.9990234375 2219.221435546875 13799.1923828125 2217.024169921875 13801.1181640625 2214.620849609375 C 13803.056640625 2212.203125 13804.7275390625 2209.571044921875 13806.0859375 2206.798095703125 C 13807.46875 2203.9755859375 13808.533203125 2200.994873046875 13809.2490234375 2197.9384765625 C 13809.986328125 2194.792724609375 13810.3603515625 2191.542724609375 13810.3603515625 2188.27880859375 C 13810.3603515625 2182.586669921875 13809.24609375 2177.066650390625 13807.0498046875 2171.87255859375 C 13804.9267578125 2166.853515625 13801.88671875 2162.34521484375 13798.0146484375 2158.472900390625 C 13794.1416015625 2154.600341796875 13789.6337890625 2151.560546875 13784.6142578125 2149.4375 C 13779.419921875 2147.24072265625 13773.900390625 2146.126708984375 13768.2080078125 2146.126708984375 C 13755.57421875 2146.126708984375 13743.71484375 2151.7236328125 13735.66796875 2161.482666015625 L 13734.0078125 2163.496337890625 L 13731.49609375 2162.787841796875 C 13726.466796875 2161.369140625 13721.2353515625 2160.64990234375 13715.947265625 2160.64990234375 C 13711.138671875 2160.64990234375 13706.36328125 2161.24658203125 13701.755859375 2162.42333984375 C 13697.287109375 2163.564697265625 13692.96484375 2165.25341796875 13688.908203125 2167.442626953125 C 13680.93359375 2171.747314453125 13674.0556640625 2177.968505859375 13669.017578125 2185.43359375 L 13667.376953125 2187.865478515625 L 13664.564453125 2187.03076171875 C 13660.755859375 2185.900634765625 13656.7939453125 2185.32763671875 13652.787109375 2185.32763671875 C 13647.1044921875 2185.32763671875 13641.59375 2186.462646484375 13636.4072265625 2188.701171875 C 13631.390625 2190.86669921875 13626.8828125 2193.96875 13623.009765625 2197.92138671875 C 13619.1298828125 2201.879638671875 13616.0849609375 2206.489501953125 13613.95703125 2211.623046875 C 13611.7529296875 2216.941162109375 13610.634765625 2222.59326171875 13610.634765625 2228.422607421875 C 13610.634765625 2229.00146484375 13610.6455078125 2229.57763671875 13610.66796875 2230.1357421875 L 13610.7607421875 2232.49072265625 L 13608.7451171875 2233.712890625 C 13605.3759765625 2235.756103515625 13602.5576171875 2238.64013671875 13600.5927734375 2242.05322265625 C 13598.5703125 2245.566162109375 13597.501953125 2249.58056640625 13597.501953125 2253.661865234375 C 13597.501953125 2257.780517578125 13598.5888671875 2261.82666015625 13600.6455078125 2265.36328125 C 13602.6435546875 2268.800048828125 13605.5068359375 2271.690673828125 13608.92578125 2273.722412109375 L 13611.0615234375 2274.9921875 L 13610.8701171875 2277.469970703125 C 13610.7900390625 2278.5048828125 13610.7490234375 2279.55810546875 13610.7490234375 2280.60009765625 C 13610.7490234375 2285.97802734375 13611.8017578125 2291.193115234375 13613.876953125 2296.100341796875 C 13615.8828125 2300.84228515625 13618.75390625 2305.101806640625 13622.4130859375 2308.7607421875 C 13626.0712890625 2312.419677734375 13630.3310546875 2315.291748046875 13635.0732421875 2317.297607421875 C 13639.98046875 2319.373291015625 13645.1962890625 2320.42578125 13650.5751953125 2320.42578125 M 13650.5751953125 2324.42578125 C 13626.3681640625 2324.42578125 13606.7490234375 2304.802978515625 13606.7490234375 2280.60009765625 C 13606.7490234375 2279.443359375 13606.7939453125 2278.294921875 13606.8818359375 2277.160888671875 C 13598.8701171875 2272.399169921875 13593.501953125 2263.656982421875 13593.501953125 2253.661865234375 C 13593.501953125 2243.75537109375 13598.7763671875 2235.08056640625 13606.6708984375 2230.292724609375 C 13606.646484375 2229.671630859375 13606.634765625 2229.049560546875 13606.634765625 2228.422607421875 C 13606.634765625 2202.41357421875 13627.2978515625 2181.32763671875 13652.787109375 2181.32763671875 C 13657.26953125 2181.32763671875 13661.6044921875 2181.97998046875 13665.7021484375 2183.196044921875 C 13676.5 2167.195556640625 13694.97265625 2156.64990234375 13715.947265625 2156.64990234375 C 13721.71875 2156.64990234375 13727.2978515625 2157.447509765625 13732.58203125 2158.93798828125 C 13741.046875 2148.671142578125 13753.86328125 2142.126708984375 13768.2080078125 2142.126708984375 C 13793.697265625 2142.126708984375 13814.3603515625 2162.789794921875 13814.3603515625 2188.27880859375 C 13814.3603515625 2202.82958984375 13807.6259765625 2215.80859375 13797.10546875 2224.2685546875 C 13798.8974609375 2230.45166015625 13799.8583984375 2236.98486328125 13799.8583984375 2243.736083984375 C 13799.8583984375 2282.749755859375 13767.806640625 2314.375244140625 13728.2724609375 2314.375244140625 C 13713.5732421875 2314.375244140625 13699.9091796875 2310.00341796875 13688.541015625 2302.504638671875 C 13680.96484375 2315.609130859375 13666.798828125 2324.42578125 13650.5751953125 2324.42578125 Z" stroke="none" fill="#6c90ac"/>
        </g>
        <g id="Объединение_4" data-name="Объединение 4" transform="matrix(0.914, -0.407, 0.407, 0.914, -12858.713, 5252.054)" fill="#81a1ba">
          <path d="M 13682.0400390625 2311.000732421875 C 13671.0673828125 2311.000732421875 13660.3779296875 2307.935302734375 13651.1279296875 2302.1357421875 C 13642.125 2296.491943359375 13634.830078125 2288.508544921875 13630.03125 2279.049072265625 L 13629.2880859375 2277.58251953125 L 13627.705078125 2278.029052734375 C 13625.474609375 2278.657958984375 13623.1572265625 2278.97705078125 13620.81640625 2278.97705078125 C 13616.380859375 2278.97705078125 13612.017578125 2277.813720703125 13608.1982421875 2275.613037109375 C 13604.490234375 2273.476806640625 13601.359375 2270.41162109375 13599.142578125 2266.7490234375 L 13598.5703125 2265.80322265625 L 13597.4658203125 2265.78466796875 C 13591.5888671875 2265.685546875 13585.8994140625 2264.42626953125 13580.5537109375 2262.0419921875 C 13575.380859375 2259.734375 13570.740234375 2256.47265625 13566.759765625 2252.34716796875 C 13562.7744140625 2248.21630859375 13559.6474609375 2243.421875 13557.46484375 2238.09716796875 C 13555.205078125 2232.5830078125 13554.0595703125 2226.728515625 13554.0595703125 2220.69677734375 C 13554.0595703125 2214.60302734375 13555.228515625 2208.693115234375 13557.5341796875 2203.131103515625 C 13559.759765625 2197.76025390625 13562.9462890625 2192.93701171875 13567.0048828125 2188.79541015625 C 13571.060546875 2184.65673828125 13575.7822265625 2181.40771484375 13581.0390625 2179.13916015625 C 13586.4775390625 2176.792236328125 13592.2548828125 2175.60205078125 13598.2119140625 2175.60205078125 C 13599.6181640625 2175.60205078125 13601.037109375 2175.67041015625 13602.4287109375 2175.804931640625 L 13604.1123046875 2175.9677734375 L 13604.552734375 2174.33447265625 C 13605.8017578125 2169.69482421875 13607.796875 2165.310546875 13610.48046875 2161.303955078125 C 13613.1240234375 2157.358642578125 13616.3671875 2153.879150390625 13620.1201171875 2150.96240234375 C 13623.9111328125 2148.016357421875 13628.1201171875 2145.72412109375 13632.6318359375 2144.14892578125 C 13637.298828125 2142.51953125 13642.1962890625 2141.693359375 13647.1884765625 2141.693359375 C 13651.2734375 2141.693359375 13655.3173828125 2142.250244140625 13659.208984375 2143.3486328125 C 13662.98046875 2144.4130859375 13666.5986328125 2145.98193359375 13669.9638671875 2148.011962890625 C 13676.6240234375 2152.029541015625 13682.1279296875 2157.750732421875 13685.8818359375 2164.556884765625 L 13686.8271484375 2166.272216796875 L 13688.5625 2165.362060546875 C 13692.689453125 2163.1962890625 13697.076171875 2161.52685546875 13701.6015625 2160.399658203125 C 13706.2646484375 2159.23828125 13711.091796875 2158.6494140625 13715.9482421875 2158.6494140625 C 13727.8125 2158.6494140625 13739.2294921875 2162.13525390625 13748.962890625 2168.72998046875 L 13750.025390625 2169.44970703125 L 13751.123046875 2168.783935546875 C 13756.4833984375 2165.53076171875 13762.259765625 2163.014892578125 13768.291015625 2161.306884765625 C 13774.517578125 2159.54345703125 13780.9912109375 2158.6494140625 13787.533203125 2158.6494140625 C 13796.9306640625 2158.6494140625 13806.0458984375 2160.46533203125 13814.625 2164.04638671875 C 13818.7490234375 2165.767578125 13822.7255859375 2167.897705078125 13826.4462890625 2170.3779296875 C 13830.130859375 2172.834716796875 13833.595703125 2175.656005859375 13836.7451171875 2178.763427734375 C 13839.8935546875 2181.87060546875 13842.751953125 2185.2890625 13845.2412109375 2188.924560546875 C 13847.7529296875 2192.593505859375 13849.91015625 2196.515869140625 13851.6533203125 2200.58203125 C 13855.2783203125 2209.040771484375 13857.1171875 2218.027099609375 13857.1171875 2227.291259765625 C 13857.1171875 2236.555419921875 13855.2783203125 2245.541748046875 13851.6533203125 2254.00048828125 C 13849.91015625 2258.06689453125 13847.7529296875 2261.989013671875 13845.2412109375 2265.658203125 C 13842.751953125 2269.29345703125 13839.8935546875 2272.712158203125 13836.7451171875 2275.819091796875 C 13833.595703125 2278.9267578125 13830.130859375 2281.748046875 13826.4462890625 2284.20458984375 C 13822.7255859375 2286.684814453125 13818.7490234375 2288.815185546875 13814.625 2290.5361328125 C 13806.0458984375 2294.117431640625 13796.9306640625 2295.93310546875 13787.533203125 2295.93310546875 C 13781.1494140625 2295.93310546875 13774.826171875 2295.0810546875 13768.7392578125 2293.400634765625 C 13762.83984375 2291.772216796875 13757.1748046875 2289.370849609375 13751.9013671875 2286.263671875 L 13750.1171875 2285.21240234375 L 13749.1279296875 2287.031982421875 C 13746.1611328125 2292.4931640625 13741.8310546875 2297.08056640625 13736.60546875 2300.298095703125 C 13731.2353515625 2303.6044921875 13725.0693359375 2305.35205078125 13718.7724609375 2305.35205078125 C 13715.9150390625 2305.35205078125 13713.07421875 2304.994873046875 13710.3271484375 2304.2900390625 L 13709.5859375 2304.099853515625 L 13708.9072265625 2304.453125 C 13704.84375 2306.567138671875 13700.533203125 2308.1962890625 13696.09375 2309.295166015625 C 13691.5224609375 2310.427001953125 13686.7939453125 2311.000732421875 13682.0400390625 2311.000732421875 Z" stroke="none"/>
          <path d="M 13682.0400390625 2309.000732421875 C 13686.6328125 2309.000732421875 13691.19921875 2308.446533203125 13695.61328125 2307.353759765625 C 13699.8994140625 2306.292724609375 13704.0615234375 2304.719970703125 13707.9833984375 2302.678955078125 L 13709.341796875 2301.972412109375 L 13710.82421875 2302.352783203125 C 13713.408203125 2303.015869140625 13716.0830078125 2303.35205078125 13718.7724609375 2303.35205078125 C 13724.6982421875 2303.35205078125 13730.501953125 2301.70703125 13735.556640625 2298.594970703125 C 13740.4853515625 2295.560546875 13744.5703125 2291.23193359375 13747.37109375 2286.077392578125 L 13749.34765625 2282.43798828125 L 13752.916015625 2284.54052734375 C 13758.0390625 2287.55859375 13763.541015625 2289.89111328125 13769.271484375 2291.47265625 C 13775.185546875 2293.105224609375 13781.3291015625 2293.93310546875 13787.533203125 2293.93310546875 C 13796.6650390625 2293.93310546875 13805.5205078125 2292.169189453125 13813.85546875 2288.6904296875 C 13817.8603515625 2287.018798828125 13821.72265625 2284.94970703125 13825.3369140625 2282.54052734375 C 13828.916015625 2280.154296875 13832.28125 2277.4140625 13835.33984375 2274.3955078125 C 13838.3984375 2271.378173828125 13841.173828125 2268.058349609375 13843.5908203125 2264.5283203125 C 13846.029296875 2260.966552734375 13848.123046875 2257.159423828125 13849.814453125 2253.212646484375 C 13853.3330078125 2245.004150390625 13855.1171875 2236.282958984375 13855.1171875 2227.291259765625 C 13855.1171875 2218.299560546875 13853.3330078125 2209.578369140625 13849.814453125 2201.3701171875 C 13848.123046875 2197.42333984375 13846.029296875 2193.6162109375 13843.5908203125 2190.05419921875 C 13841.173828125 2186.5244140625 13838.3984375 2183.204345703125 13835.33984375 2180.18701171875 C 13832.28125 2177.168701171875 13828.916015625 2174.42822265625 13825.3369140625 2172.0419921875 C 13821.72265625 2169.6328125 13817.8603515625 2167.563720703125 13813.85546875 2165.89208984375 C 13805.5205078125 2162.413330078125 13796.6650390625 2160.6494140625 13787.533203125 2160.6494140625 C 13781.17578125 2160.6494140625 13774.884765625 2161.51806640625 13768.8359375 2163.231201171875 C 13762.9775390625 2164.890380859375 13757.3671875 2167.333740234375 13752.16015625 2170.493896484375 L 13749.9658203125 2171.8251953125 L 13747.841796875 2170.3857421875 C 13738.439453125 2164.01611328125 13727.4111328125 2160.6494140625 13715.9482421875 2160.6494140625 C 13711.25390625 2160.6494140625 13706.58984375 2161.21826171875 13702.0849609375 2162.34033203125 C 13697.7138671875 2163.428955078125 13693.4775390625 2165.04150390625 13689.4912109375 2167.133056640625 L 13686.0224609375 2168.95361328125 L 13684.1298828125 2165.522705078125 C 13680.5458984375 2159.02392578125 13675.2900390625 2153.560791015625 13668.9306640625 2149.724365234375 C 13665.71875 2147.786865234375 13662.265625 2146.289306640625 13658.666015625 2145.2734375 C 13654.951171875 2144.22509765625 13651.08984375 2143.693359375 13647.1884765625 2143.693359375 C 13642.421875 2143.693359375 13637.74609375 2144.48193359375 13633.291015625 2146.037353515625 C 13628.984375 2147.540771484375 13624.966796875 2149.72900390625 13621.34765625 2152.54150390625 C 13617.763671875 2155.326904296875 13614.6669921875 2158.649658203125 13612.142578125 2162.417236328125 C 13609.580078125 2166.241943359375 13607.67578125 2170.42626953125 13606.4833984375 2174.8544921875 L 13605.603515625 2178.121337890625 L 13602.236328125 2177.795654296875 C 13600.908203125 2177.667236328125 13599.5537109375 2177.60205078125 13598.2119140625 2177.60205078125 C 13592.529296875 2177.60205078125 13587.0185546875 2178.737060546875 13581.83203125 2180.9755859375 C 13576.814453125 2183.140869140625 13572.306640625 2186.24267578125 13568.43359375 2190.1953125 C 13564.5546875 2194.153564453125 13561.5087890625 2198.76318359375 13559.3818359375 2203.896728515625 C 13557.1767578125 2209.21484375 13556.0595703125 2214.8671875 13556.0595703125 2220.69677734375 C 13556.0595703125 2226.46728515625 13557.1552734375 2232.06640625 13559.3154296875 2237.3388671875 C 13561.4013671875 2242.42822265625 13564.390625 2247.0107421875 13568.19921875 2250.958740234375 C 13572.0009765625 2254.8984375 13576.431640625 2258.012939453125 13581.369140625 2260.215576171875 C 13586.466796875 2262.489501953125 13591.8935546875 2263.6904296875 13597.4990234375 2263.784912109375 L 13599.708984375 2263.822265625 L 13600.853515625 2265.713623046875 C 13602.8955078125 2269.087890625 13605.7802734375 2271.911865234375 13609.1962890625 2273.88037109375 C 13612.712890625 2275.90625 13616.73046875 2276.97705078125 13620.81640625 2276.97705078125 C 13622.9736328125 2276.97705078125 13625.1083984375 2276.683349609375 13627.162109375 2276.10400390625 L 13630.3271484375 2275.21142578125 L 13631.8154296875 2278.144287109375 C 13636.4501953125 2287.280029296875 13643.4951171875 2294.990234375 13652.1904296875 2300.44140625 C 13661.1220703125 2306.041015625 13671.443359375 2309.000732421875 13682.0400390625 2309.000732421875 M 13682.0400390625 2313.000732421875 C 13658.5498046875 2313.000732421875 13638.1953125 2299.56201171875 13628.248046875 2279.953857421875 C 13625.884765625 2280.620361328125 13623.392578125 2280.97705078125 13620.81640625 2280.97705078125 C 13610.8994140625 2280.97705078125 13602.216796875 2275.69189453125 13597.431640625 2267.784423828125 C 13572.298828125 2267.360595703125 13552.0595703125 2246.44140625 13552.0595703125 2220.69677734375 C 13552.0595703125 2194.686767578125 13572.720703125 2173.60205078125 13598.2119140625 2173.60205078125 C 13599.69921875 2173.60205078125 13601.169921875 2173.673828125 13602.62109375 2173.814208984375 C 13607.9150390625 2154.1591796875 13625.86328125 2139.693359375 13647.1884765625 2139.693359375 C 13664.609375 2139.693359375 13679.775390625 2149.343505859375 13687.6328125 2163.591064453125 C 13696.0751953125 2159.16064453125 13705.7138671875 2156.6494140625 13715.9482421875 2156.6494140625 C 13728.6201171875 2156.6494140625 13740.380859375 2160.499755859375 13750.0849609375 2167.07421875 C 13760.9794921875 2160.462646484375 13773.8046875 2156.6494140625 13787.533203125 2156.6494140625 C 13827.0654296875 2156.6494140625 13859.1171875 2188.276611328125 13859.1171875 2227.291259765625 C 13859.1171875 2266.30615234375 13827.0654296875 2297.93310546875 13787.533203125 2297.93310546875 C 13774.1396484375 2297.93310546875 13761.60546875 2294.302978515625 13750.8857421875 2287.98681640625 C 13744.6103515625 2299.5380859375 13732.5810546875 2307.35205078125 13718.7724609375 2307.35205078125 C 13715.6884765625 2307.35205078125 13712.6923828125 2306.961669921875 13709.830078125 2306.227294921875 C 13701.5146484375 2310.55419921875 13692.0615234375 2313.000732421875 13682.0400390625 2313.000732421875 Z" stroke="none" fill="#6c90ac"/>
        </g>
        <g id="Объединение_5" data-name="Объединение 5" transform="matrix(0.914, -0.407, 0.407, 0.914, -13243.715, 4584.938)" fill="#81a1ba">
          <path d="M 13682.0400390625 2311.000732421875 C 13671.0673828125 2311.000732421875 13660.3779296875 2307.935302734375 13651.1279296875 2302.1357421875 C 13642.125 2296.491943359375 13634.830078125 2288.508544921875 13630.03125 2279.049072265625 L 13629.2880859375 2277.58251953125 L 13627.705078125 2278.029052734375 C 13625.474609375 2278.657958984375 13623.1572265625 2278.97705078125 13620.81640625 2278.97705078125 C 13616.380859375 2278.97705078125 13612.017578125 2277.813720703125 13608.1982421875 2275.613037109375 C 13604.490234375 2273.476806640625 13601.359375 2270.41162109375 13599.142578125 2266.7490234375 L 13598.5703125 2265.80322265625 L 13597.4658203125 2265.78466796875 C 13591.5888671875 2265.685546875 13585.8994140625 2264.42626953125 13580.5537109375 2262.0419921875 C 13575.380859375 2259.734375 13570.740234375 2256.47265625 13566.759765625 2252.34716796875 C 13562.7744140625 2248.21630859375 13559.6474609375 2243.421875 13557.46484375 2238.09716796875 C 13555.205078125 2232.5830078125 13554.0595703125 2226.728515625 13554.0595703125 2220.69677734375 C 13554.0595703125 2214.60302734375 13555.228515625 2208.693115234375 13557.5341796875 2203.131103515625 C 13559.759765625 2197.76025390625 13562.9462890625 2192.93701171875 13567.0048828125 2188.79541015625 C 13571.060546875 2184.65673828125 13575.7822265625 2181.40771484375 13581.0390625 2179.13916015625 C 13586.4775390625 2176.792236328125 13592.2548828125 2175.60205078125 13598.2119140625 2175.60205078125 C 13599.6181640625 2175.60205078125 13601.037109375 2175.67041015625 13602.4287109375 2175.804931640625 L 13604.1123046875 2175.9677734375 L 13604.552734375 2174.33447265625 C 13605.8017578125 2169.69482421875 13607.796875 2165.310546875 13610.48046875 2161.303955078125 C 13613.1240234375 2157.358642578125 13616.3671875 2153.879150390625 13620.1201171875 2150.96240234375 C 13623.9111328125 2148.016357421875 13628.1201171875 2145.72412109375 13632.6318359375 2144.14892578125 C 13637.298828125 2142.51953125 13642.1962890625 2141.693359375 13647.1884765625 2141.693359375 C 13651.2734375 2141.693359375 13655.3173828125 2142.250244140625 13659.208984375 2143.3486328125 C 13662.98046875 2144.4130859375 13666.5986328125 2145.98193359375 13669.9638671875 2148.011962890625 C 13676.6240234375 2152.029541015625 13682.1279296875 2157.750732421875 13685.8818359375 2164.556884765625 L 13686.8271484375 2166.272216796875 L 13688.5625 2165.362060546875 C 13692.689453125 2163.1962890625 13697.076171875 2161.52685546875 13701.6015625 2160.399658203125 C 13706.2646484375 2159.23828125 13711.091796875 2158.6494140625 13715.9482421875 2158.6494140625 C 13727.8125 2158.6494140625 13739.2294921875 2162.13525390625 13748.962890625 2168.72998046875 L 13750.025390625 2169.44970703125 L 13751.123046875 2168.783935546875 C 13756.4833984375 2165.53076171875 13762.259765625 2163.014892578125 13768.291015625 2161.306884765625 C 13774.517578125 2159.54345703125 13780.9912109375 2158.6494140625 13787.533203125 2158.6494140625 C 13796.9306640625 2158.6494140625 13806.0458984375 2160.46533203125 13814.625 2164.04638671875 C 13818.7490234375 2165.767578125 13822.7255859375 2167.897705078125 13826.4462890625 2170.3779296875 C 13830.130859375 2172.834716796875 13833.595703125 2175.656005859375 13836.7451171875 2178.763427734375 C 13839.8935546875 2181.87060546875 13842.751953125 2185.2890625 13845.2412109375 2188.924560546875 C 13847.7529296875 2192.593505859375 13849.91015625 2196.515869140625 13851.6533203125 2200.58203125 C 13855.2783203125 2209.040771484375 13857.1171875 2218.027099609375 13857.1171875 2227.291259765625 C 13857.1171875 2236.555419921875 13855.2783203125 2245.541748046875 13851.6533203125 2254.00048828125 C 13849.91015625 2258.06689453125 13847.7529296875 2261.989013671875 13845.2412109375 2265.658203125 C 13842.751953125 2269.29345703125 13839.8935546875 2272.712158203125 13836.7451171875 2275.819091796875 C 13833.595703125 2278.9267578125 13830.130859375 2281.748046875 13826.4462890625 2284.20458984375 C 13822.7255859375 2286.684814453125 13818.7490234375 2288.815185546875 13814.625 2290.5361328125 C 13806.0458984375 2294.117431640625 13796.9306640625 2295.93310546875 13787.533203125 2295.93310546875 C 13781.1494140625 2295.93310546875 13774.826171875 2295.0810546875 13768.7392578125 2293.400634765625 C 13762.83984375 2291.772216796875 13757.1748046875 2289.370849609375 13751.9013671875 2286.263671875 L 13750.1171875 2285.21240234375 L 13749.1279296875 2287.031982421875 C 13746.1611328125 2292.4931640625 13741.8310546875 2297.08056640625 13736.60546875 2300.298095703125 C 13731.2353515625 2303.6044921875 13725.0693359375 2305.35205078125 13718.7724609375 2305.35205078125 C 13715.9150390625 2305.35205078125 13713.07421875 2304.994873046875 13710.3271484375 2304.2900390625 L 13709.5859375 2304.099853515625 L 13708.9072265625 2304.453125 C 13704.84375 2306.567138671875 13700.533203125 2308.1962890625 13696.09375 2309.295166015625 C 13691.5224609375 2310.427001953125 13686.7939453125 2311.000732421875 13682.0400390625 2311.000732421875 Z" stroke="none"/>
          <path d="M 13682.0400390625 2309.000732421875 C 13686.6328125 2309.000732421875 13691.19921875 2308.446533203125 13695.61328125 2307.353759765625 C 13699.8994140625 2306.292724609375 13704.0615234375 2304.719970703125 13707.9833984375 2302.678955078125 L 13709.341796875 2301.972412109375 L 13710.82421875 2302.352783203125 C 13713.408203125 2303.015869140625 13716.0830078125 2303.35205078125 13718.7724609375 2303.35205078125 C 13724.6982421875 2303.35205078125 13730.501953125 2301.70703125 13735.556640625 2298.594970703125 C 13740.4853515625 2295.560546875 13744.5703125 2291.23193359375 13747.37109375 2286.077392578125 L 13749.34765625 2282.43798828125 L 13752.916015625 2284.54052734375 C 13758.0390625 2287.55859375 13763.541015625 2289.89111328125 13769.271484375 2291.47265625 C 13775.185546875 2293.105224609375 13781.3291015625 2293.93310546875 13787.533203125 2293.93310546875 C 13796.6650390625 2293.93310546875 13805.5205078125 2292.169189453125 13813.85546875 2288.6904296875 C 13817.8603515625 2287.018798828125 13821.72265625 2284.94970703125 13825.3369140625 2282.54052734375 C 13828.916015625 2280.154296875 13832.28125 2277.4140625 13835.33984375 2274.3955078125 C 13838.3984375 2271.378173828125 13841.173828125 2268.058349609375 13843.5908203125 2264.5283203125 C 13846.029296875 2260.966552734375 13848.123046875 2257.159423828125 13849.814453125 2253.212646484375 C 13853.3330078125 2245.004150390625 13855.1171875 2236.282958984375 13855.1171875 2227.291259765625 C 13855.1171875 2218.299560546875 13853.3330078125 2209.578369140625 13849.814453125 2201.3701171875 C 13848.123046875 2197.42333984375 13846.029296875 2193.6162109375 13843.5908203125 2190.05419921875 C 13841.173828125 2186.5244140625 13838.3984375 2183.204345703125 13835.33984375 2180.18701171875 C 13832.28125 2177.168701171875 13828.916015625 2174.42822265625 13825.3369140625 2172.0419921875 C 13821.72265625 2169.6328125 13817.8603515625 2167.563720703125 13813.85546875 2165.89208984375 C 13805.5205078125 2162.413330078125 13796.6650390625 2160.6494140625 13787.533203125 2160.6494140625 C 13781.17578125 2160.6494140625 13774.884765625 2161.51806640625 13768.8359375 2163.231201171875 C 13762.9775390625 2164.890380859375 13757.3671875 2167.333740234375 13752.16015625 2170.493896484375 L 13749.9658203125 2171.8251953125 L 13747.841796875 2170.3857421875 C 13738.439453125 2164.01611328125 13727.4111328125 2160.6494140625 13715.9482421875 2160.6494140625 C 13711.25390625 2160.6494140625 13706.58984375 2161.21826171875 13702.0849609375 2162.34033203125 C 13697.7138671875 2163.428955078125 13693.4775390625 2165.04150390625 13689.4912109375 2167.133056640625 L 13686.0224609375 2168.95361328125 L 13684.1298828125 2165.522705078125 C 13680.5458984375 2159.02392578125 13675.2900390625 2153.560791015625 13668.9306640625 2149.724365234375 C 13665.71875 2147.786865234375 13662.265625 2146.289306640625 13658.666015625 2145.2734375 C 13654.951171875 2144.22509765625 13651.08984375 2143.693359375 13647.1884765625 2143.693359375 C 13642.421875 2143.693359375 13637.74609375 2144.48193359375 13633.291015625 2146.037353515625 C 13628.984375 2147.540771484375 13624.966796875 2149.72900390625 13621.34765625 2152.54150390625 C 13617.763671875 2155.326904296875 13614.6669921875 2158.649658203125 13612.142578125 2162.417236328125 C 13609.580078125 2166.241943359375 13607.67578125 2170.42626953125 13606.4833984375 2174.8544921875 L 13605.603515625 2178.121337890625 L 13602.236328125 2177.795654296875 C 13600.908203125 2177.667236328125 13599.5537109375 2177.60205078125 13598.2119140625 2177.60205078125 C 13592.529296875 2177.60205078125 13587.0185546875 2178.737060546875 13581.83203125 2180.9755859375 C 13576.814453125 2183.140869140625 13572.306640625 2186.24267578125 13568.43359375 2190.1953125 C 13564.5546875 2194.153564453125 13561.5087890625 2198.76318359375 13559.3818359375 2203.896728515625 C 13557.1767578125 2209.21484375 13556.0595703125 2214.8671875 13556.0595703125 2220.69677734375 C 13556.0595703125 2226.46728515625 13557.1552734375 2232.06640625 13559.3154296875 2237.3388671875 C 13561.4013671875 2242.42822265625 13564.390625 2247.0107421875 13568.19921875 2250.958740234375 C 13572.0009765625 2254.8984375 13576.431640625 2258.012939453125 13581.369140625 2260.215576171875 C 13586.466796875 2262.489501953125 13591.8935546875 2263.6904296875 13597.4990234375 2263.784912109375 L 13599.708984375 2263.822265625 L 13600.853515625 2265.713623046875 C 13602.8955078125 2269.087890625 13605.7802734375 2271.911865234375 13609.1962890625 2273.88037109375 C 13612.712890625 2275.90625 13616.73046875 2276.97705078125 13620.81640625 2276.97705078125 C 13622.9736328125 2276.97705078125 13625.1083984375 2276.683349609375 13627.162109375 2276.10400390625 L 13630.3271484375 2275.21142578125 L 13631.8154296875 2278.144287109375 C 13636.4501953125 2287.280029296875 13643.4951171875 2294.990234375 13652.1904296875 2300.44140625 C 13661.1220703125 2306.041015625 13671.443359375 2309.000732421875 13682.0400390625 2309.000732421875 M 13682.0400390625 2313.000732421875 C 13658.5498046875 2313.000732421875 13638.1953125 2299.56201171875 13628.248046875 2279.953857421875 C 13625.884765625 2280.620361328125 13623.392578125 2280.97705078125 13620.81640625 2280.97705078125 C 13610.8994140625 2280.97705078125 13602.216796875 2275.69189453125 13597.431640625 2267.784423828125 C 13572.298828125 2267.360595703125 13552.0595703125 2246.44140625 13552.0595703125 2220.69677734375 C 13552.0595703125 2194.686767578125 13572.720703125 2173.60205078125 13598.2119140625 2173.60205078125 C 13599.69921875 2173.60205078125 13601.169921875 2173.673828125 13602.62109375 2173.814208984375 C 13607.9150390625 2154.1591796875 13625.86328125 2139.693359375 13647.1884765625 2139.693359375 C 13664.609375 2139.693359375 13679.775390625 2149.343505859375 13687.6328125 2163.591064453125 C 13696.0751953125 2159.16064453125 13705.7138671875 2156.6494140625 13715.9482421875 2156.6494140625 C 13728.6201171875 2156.6494140625 13740.380859375 2160.499755859375 13750.0849609375 2167.07421875 C 13760.9794921875 2160.462646484375 13773.8046875 2156.6494140625 13787.533203125 2156.6494140625 C 13827.0654296875 2156.6494140625 13859.1171875 2188.276611328125 13859.1171875 2227.291259765625 C 13859.1171875 2266.30615234375 13827.0654296875 2297.93310546875 13787.533203125 2297.93310546875 C 13774.1396484375 2297.93310546875 13761.60546875 2294.302978515625 13750.8857421875 2287.98681640625 C 13744.6103515625 2299.5380859375 13732.5810546875 2307.35205078125 13718.7724609375 2307.35205078125 C 13715.6884765625 2307.35205078125 13712.6923828125 2306.961669921875 13709.830078125 2306.227294921875 C 13701.5146484375 2310.55419921875 13692.0615234375 2313.000732421875 13682.0400390625 2313.000732421875 Z" stroke="none" fill="#6c90ac"/>
        </g>
        <path id="Контур_6105" data-name="Контур 6105" d="M-636,17749.658l12.771,12.771,16.28-16.279" transform="translate(1618.292 -16299.302)" fill="none" stroke="#59819a" stroke-linecap="round" stroke-linejoin="round" stroke-width="8" opacity="0.8"/>
        <path id="Контур_6112" data-name="Контур 6112" d="M-636,17749.658l12.771,12.771,16.28-16.279" transform="translate(2390.292 -16560.301)" fill="none" stroke="#59819a" stroke-linecap="round" stroke-linejoin="round" stroke-width="8" opacity="0.8"/>
        <path id="Контур_6304" data-name="Контур 6304" d="M-636,17749.658l12.771,12.771,16.28-16.279" transform="translate(1165.292 -16656.035)" fill="none" stroke="#59819a" stroke-linecap="round" stroke-linejoin="round" stroke-width="8" opacity="0.8"/>
        <path id="Контур_6108" data-name="Контур 6108" d="M-636,17749.658l12.771,12.771,16.28-16.279" transform="translate(1289.937 -16232.247)" fill="none" stroke="#59819a" stroke-linecap="round" stroke-linejoin="round" stroke-width="8" opacity="0.8"/>
        <path id="Контур_6110" data-name="Контур 6110" d="M-636,17749.658l12.771,12.771,16.28-16.279" transform="translate(2188.271 -16114.247)" fill="none" stroke="#59819a" stroke-linecap="round" stroke-linejoin="round" stroke-width="8" opacity="0.8"/>
        <path id="Контур_6106" data-name="Контур 6106" d="M-636,17749.658l12.771,12.771,16.28-16.279" transform="translate(1573 -16280.782)" fill="none" stroke="#59819a" stroke-linecap="round" stroke-linejoin="round" stroke-width="8" opacity="0.8"/>
        <path id="Контур_6113" data-name="Контур 6113" d="M-636,17749.658l12.771,12.771,16.28-16.279" transform="translate(2345 -16541.781)" fill="none" stroke="#59819a" stroke-linecap="round" stroke-linejoin="round" stroke-width="8" opacity="0.8"/>
        <path id="Контур_6303" data-name="Контур 6303" d="M-636,17749.658l12.771,12.771,16.28-16.279" transform="translate(1120 -16637.516)" fill="none" stroke="#59819a" stroke-linecap="round" stroke-linejoin="round" stroke-width="8" opacity="0.8"/>
        <path id="Контур_6109" data-name="Контур 6109" d="M-636,17749.658l12.771,12.771,16.28-16.279" transform="translate(1244.645 -16213.728)" fill="none" stroke="#59819a" stroke-linecap="round" stroke-linejoin="round" stroke-width="8" opacity="0.8"/>
        <path id="Контур_6111" data-name="Контур 6111" d="M-636,17749.658l12.771,12.771,16.28-16.279" transform="translate(2142.979 -16095.728)" fill="none" stroke="#59819a" stroke-linecap="round" stroke-linejoin="round" stroke-width="8" opacity="0.8"/>
        <path id="Контур_6107" data-name="Контур 6107" d="M-636,17749.658l12.771,12.771,16.28-16.279" transform="translate(1800.093 -16377.706)" fill="none" stroke="#59819a" stroke-linecap="round" stroke-linejoin="round" stroke-width="8" opacity="0.8"/>
        <ellipse id="Эллипс_2447" data-name="Эллипс 2447" cx="18" cy="15.5" rx="18" ry="15.5" transform="translate(683 1187)" fill="#81a1ba"/>
        <circle id="Эллипс_2448" data-name="Эллипс 2448" cx="15.5" cy="15.5" r="15.5" transform="translate(960 1659)" fill="#81a1ba"/>
        <circle id="Эллипс_2449" data-name="Эллипс 2449" cx="15.5" cy="15.5" r="15.5" transform="translate(251 1114.633)" fill="#81a1ba"/>
        <circle id="Эллипс_2451" data-name="Эллипс 2451" cx="15.5" cy="15.5" r="15.5" transform="translate(1479 1516)" fill="#81a1ba"/>
        <ellipse id="Эллипс_2460" data-name="Эллипс 2460" cx="24.5" cy="17.5" rx="24.5" ry="17.5" transform="translate(1237 1178)" fill="#81a1ba"/>
        <circle id="Эллипс_2450" data-name="Эллипс 2450" cx="9.5" cy="9.5" r="9.5" transform="translate(282 1095.633)" fill="#81a1ba"/>
        <circle id="Эллипс_2452" data-name="Эллипс 2452" cx="9.5" cy="9.5" r="9.5" transform="translate(1510 1497)" fill="#81a1ba"/>
        <circle id="Эллипс_2461" data-name="Эллипс 2461" cx="12.5" cy="12.5" r="12.5" transform="translate(1274 1171)" fill="#81a1ba"/>
      </g>
    </g>
  </g>
</svg>
