<svg xmlns="http://www.w3.org/2000/svg" xmlns:xlink="http://www.w3.org/1999/xlink" width="1920" height="1080" viewBox="0 0 1920 1080">
  <defs>
    <clipPath id="clip-path">
      <rect id="Прямоугольник_1643" data-name="Прямоугольник 1643" width="1920" height="1080" transform="translate(-23674.215 9437.196)" fill="#6c91ab" stroke="#707070" stroke-width="1"/>
    </clipPath>
  </defs>
  <g id="Сгруппировать_2137" data-name="Сгруппировать 2137" transform="translate(23674.215 -9437.196)">
    <g id="Прямоугольник_1565" data-name="Прямоугольник 1565" transform="translate(-23674.215 9437.196)" fill="#6c91ab" stroke="#707070" stroke-width="1">
      <rect width="1920" height="1080" stroke="none"/>
      <rect x="0.5" y="0.5" width="1919" height="1079" fill="none"/>
    </g>
    <g id="Группа_масок_133" data-name="Группа масок 133" clip-path="url(#clip-path)">
      <g id="Сгруппировать_2109" data-name="Сгруппировать 2109" transform="translate(-23652.816 9060.767)">
        <path id="Объединение_3" data-name="Объединение 3" d="M13606.749,2280.6c0-1.157.045-2.305.133-3.439a27.323,27.323,0,0,1-.211-46.868c-.024-.621-.036-1.243-.036-1.87,0-26.009,20.663-47.095,46.152-47.095a45.329,45.329,0,0,1,12.915,1.868,60.473,60.473,0,0,1,50.245-26.546,61.19,61.19,0,0,1,16.635,2.288,46.154,46.154,0,1,1,64.523,65.331,69.843,69.843,0,0,1,2.753,19.468c0,39.014-32.052,70.639-71.586,70.639a71.928,71.928,0,0,1-39.731-11.871,43.83,43.83,0,0,1-81.792-21.9Z" transform="matrix(0.914, -0.407, 0.407, 0.914, -12988.563, 4847.51)" fill="#81a1ba"/>
        <path id="Объединение_16" data-name="Объединение 16" d="M13606.75,2280.6q0-1.735.133-3.438a27.323,27.323,0,0,1-.212-46.87c-.023-.62-.035-1.244-.035-1.87,0-26.009,20.662-47.095,46.151-47.095a45.341,45.341,0,0,1,12.916,1.868,59.986,59.986,0,0,1,12.178-13.218,69.63,69.63,0,0,1-4.656-25.114c0-39.016,32.05-70.642,71.582-70.642s71.586,31.626,71.586,70.642a69.6,69.6,0,0,1-8.409,33.248,46.16,46.16,0,0,1-37.764,72.693,46.669,46.669,0,0,1-5.233-.294,60.042,60.042,0,0,1-10.348,10.987,38.752,38.752,0,0,1,.868,8.18c0,20.808-16.445,37.674-36.734,37.674a36.22,36.22,0,0,1-26.907-12.029,43.832,43.832,0,0,1-85.115-14.722Z" transform="translate(-12127.109 -2986.581) rotate(7)" fill="#81a1ba"/>
        <path id="Объединение_19" data-name="Объединение 19" d="M13606.75,2280.6q0-1.735.133-3.438a27.325,27.325,0,0,1,3.026-48.549,69.229,69.229,0,0,1-3.273-21.114c0-37.563,29.844-68.018,66.654-68.018h.139c2.785-36.5,33.679-65.261,71.378-65.261,39.536,0,71.586,31.626,71.586,70.642a69.6,69.6,0,0,1-8.409,33.248,46.16,46.16,0,0,1-37.764,72.693,46.669,46.669,0,0,1-5.233-.294,60.042,60.042,0,0,1-10.348,10.987,38.752,38.752,0,0,1,.868,8.18c0,20.808-16.445,37.674-36.734,37.674a36.22,36.22,0,0,1-26.907-12.029,43.832,43.832,0,0,1-85.115-14.722Z" transform="translate(-11478.109 -3154.581) rotate(7)" fill="#81a1ba"/>
        <path id="Объединение_18" data-name="Объединение 18" d="M13609.537,2309.737q0-2.1.16-4.163a33.072,33.072,0,0,1-.256-56.73c-.029-.751-.043-1.5-.043-2.264,0-31.481,25.012-57,55.863-57a54.855,54.855,0,0,1,15.633,2.262,73.2,73.2,0,0,1,60.818-32.132,74.071,74.071,0,0,1,20.135,2.77,55.865,55.865,0,1,1,78.1,79.077,84.506,84.506,0,0,1,3.332,23.564c0,47.223-38.795,85.5-86.648,85.5a87.06,87.06,0,0,1-48.092-14.368,53.053,53.053,0,0,1-99-26.514Z" transform="translate(-12175.524 3330.192) rotate(-18)" fill="#81a1ba"/>
        <path id="Объединение_17" data-name="Объединение 17" d="M13606.749,2280.6c0-1.157.045-2.305.133-3.439a27.323,27.323,0,0,1-.211-46.868c-.024-.621-.036-1.243-.036-1.87,0-26.009,20.663-47.095,46.152-47.095a45.329,45.329,0,0,1,12.915,1.868,60.473,60.473,0,0,1,50.245-26.546,61.19,61.19,0,0,1,16.635,2.288,46.154,46.154,0,1,1,64.523,65.331,69.843,69.843,0,0,1,2.753,19.468c0,39.014-32.052,70.639-71.586,70.639a71.928,71.928,0,0,1-39.731-11.871,43.83,43.83,0,0,1-81.792-21.9Z" transform="matrix(0.848, 0.53, -0.53, 0.848, -9041.269, -8617.629)" fill="#81a1ba"/>
        <path id="Объединение_15" data-name="Объединение 15" d="M13606.749,2280.6c0-1.157.045-2.305.133-3.439a27.323,27.323,0,0,1-.211-46.868c-.024-.621-.036-1.243-.036-1.87,0-26.009,20.663-47.095,46.152-47.095a45.329,45.329,0,0,1,12.915,1.868,60.473,60.473,0,0,1,50.245-26.546,61.19,61.19,0,0,1,16.635,2.288,46.154,46.154,0,1,1,64.523,65.331,69.843,69.843,0,0,1,2.753,19.468c0,39.014-32.052,70.639-71.586,70.639a71.928,71.928,0,0,1-39.731-11.871,43.83,43.83,0,0,1-81.792-21.9Z" transform="translate(-12449.111 -4158.259) rotate(11)" fill="#81a1ba"/>
        <path id="Объединение_20" data-name="Объединение 20" d="M13606.749,2280.6c0-1.157.045-2.305.133-3.439a27.323,27.323,0,0,1-.211-46.868c-.024-.621-.036-1.243-.036-1.87,0-26.009,20.663-47.095,46.152-47.095a45.329,45.329,0,0,1,12.915,1.868,60.473,60.473,0,0,1,50.245-26.546,61.19,61.19,0,0,1,16.635,2.288,46.154,46.154,0,1,1,64.523,65.331,69.843,69.843,0,0,1,2.753,19.468c0,39.014-32.052,70.639-71.586,70.639a71.928,71.928,0,0,1-39.731-11.871,43.83,43.83,0,0,1-81.792-21.9Z" transform="translate(-13001.111 -4362.494) rotate(11)" fill="#81a1ba"/>
        <path id="Объединение_5" data-name="Объединение 5" d="M13628.248,2279.954a27.357,27.357,0,0,1-30.816-12.169c-25.133-.424-45.372-21.343-45.372-47.088,0-26.01,20.661-47.095,46.152-47.095q2.231,0,4.409.212a46.169,46.169,0,0,1,85.012-10.223,61.156,61.156,0,0,1,62.452,3.483,71.962,71.962,0,0,1,37.448-10.425c39.532,0,71.584,31.627,71.584,70.642s-32.052,70.642-71.584,70.642a71.978,71.978,0,0,1-36.647-9.946,36.594,36.594,0,0,1-32.113,19.365,35.94,35.94,0,0,1-8.942-1.125,60.329,60.329,0,0,1-81.582-26.273Z" transform="matrix(0.914, -0.407, 0.407, 0.914, -13243.715, 4624.938)" fill="#81a1ba"/>
        <path id="Контур_6303" data-name="Контур 6303" d="M-636,17749.658l12.771,12.771,16.28-16.279" transform="translate(1130 -16610.518)" fill="none" stroke="#59819a" stroke-linecap="round" stroke-linejoin="round" stroke-width="8" opacity="0.8"/>
        <path id="Контур_6494" data-name="Контур 6494" d="M-636,17749.658l12.771,12.771,16.28-16.279" transform="translate(1574.602 -17000.355)" fill="none" stroke="#59819a" stroke-linecap="round" stroke-linejoin="round" stroke-width="8" opacity="0.8"/>
        <path id="Контур_6501" data-name="Контур 6501" d="M-636,17749.658l12.771,12.771,16.28-16.279" transform="translate(1072.596 -17262.861)" fill="none" stroke="#59819a" stroke-linecap="round" stroke-linejoin="round" stroke-width="8" opacity="0.8"/>
        <path id="Контур_6500" data-name="Контур 6500" d="M-636,17749.658l12.771,12.771,16.28-16.279" transform="translate(1746.957 -16594.344)" fill="none" stroke="#59819a" stroke-linecap="round" stroke-linejoin="round" stroke-width="8" opacity="0.8"/>
        <path id="Контур_6496" data-name="Контур 6496" d="M-636,17749.658l12.771,12.771,16.28-16.279" transform="translate(1632.602 -17044.48)" fill="none" stroke="#59819a" stroke-linecap="round" stroke-linejoin="round" stroke-width="8" opacity="0.8"/>
        <path id="Контур_6503" data-name="Контур 6503" d="M-636,17749.658l12.771,12.771,16.28-16.279" transform="translate(971 -17246.582)" fill="none" stroke="#59819a" stroke-linecap="round" stroke-linejoin="round" stroke-width="8" opacity="0.8"/>
        <path id="Контур_6498" data-name="Контур 6498" d="M-636,17749.658l12.771,12.771,16.28-16.279" transform="translate(1804.957 -16638.469)" fill="none" stroke="#59819a" stroke-linecap="round" stroke-linejoin="round" stroke-width="8" opacity="0.8"/>
        <path id="Контур_6491" data-name="Контур 6491" d="M-636,17749.658l12.771,12.771,16.28-16.279" transform="translate(1166 -16646.518)" fill="none" stroke="#59819a" stroke-linecap="round" stroke-linejoin="round" stroke-width="8" opacity="0.8"/>
        <path id="Контур_6492" data-name="Контур 6492" d="M-636,17749.658l12.771,12.771,16.28-16.279" transform="translate(1195.051 -16599.656)" fill="none" stroke="#59819a" stroke-linecap="round" stroke-linejoin="round" stroke-width="8" opacity="0.8"/>
        <path id="Контур_6493" data-name="Контур 6493" d="M-636,17749.658l12.771,12.771,16.28-16.279" transform="translate(1639.652 -16989.496)" fill="none" stroke="#59819a" stroke-linecap="round" stroke-linejoin="round" stroke-width="8" opacity="0.8"/>
        <path id="Контур_6502" data-name="Контур 6502" d="M-636,17749.658l12.771,12.771,16.28-16.279" transform="translate(1008.525 -17289.422)" fill="none" stroke="#59819a" stroke-linecap="round" stroke-linejoin="round" stroke-width="8" opacity="0.8"/>
        <path id="Контур_6499" data-name="Контур 6499" d="M-636,17749.658l12.771,12.771,16.28-16.279" transform="translate(1812.008 -16583.484)" fill="none" stroke="#59819a" stroke-linecap="round" stroke-linejoin="round" stroke-width="8" opacity="0.8"/>
        <path id="Контур_6495" data-name="Контур 6495" d="M-636,17749.658l12.771,12.771,16.28-16.279" transform="translate(1697.652 -17033.621)" fill="none" stroke="#59819a" stroke-linecap="round" stroke-linejoin="round" stroke-width="8" opacity="0.8"/>
        <path id="Контур_6504" data-name="Контур 6504" d="M-636,17749.658l12.771,12.771,16.28-16.279" transform="translate(1087.122 -17317.846)" fill="none" stroke="#59819a" stroke-linecap="round" stroke-linejoin="round" stroke-width="8" opacity="0.8"/>
        <path id="Контур_6497" data-name="Контур 6497" d="M-636,17749.658l12.771,12.771,16.28-16.279" transform="translate(2234.008 -16858.609)" fill="none" stroke="#59819a" stroke-linecap="round" stroke-linejoin="round" stroke-width="8" opacity="0.8"/>
        <circle id="Эллипс_2449" data-name="Эллипс 2449" cx="15.5" cy="15.5" r="15.5" transform="translate(251 1154.633)" fill="#81a1ba"/>
        <circle id="Эллипс_2450" data-name="Эллипс 2450" cx="9.5" cy="9.5" r="9.5" transform="translate(282 1135.633)" fill="#81a1ba"/>
      </g>
    </g>
  </g>
</svg>
